<?xml version="1.0" encoding="utf-8"?>
<!-- Generator: Adobe Illustrator 24.1.3, SVG Export Plug-In . SVG Version: 6.00 Build 0)  -->
<svg version="1.1" id="Capa_1" xmlns="http://www.w3.org/2000/svg" xmlns:xlink="http://www.w3.org/1999/xlink" x="0px" y="0px"
	 viewBox="0 0 100 100" style="enable-background:new 0 0 100 100;" xml:space="preserve">
<style type="text/css">
	.st0{fill:#8E61ED;}
	.st1{fill:#F2F2F2;}
</style>
<g>
	<circle class="st0" cx="50" cy="50" r="50"/>
	<path class="st1" d="M75.3,31.7L75.3,31.7v41H25.9v-41H75.3z"/>
	<path class="st1" d="M75.3,25.4v6.3H25.9l0,0v-6.3l0,0c0-1.7,1.2-3.1,2.7-3.1l0,0h43.7C74.1,22.2,75.2,23.6,75.3,25.4L75.3,25.4
		L75.3,25.4z"/>
	<path class="st1" d="M72.5,75.8H28.8c-1.5,0-2.7-1.4-2.7-3.2c0-1.7,1.2-3.2,2.7-3.2h43.7c1.5,0,2.7,1.4,2.7,3.2
		C75.3,74.4,74.1,75.8,72.5,75.8z"/>
	<path class="st0" d="M64.3,47.4H36.9c-1.5,0-2.7-1.4-2.7-3.2c0-1.7,1.2-3.2,2.7-3.2h27.4c1.5,0,2.7,1.4,2.7,3.2
		C67,46,65.8,47.4,64.3,47.4z"/>
	<path class="st0" d="M64.3,56.9H36.9c-1.5,0-2.7-1.4-2.7-3.2c0-1.7,1.2-3.2,2.7-3.2h27.4c1.5,0,2.7,1.4,2.7,3.2
		C67,55.6,65.8,56.9,64.3,56.9z"/>
	<path class="st0" d="M56,66.4h-11c-1.5,0-2.7-1.4-2.7-3.2c0-1.7,1.2-3.2,2.7-3.2h11c1.5,0,2.7,1.4,2.7,3.2
		C58.9,64.9,57.7,66.4,56,66.4z"/>
</g>
</svg>
