<?xml version="1.0" encoding="utf-8"?>
<!-- Generator: Adobe Illustrator 24.1.3, SVG Export Plug-In . SVG Version: 6.00 Build 0)  -->
<svg version="1.1" id="Capa_1" xmlns="http://www.w3.org/2000/svg" xmlns:xlink="http://www.w3.org/1999/xlink" x="0px" y="0px"
	 viewBox="0 0 100 100" style="enable-background:new 0 0 100 100;" xml:space="preserve">
<style type="text/css">
	.st0{fill:#8E61ED;}
	.st1{fill:#D9D9D9;}
	.st2{fill:#F2F2F2;}
</style>
<g>
	<circle class="st0" cx="50" cy="50" r="50"/>
</g>
<circle class="st0" cx="49.5" cy="50.5" r="40.5"/>
<path class="st1" d="M25,53.5c0,5,4,9,9,9h29.9c6.1,0,11.1-5,11.1-11.1v1.4V57v0c0,6.1-5,11.1-11.1,11.1H34c-5,0-9-4-9-9V57V53.5z"
	/>
<path class="st2" d="M35,44.5C36.3,37.4,42.5,32,50,32c5.9,0,11.1,3.4,13.6,8.3h0.3c6.1,0,11.1,5,11.1,11.1c0,6.1-5,11.1-11.1,11.1
	H34c-5,0-9-4-9-9c0-0.2,0-0.5,0-0.7c0.4-4.7,4.3-8.3,9-8.3H35z"/>
</svg>
