<?xml version="1.0" encoding="utf-8"?>
<!-- Generator: Adobe Illustrator 24.1.3, SVG Export Plug-In . SVG Version: 6.00 Build 0)  -->
<svg version="1.1" id="Capa_1" xmlns="http://www.w3.org/2000/svg" xmlns:xlink="http://www.w3.org/1999/xlink" x="0px" y="0px"
	 viewBox="0 0 100 100" style="enable-background:new 0 0 100 100;" xml:space="preserve">
<style type="text/css">
	.st0{fill:#8E61ED;}
	.st1{fill:#F2F2F2;}
	.st2{fill:#CCD1D9;}
	.st3{fill:#F2F2F2;stroke:#8E61ED;}
</style>
<g>
	<circle class="st0" cx="50" cy="50" r="50"/>
</g>
<circle class="st0" cx="49.5" cy="50.5" r="40.5"/>
<path class="st1" d="M34.7,32.2v24.7h-3.5h-0.1V34.5c0-1.3,1.1-2.4,2.4-2.4H34.7z"/>
<path class="st2" d="M55.3,61.6l1.2,5.9H43.5l1.2-5.9H55.3z"/>
<path class="st1" d="M68.8,56.9v2.4c0,1.3-1.1,2.4-2.4,2.4H54.7h-9.4H33.5c-1.3,0-2.4-1.1-2.4-2.4v-2.4h0.1h3.5H68.8z"/>
<path class="st3" d="M35.2,32.7h31.3c1,0,1.9,0.8,1.9,1.9v21.9H35.2V32.7z"/>
<path class="st1" d="M66.5,62.8H33.5c-1.9,0-3.5-1.6-3.5-3.5V34.5c0-1.9,1.6-3.5,3.5-3.5h32.9c1.9,0,3.5,1.6,3.5,3.5v24.7
	C70,61.2,68.4,62.8,66.5,62.8z M33.5,33.4c-0.6,0-1.2,0.5-1.2,1.2v24.7c0,0.6,0.5,1.2,1.2,1.2h32.9c0.6,0,1.2-0.5,1.2-1.2V34.5
	c0-0.6-0.5-1.2-1.2-1.2H33.5z"/>
<path class="st1" d="M58.2,68.6H41.8c-0.7,0-1.2-0.5-1.2-1.2c0-0.6,0.5-1.2,1.2-1.2h16.5c0.6,0,1.2,0.5,1.2,1.2
	C59.4,68.1,58.9,68.6,58.2,68.6z"/>
<path class="st0" d="M41.8,37.5h-3.5c-0.6,0-1.2-0.5-1.2-1.2c0-0.7,0.5-1.2,1.2-1.2h3.5c0.7,0,1.2,0.5,1.2,1.2
	C42.9,36.9,42.4,37.5,41.8,37.5z"/>
<path class="st0" d="M41.8,55.1h-3.5c-0.6,0-1.2-0.5-1.2-1.2c0-0.7,0.5-1.2,1.2-1.2h3.5c0.7,0,1.2,0.5,1.2,1.2
	C42.9,54.6,42.4,55.1,41.8,55.1z"/>
<path class="st0" d="M47.6,51.6h-8.2c-0.7,0-1.2-0.5-1.2-1.2c0-0.6,0.5-1.2,1.2-1.2h8.2c0.7,0,1.2,0.5,1.2,1.2
	C48.8,51.1,48.3,51.6,47.6,51.6z"/>
<path class="st0" d="M57.1,44.5H40.6c-0.7,0-1.2-0.5-1.2-1.2c0-0.6,0.5-1.2,1.2-1.2h16.5c0.7,0,1.2,0.5,1.2,1.2
	C58.2,44,57.7,44.5,57.1,44.5z"/>
<path class="st0" d="M63,48.1H40.6c-0.7,0-1.2-0.5-1.2-1.2c0-0.7,0.5-1.2,1.2-1.2H63c0.6,0,1.2,0.5,1.2,1.2
	C64.1,47.5,63.6,48.1,63,48.1z"/>
<path class="st0" d="M52.4,41h-13c-0.7,0-1.2-0.5-1.2-1.2c0-0.7,0.5-1.2,1.2-1.2h13c0.7,0,1.2,0.5,1.2,1.2C53.5,40.5,53,41,52.4,41z
	"/>
<path class="st0" d="M50,61c-0.7,0-1.2-0.5-1.2-1.2c0-0.7,0.5-1.2,1.2-1.2h0c0.6,0,1.2,0.5,1.2,1.2C51.2,60.5,50.7,61,50,61z"/>
</svg>
