<?xml version="1.0" encoding="utf-8"?>
<!-- Generator: Adobe Illustrator 24.1.3, SVG Export Plug-In . SVG Version: 6.00 Build 0)  -->
<svg version="1.1" id="Capa_1" xmlns="http://www.w3.org/2000/svg" xmlns:xlink="http://www.w3.org/1999/xlink" x="0px" y="0px"
	 viewBox="0 0 100 100" style="enable-background:new 0 0 100 100;" xml:space="preserve">
<style type="text/css">
	.st0{fill:#8E61ED;}
	.st1{fill:#F2F2F2;}
</style>
<g>
	<circle class="st0" cx="50" cy="50" r="50"/>
</g>
<circle class="st0" cx="49.5" cy="50.5" r="40.5"/>
<path class="st0" d="M53.1,51c0-1.7-1.4-3.1-3.1-3.1c-1.7,0-3.1,1.4-3.1,3.1c0,1.7,1.4,3.1,3.1,3.1C51.7,54.1,53.1,52.7,53.1,51z
	 M50,43.2c4.3,0,7.8,3.5,7.8,7.8c0,4.3-3.5,7.8-7.8,7.8s-7.8-3.5-7.8-7.8C42.2,46.7,45.7,43.2,50,43.2z"/>
<path class="st1" d="M73.4,54.1v1.6h-3.7c-0.5,2.1-1.4,4.1-2.5,6l2.6,2.6l-6.6,6.6l-2.6-2.6c-1.8,1.1-3.8,2-6,2.5v3.7h-9.4v-3.7
	c-2.1-0.5-4.1-1.3-6-2.5l-2.6,2.6l-6.6-6.6l2.6-2.6c-1.1-1.8-2-3.8-2.5-6h-3.7v-1.6v-6.3v-1.5h3.7c0.5-2.1,1.4-4.1,2.5-6l-2.6-2.6
	l6.6-6.6l2.6,2.6c1.8-1.1,3.8-2,6-2.5v-3.7h9.4v3.7c2.1,0.5,4.1,1.3,6,2.5l2.6-2.6l6.6,6.6l-2.6,2.6c1.1,1.8,2,3.8,2.5,6h3.7v1.5
	V54.1z M57.8,51c0-4.3-3.5-7.8-7.8-7.8s-7.8,3.5-7.8,7.8c0,4.3,3.5,7.8,7.8,7.8S57.8,55.3,57.8,51z"/>
<path class="st1" d="M54.7,76h-9.4c-0.9,0-1.6-0.7-1.6-1.6v-2.5c-1.4-0.4-2.8-1-4.1-1.7L37.8,72c-0.6,0.6-1.6,0.6-2.2,0L29,65.4
	c-0.3-0.3-0.5-0.7-0.5-1.1c0-0.4,0.2-0.8,0.5-1.1l1.8-1.8c-0.7-1.3-1.3-2.7-1.7-4.1h-2.5c-0.9,0-1.6-0.7-1.6-1.6l0-9.4
	c0-0.4,0.2-0.8,0.5-1.1c0.3-0.3,0.7-0.5,1.1-0.5h2.5c0.4-1.4,1-2.8,1.7-4.1L29,38.8c-0.6-0.6-0.6-1.6,0-2.2l6.6-6.6
	c0.6-0.6,1.6-0.6,2.2,0l1.8,1.8c1.3-0.7,2.7-1.3,4.1-1.7v-2.5c0-0.9,0.7-1.6,1.6-1.6h9.4c0.9,0,1.6,0.7,1.6,1.6v2.5
	c1.4,0.4,2.8,1,4.1,1.7l1.8-1.8c0.6-0.6,1.6-0.6,2.2,0l6.6,6.6c0.6,0.6,0.6,1.6,0,2.2l-1.8,1.8c0.7,1.3,1.3,2.7,1.7,4.1h2.5
	c0.9,0,1.6,0.7,1.6,1.6v9.4c0,0.9-0.7,1.6-1.6,1.6h-2.5c-0.4,1.4-1,2.8-1.7,4.1l1.8,1.8c0.3,0.3,0.5,0.7,0.5,1.1
	c0,0.4-0.2,0.8-0.5,1.1L64.4,72c-0.3,0.3-0.7,0.5-1.1,0.5c-0.4,0-0.8-0.2-1.1-0.5l-1.8-1.8c-1.3,0.7-2.7,1.3-4.1,1.7v2.5
	C56.3,75.3,55.6,76,54.7,76z M46.9,72.9h6.2v-2.1c0-0.7,0.5-1.4,1.2-1.5c1.9-0.5,3.8-1.2,5.5-2.3c0.6-0.4,1.4-0.3,1.9,0.2l1.5,1.5
	l4.4-4.4l-1.5-1.5c-0.5-0.5-0.6-1.3-0.2-1.9c1.1-1.7,1.8-3.6,2.3-5.5c0.2-0.7,0.8-1.2,1.5-1.2h2.1v-6.2h-2.1c-0.7,0-1.4-0.5-1.5-1.2
	c-0.5-1.9-1.2-3.8-2.3-5.5c-0.4-0.6-0.3-1.4,0.2-1.9l1.5-1.5l-4.4-4.4l-1.5,1.5c-0.5,0.5-1.3,0.6-1.9,0.2c-1.7-1.1-3.6-1.8-5.5-2.3
	c-0.7-0.2-1.2-0.8-1.2-1.5v-2.1h-6.2v2.1c0,0.7-0.5,1.4-1.2,1.5c-1.9,0.5-3.8,1.2-5.5,2.3c-0.6,0.4-1.4,0.3-1.9-0.2l-1.5-1.5
	l-4.4,4.4l1.5,1.5c0.5,0.5,0.6,1.3,0.2,1.9c-1.1,1.7-1.8,3.6-2.3,5.5c-0.2,0.7-0.8,1.2-1.5,1.2h-2.1l0,6.2h2.1
	c0.7,0,1.4,0.5,1.5,1.2c0.5,1.9,1.2,3.8,2.3,5.5c0.4,0.6,0.3,1.4-0.2,1.9l-1.5,1.5l4.4,4.4l1.5-1.5c0.5-0.5,1.3-0.6,1.9-0.2
	c1.7,1.1,3.6,1.8,5.5,2.3c0.7,0.2,1.2,0.8,1.2,1.5V72.9z"/>
<path class="st0" d="M50,66.6c-8.6,0-15.6-7-15.6-15.6c0-0.9,0.7-1.6,1.6-1.6s1.6,0.7,1.6,1.6c0,6.9,5.6,12.5,12.5,12.5
	c0.9,0,1.6,0.7,1.6,1.6C51.6,65.9,50.9,66.6,50,66.6z"/>
<path class="st0" d="M64.1,52.5c-0.9,0-1.6-0.7-1.6-1.6c0-6.9-5.6-12.5-12.5-12.5c-0.9,0-1.6-0.7-1.6-1.6s0.7-1.6,1.6-1.6
	c8.6,0,15.6,7,15.6,15.6C65.6,51.8,64.9,52.5,64.1,52.5z"/>
</svg>
