<?xml version="1.0" encoding="utf-8"?>
<!-- Generator: Adobe Illustrator 24.1.3, SVG Export Plug-In . SVG Version: 6.00 Build 0)  -->
<svg version="1.1" id="Capa_1" xmlns="http://www.w3.org/2000/svg" xmlns:xlink="http://www.w3.org/1999/xlink" x="0px" y="0px"
	 viewBox="0 0 100 100" style="enable-background:new 0 0 100 100;" xml:space="preserve">
<style type="text/css">
	.st0{fill:#8E61ED;}
	.st1{fill:#F2F2F2;stroke:#8E61ED;stroke-width:0.5;}
	.st2{fill:#F2F2F2;}
</style>
<g>
	<g>
		<circle class="st0" cx="50" cy="50" r="50"/>
	</g>
	<circle class="st0" cx="49.5" cy="50.5" r="40.5"/>
	<path class="st1" d="M49.8,47.8H30.3c0.1-10.7,8.8-19.4,19.5-19.5V47.8z"/>
	<path class="st1" d="M50.3,28.3c5.3,0.1,10,2.2,13.5,5.6L50.3,47.4V28.3z"/>
	<path class="st2" d="M70,48v4.7c0,5.5-2.2,10.5-5.9,14.1v-4.7C67.8,58.5,70,53.5,70,48z"/>
	<path class="st1" d="M50.4,48l13.8-13.8c3.5,3.6,5.6,8.4,5.6,13.8c0,5.4-2.1,10.2-5.6,13.8L50.4,48z"/>
	<path class="st2" d="M30,48c0,11,9,20,20,20c5.5,0,10.5-2.2,14.1-5.9v4.7c-3.6,3.6-8.6,5.9-14.1,5.9c-11,0-20-9-20-20V48z"/>
	<path class="st1" d="M30.3,48.3h19.6l13.9,13.9c-3.6,3.5-8.4,5.6-13.8,5.6C39.2,67.8,30.4,59,30.3,48.3z"/>
</g>
</svg>
