<?xml version="1.0" encoding="utf-8"?>
<!-- Generator: Adobe Illustrator 24.1.3, SVG Export Plug-In . SVG Version: 6.00 Build 0)  -->
<svg version="1.1" id="Capa_1" xmlns="http://www.w3.org/2000/svg" xmlns:xlink="http://www.w3.org/1999/xlink" x="0px" y="0px"
	 viewBox="0 0 100 100" style="enable-background:new 0 0 100 100;" xml:space="preserve">
<style type="text/css">
	.st0{fill:#8E61ED;}
	.st1{fill:#F2F2F2;}
</style>
<g>
	<g>
		<circle class="st0" cx="50" cy="50" r="50"/>
	</g>
	<circle class="st0" cx="49.5" cy="50.5" r="40.5"/>
	<path class="st1" d="M28,36h-9v27h9c0.5,0,1-0.5,1-1c0-0.6,0-1.5,0-2V39c0-0.6,0-1.5,0-2C29,36.4,28.6,36,28,36z"/>
	<path class="st1" d="M57,45l19.3-2.9c0.2,0,0.4-0.1,0.7-0.1c2.2,0,4,1.8,4,4c0,1.5-0.8,2.8-2,3.5L52,64l-23-3V38h9l15.7,3.1
		C55.6,41.4,57,43,57,45z"/>
	<path class="st0" d="M24,61c-0.6,0-1-0.4-1-1s0.4-1,1-1h0c0.6,0,1,0.4,1,1S24.6,61,24,61z"/>
	<path class="st0" d="M59,44.7L57,45c0,2.2-1.8,4-4,4c-0.1,0-0.2,0-0.3,0c0,0,0,0,0,0l-12.6-1c-0.5,0-1,0.4-1.1,0.9
		c0,0.6,0.4,1,0.9,1.1l12.5,1v0c0.2,0,0.4,0,0.6,0c3.3,0,6-2.7,6-6C59,44.9,59,44.8,59,44.7z"/>
</g>
</svg>
