<svg width="100" height="38" viewBox="0 0 100 38" fill="none" xmlns="http://www.w3.org/2000/svg">
<path d="M11.1186 34.4269C10.8467 34.1964 10.3928 33.867 10.1993 33.7288C10.0058 33.5905 8.65556 32.5606 7.20398 31.4477L3.56812 28.6828C0.773261 26.5723 0.432257 26.2958 0.238712 25.9179C-0.272796 24.9295 0.296313 23.8696 1.57969 23.4226C2.06816 23.2521 2.52207 23.3696 3.13726 23.8258C3.43219 24.0378 4.11419 24.547 4.66948 24.9502C5.22477 25.3534 6.10032 26.0331 6.63487 26.4363C7.16942 26.8396 7.83991 27.358 8.11179 27.5607C9.8606 28.8671 9.92972 28.9432 9.92972 29.3764C9.92972 29.7174 9.88364 29.8118 9.68088 29.8856C9.42973 29.9708 9.42973 29.9708 9.68088 30.0883C9.83955 30.198 9.95264 30.3619 9.99885 30.5491C10.0887 30.9201 10.7362 32.0883 11.2016 32.7127C11.4527 33.0537 11.5426 33.3071 11.6002 33.9661C11.6487 34.2361 11.6564 34.5118 11.6232 34.7841C11.4244 34.6685 11.2376 34.5335 11.0656 34.3808L11.1186 34.4269Z" fill="#D3778B"/>
<path d="M16.4598 37.1571C15.1073 37.0396 12.5083 35.6478 11.2134 34.4957C11.057 34.3307 11.3217 34.5024 11.1184 34.4007C11.0953 34.4214 11.1017 34.4024 11.0234 34.3057C10.8298 34.0753 10.8931 33.9936 11.1442 34.1733C11.3239 34.3116 11.3355 34.3001 11.1995 34.1526C11.112 34.0055 11.0725 33.8347 11.0866 33.6641C11.0747 33.4135 10.9789 33.1741 10.8147 32.9844C10.3461 32.3487 9.95908 31.6567 9.66268 30.9246C9.59727 30.7183 9.4751 30.5347 9.31016 30.3946C8.95763 30.1181 8.82169 29.5237 9.07975 29.4292C9.12821 29.4068 9.18297 29.4018 9.23467 29.4153C9.28637 29.4287 9.33178 29.4597 9.36315 29.503C9.44379 29.6205 9.47836 29.6089 9.54518 29.4615C9.56785 29.4088 9.5747 29.3507 9.56488 29.2943C9.55506 29.2378 9.52899 29.1854 9.48988 29.1435C9.39771 29.0583 9.36315 29.0583 9.36315 29.1435C9.36378 29.1601 9.36101 29.1767 9.35502 29.1922C9.34902 29.2077 9.33991 29.2218 9.32826 29.2337C9.31661 29.2456 9.30266 29.2549 9.28727 29.2612C9.27187 29.2675 9.25536 29.2706 9.23873 29.2702C9.18343 29.2702 9.16039 29.2172 9.19495 29.1642C9.21339 29.1222 9.21885 29.0756 9.21064 29.0305C9.20243 28.9853 9.18092 28.9436 9.14887 28.9108C9.05671 28.8048 9.05671 28.7403 9.18343 28.6458C9.31016 28.5514 9.54518 28.6666 10.4092 29.3232C10.9898 29.7702 12.317 30.7794 13.3515 31.5628C15.1119 32.89 15.499 33.2724 15.499 33.6964C15.499 33.8876 16.0105 34.7586 16.2593 34.9913C16.4348 35.1913 16.5842 35.4127 16.704 35.6503C16.7869 35.8525 16.9192 36.0307 17.0888 36.1687C17.1579 36.1687 17.204 36.4129 17.204 36.7009C17.204 37.0604 17.1579 37.2194 17.0657 37.2101C16.9736 37.2009 16.7155 37.1779 16.4644 37.1571L16.4598 37.1571Z" fill="#CA7497"/>
<path d="M16.8584 37.0926C16.8567 37.0481 16.8429 37.0048 16.8186 36.9675C16.7942 36.9302 16.7602 36.9002 16.7202 36.8806C16.6073 36.8392 16.6073 36.8161 16.7202 36.8161C16.8815 36.8161 16.9137 36.4889 16.7432 36.4889C16.5739 36.3498 16.4417 36.1709 16.3584 35.9682C16.2375 35.7313 16.0881 35.5101 15.9138 35.3092C15.6419 35.0443 15.1534 34.1964 15.1534 33.9729C15.1084 33.7512 15.0113 33.5435 14.87 33.3669C14.7225 33.1549 14.6189 32.9867 14.6649 32.9867C14.711 32.9867 14.6649 32.9107 14.5866 32.8277C14.3124 32.519 14.3262 32.4461 14.87 32.764C15.688 33.264 17.0289 33.5904 17.7893 33.4429C18.0154 33.3874 18.2478 33.3619 18.4805 33.3669C18.6371 33.5939 18.7772 33.8318 18.8999 34.0789C19.0969 34.4668 19.3714 34.8103 19.7063 35.088C19.9614 35.2528 20.1474 35.5052 20.2293 35.7977C20.2639 36.0005 20.3422 36.1687 20.3998 36.1687C20.6049 36.1687 20.4811 36.3761 20.2415 36.4913C19.4519 36.8348 18.6288 37.0866 17.7707 37.1565C16.9988 37.2188 16.8677 37.2493 16.8677 37.0995L16.8584 37.0926Z" fill="#C270A5"/>
<path d="M20.0682 36.5053C19.9615 36.3859 19.8905 36.239 19.8632 36.0813C19.7747 35.8002 19.5946 35.5568 19.3517 35.3901C18.9902 35.0867 18.6966 34.7107 18.4899 34.2864C18.2595 33.8509 18.013 33.5007 17.9439 33.5007C17.8747 33.5007 18.1028 33.3832 18.4438 33.2565C19.1913 32.9445 19.8897 32.5262 20.5175 32.0146C20.8701 31.7289 20.8931 31.7289 21.2802 31.8763C21.6289 32.0621 21.9374 32.315 22.188 32.6206C22.4714 32.9385 22.7571 33.268 22.8354 33.3302C23.188 33.6274 23.3239 33.7127 23.4944 33.7127C23.6073 33.7127 23.6649 33.8187 23.6649 34.0214C23.6649 34.2749 23.4944 34.4454 22.5636 35.1343C21.347 36.0168 20.2595 36.6112 20.0636 36.4937L20.0682 36.5053Z" fill="#B86DB3"/>
<path d="M23.1397 34.4088C23.1237 34.3607 23.1241 34.3086 23.1408 34.2607C23.1574 34.2128 23.1894 34.1717 23.2318 34.1439C23.3562 34.0678 23.3447 34.0471 23.1857 34.0471C23.055 34.0395 22.9289 33.9956 22.8217 33.9204C22.7318 33.8466 22.5913 33.7291 22.5152 33.6646C22.4392 33.6001 22.142 33.2798 21.8563 32.9549C21.6186 32.6525 21.3204 32.4029 20.9807 32.2222C20.8419 32.1918 20.7133 32.1259 20.6075 32.031C20.6075 31.9573 21.3678 31.3398 21.8102 31.0771C21.9577 30.9919 22.5728 30.5356 23.1926 30.0794C23.8124 29.6232 24.3631 29.197 24.4299 29.144C24.4819 29.1184 24.5412 29.1118 24.5976 29.1252C24.654 29.1387 24.7039 29.1714 24.7387 29.2177C24.8206 29.2971 24.9225 29.3529 25.0336 29.379C25.1004 29.379 25.158 29.4205 25.158 29.4735C25.2241 29.6055 25.3139 29.7242 25.423 29.8237C25.6095 30.0304 25.7805 30.2507 25.9345 30.4826C26.082 30.6946 26.264 30.8628 26.3562 30.8628C26.3981 30.8634 26.4382 30.8804 26.4679 30.91C26.4976 30.9397 26.5146 30.9798 26.5151 31.0218C26.5151 31.1071 26.6741 31.2038 26.9115 31.2522C27.1488 31.3006 27.3101 31.3697 27.3101 31.4435C27.3101 31.5172 26.8654 31.9043 26.3216 32.3029C25.7778 32.7015 24.8792 33.3973 24.3447 33.8213C23.8101 34.2452 23.3217 34.5862 23.2871 34.5862C23.2526 34.5862 23.1857 34.5102 23.1397 34.4157L23.1397 34.4088Z" fill="#AF6AC1"/>
<path d="M33.0788 26.5976C32.9542 26.4768 32.8408 26.3449 32.7401 26.2036C32.6365 25.9501 31.7724 25.1852 31.466 25.0792C31.2747 25.0054 30.9452 24.8879 30.7517 24.8234C30.6122 24.7877 30.4834 24.719 30.3761 24.623C30.3761 24.4847 31.8761 23.5193 32.1941 23.434C32.9429 23.2336 33.9774 23.7197 34.3645 24.4524C34.7839 25.2704 34.5235 26.1183 33.6733 26.692C33.3784 26.904 33.3784 26.904 33.0696 26.5976L33.0788 26.5976Z" fill="#8E61ED"/>
<path d="M26.9457 31.6666C26.8149 31.6055 26.6702 31.58 26.5263 31.5929C26.2637 31.5814 26.1738 31.5284 26.1738 31.3786C26.176 31.3557 26.1736 31.3326 26.1668 31.3107C26.16 31.2887 26.1488 31.2683 26.134 31.2507C26.1192 31.2332 26.1011 31.2187 26.0806 31.2082C26.0601 31.1977 26.0378 31.1914 26.0148 31.1897C25.9227 31.1897 25.7406 31.0192 25.5932 30.8072C25.4387 30.5756 25.2678 30.3553 25.0817 30.1482C24.9692 30.0502 24.8769 29.9313 24.8098 29.798C24.8089 29.7843 24.8053 29.7708 24.7991 29.7585C24.7929 29.7462 24.7842 29.7353 24.7737 29.7265C24.7631 29.7177 24.7508 29.7111 24.7376 29.7071C24.7244 29.7032 24.7106 29.702 24.6969 29.7036C24.5757 29.6721 24.4631 29.6138 24.3674 29.5331C24.1623 29.3626 24.1854 29.3303 24.9112 28.7589C25.6024 28.2174 26.4803 27.5377 27.0033 27.1668C27.1738 27.04 27.2521 27.0608 27.6623 27.3142C27.9201 27.4873 28.1595 27.6865 28.3765 27.9087C28.5924 28.1191 28.8425 28.2913 29.1161 28.4179C29.365 28.5469 29.577 28.7151 29.577 28.8004C29.5736 28.8377 29.5846 28.8749 29.6077 28.9045C29.6308 28.934 29.6643 28.9536 29.7014 28.9593C29.8488 28.9593 30.1438 29.2243 30.1322 29.3533C30.1322 29.4271 27.2821 31.6021 27.077 31.6989C27.0534 31.7042 27.0289 31.7041 27.0053 31.6985C26.9817 31.6929 26.9598 31.682 26.9411 31.6666L26.9457 31.6666Z" fill="#A768CD"/>
<path d="M29.6599 29.4314C29.578 29.352 29.4761 29.2963 29.365 29.2701C29.3279 29.2644 29.2944 29.2448 29.2713 29.2153C29.2482 29.1858 29.2372 29.1485 29.2406 29.1112C29.2406 29.0282 29.047 28.8669 28.8212 28.7517C28.4499 28.5427 28.1029 28.2931 27.7867 28.0075C27.3765 27.6573 27.1277 27.4983 27.0033 27.5467C26.8789 27.5951 26.8443 27.5674 26.8996 27.4937C26.9549 27.42 26.9226 27.3647 26.8558 27.3647C26.789 27.3647 27.4111 26.8555 28.2383 26.2311C29.0654 25.6066 29.9433 24.9454 30.1806 24.7449C30.6414 24.3509 30.7613 24.3302 31.1806 24.5422C31.372 24.6286 31.57 24.6995 31.7728 24.7541C32.0354 24.8071 32.9893 25.6366 33.0907 25.89C33.1697 26.0292 33.2745 26.1519 33.3994 26.2518C33.5122 26.3454 33.6021 26.4637 33.6621 26.5974C33.6621 26.6827 30.3097 29.3139 29.9479 29.5144C29.8788 29.5582 29.7428 29.5144 29.6507 29.4314L29.6599 29.4314Z" fill="#9B64DE"/>
<path d="M31.9343 13.6858C31.561 13.506 24.9367 8.59142 20.6442 5.31269C18.8009 3.89107 18.1351 3.60306 17.0107 3.69983C16.0748 3.81465 15.1909 4.19345 14.4623 4.79197C11.5085 7.09606 9.03158 8.86791 8.80578 8.86791C8.48782 8.86791 8.15833 8.62367 8.15833 8.40709C8.15833 8.31262 8.02239 8.17668 7.85189 8.10986C7.61696 8.00144 7.40198 7.85422 7.21596 7.67439C6.81735 7.30343 6.2275 6.96473 5.97636 6.96473C5.86346 6.96473 5.13168 7.35877 5.13168 7.31729C5.13168 7.27582 6.62381 6.14678 7.66987 5.36108C8.71593 4.57539 9.80576 3.74822 10.1007 3.51781C10.3956 3.2874 10.8173 2.95561 11.0546 2.77358C11.2919 2.59156 11.8149 2.20217 12.2251 1.89342C13.7596 0.71603 15.0983 0.142312 16.5752 0.0155866C18.4357 -0.101923 20.2771 0.44789 21.7686 1.56624C22.4161 2.05471 29.0541 7.04307 32.5103 9.65361C34.4526 11.1167 34.584 11.2987 34.4757 12.2319C34.3835 13.0061 33.3236 13.8655 32.4642 13.8447C32.2795 13.8109 32.0998 13.7536 31.9297 13.6742L31.9343 13.6858Z" fill="#7E5EFC"/>
<path d="M5.55217 10.8838C5.55217 10.8308 5.46 10.7778 5.3471 10.7778C5.2342 10.7778 4.88628 10.5474 4.58675 10.2479C4.23422 9.91839 3.92778 9.71563 3.7688 9.71563C3.60981 9.71563 3.50613 9.67415 3.50613 9.60964C3.50613 9.54513 3.38171 9.50365 3.22273 9.50365C3.14514 9.5043 3.06852 9.48645 2.9992 9.45159C2.92988 9.41674 2.86987 9.36586 2.82412 9.3032C2.73426 9.12117 2.66701 9.13618 3.32598 8.64771C3.74763 8.33896 4.63514 7.66729 5.13052 7.29633C5.91621 6.68114 6.57518 6.37469 6.57518 6.63966C6.57518 6.69266 6.66504 6.75487 6.78946 6.79865C7.03034 6.91359 7.24941 7.06952 7.43691 7.25947C7.68232 7.46786 7.94432 7.65588 8.2203 7.82166C8.41385 7.91613 8.54979 8.05207 8.52905 8.12811C8.49449 8.28709 8.8355 8.54285 9.10738 8.55437C9.37926 8.56589 9.2035 8.64535 8.74269 9.02783C7.25655 10.2052 6.20883 10.9944 5.88165 10.9944C5.68811 10.9944 5.54064 10.9529 5.54064 10.8884L5.55217 10.8838Z" fill="#8E61ED"/>
<path d="M0.886687 13.4737C-0.157067 12.7825 -0.29531 11.6166 0.557205 10.7779C0.787614 10.5659 2.62101 9.16385 3.32606 8.64773C3.43896 8.574 3.10322 8.88164 3.18156 9.01067C3.21011 9.0697 3.26005 9.11565 3.32125 9.13919C3.38244 9.16272 3.4503 9.16208 3.51105 9.1374C3.64699 9.09592 3.74146 9.1374 3.79445 9.23186C3.82717 9.28682 3.87432 9.33176 3.93078 9.36182C3.98724 9.39188 4.05085 9.4059 4.11472 9.40237C4.26218 9.40237 4.59166 9.61434 4.92115 9.93231C5.25064 10.2503 5.5686 10.4646 5.6815 10.4646C5.7944 10.4646 5.88657 10.5175 5.88657 10.5705C5.88657 10.6235 6.02251 10.6765 6.18149 10.6765C6.34047 10.6765 7.53041 9.92515 7.50737 9.97814C7.45207 10.1164 2.97419 13.4138 2.5802 13.5958C2.30916 13.7134 2.01383 13.7641 1.71911 13.7436C1.42438 13.7232 1.13889 13.6322 0.886687 13.4783L0.886687 13.4737Z" fill="#9B64DE"/>
<circle cx="3.22563" cy="21.3111" r="0.855268" fill="#131314"/>
<circle cx="5.91887" cy="20.7561" r="0.855268" fill="#131314"/>
<circle cx="8.45744" cy="19.481" r="0.855268" fill="#131314"/>
<circle cx="10.7382" cy="16.6299" r="0.855268" fill="#131314"/>
<circle cx="17.3372" cy="18.9803" r="0.855268" fill="#131314"/>
<circle cx="24.3392" cy="16.8719" r="0.855268" fill="#131314"/>
<circle cx="26.386" cy="20.6451" r="0.855268" fill="#131314"/>
<circle cx="23.4775" cy="23.198" r="0.855268" fill="#131314"/>
<circle cx="29.6177" cy="22.4209" r="0.855268" fill="#131314"/>
<circle cx="15.2906" cy="15.8728" r="0.855268" fill="#131314"/>
<circle cx="15.7217" cy="21.8658" r="0.855268" fill="#131314"/>
<circle cx="13.3516" cy="24.0857" r="0.855268" fill="#131314"/>
<circle cx="18.5224" cy="20.9781" r="0.855268" fill="#131314"/>
<circle cx="21.0014" cy="23.2823" r="0.855268" fill="#131314"/>
<circle cx="20.5689" cy="13.2093" r="0.855268" fill="#131314"/>
<circle cx="8.71977" cy="22.5323" r="0.855268" fill="#131314"/>
<circle cx="12.6387" cy="18.7207" r="0.855268" fill="#131314"/>
<path d="M3.23108 21.2865L5.89191 20.7163L8.45772 19.481L10.7384 16.7251M10.7384 16.7251L8.74281 22.5219L13.3075 24.1656L10.7384 16.7251Z" stroke="#131314" stroke-width="0.5"/>
<path d="M10.7385 16.7251L15.6774 21.9458" stroke="#131314" stroke-width="0.5"/>
<path d="M13.3075 24.1653L15.6774 21.9456" stroke="#131314" stroke-width="0.5"/>
<path d="M8.67546 22.5006L5.89197 20.7163" stroke="#131314" stroke-width="0.5"/>
<path d="M15.6774 21.8262L20.6 13.1777M20.6 13.1777L18.5216 20.9335L20.9282 23.3885L23.3895 23.1653L20.6 13.1777ZM20.6 13.1777L24.2647 16.9161L26.3978 20.6545L29.789 22.44" stroke="#131314" stroke-width="0.5"/>
<path d="M12.639 18.7208L15.3004 15.8416L17.2932 19.0602" stroke="#131314" stroke-width="0.5"/>
<path d="M15.2465 15.8416L15.6773 21.8348" stroke="#131314" stroke-width="0.5"/>
<path d="M15.6774 21.9454L18.4781 20.9465" stroke="#131314" stroke-width="0.5"/>
<path d="M38.3628 24.9172H39.248V28.3932H38.3628V24.9172Z" fill="#131314"/>
<path d="M41.6039 25.8855C41.935 25.8855 42.1976 25.9848 42.3919 26.1834C42.5898 26.3821 42.6888 26.6568 42.6888 27.0077V28.3932H41.8414V27.0524C41.8414 26.8935 41.7982 26.7694 41.7119 26.68C41.6255 26.5906 41.5068 26.5459 41.3556 26.5459C41.1901 26.5459 41.057 26.5972 40.9562 26.6999C40.8555 26.8025 40.8051 26.9366 40.8051 27.1021V28.3932H39.9577V25.9401H40.6918L40.7457 26.2281C40.8501 26.1189 40.9742 26.0345 41.1182 25.9749C41.2657 25.9153 41.4276 25.8855 41.6039 25.8855Z" fill="#131314"/>
<path d="M44.9404 25.8855C45.2714 25.8855 45.5341 25.9848 45.7284 26.1834C45.9263 26.3821 46.0253 26.6568 46.0253 27.0077V28.3932H45.1779V27.0524C45.1779 26.8935 45.1347 26.7694 45.0483 26.68C44.962 26.5906 44.8432 26.5459 44.6921 26.5459C44.5266 26.5459 44.3935 26.5972 44.2927 26.6999C44.192 26.8025 44.1416 26.9366 44.1416 27.1021V28.3932H43.2942V25.9401H44.0282L44.0822 26.2281C44.1866 26.1189 44.3107 26.0345 44.4546 25.9749C44.6022 25.9153 44.7641 25.8855 44.9404 25.8855Z" fill="#131314"/>
<path d="M47.9422 28.4478C47.6472 28.4478 47.3881 28.3948 47.165 28.2889C46.9455 28.1797 46.7764 28.029 46.6576 27.837C46.5389 27.645 46.4795 27.4216 46.4795 27.1666C46.4795 26.9117 46.5389 26.6883 46.6576 26.4963C46.7764 26.3043 46.9455 26.1553 47.165 26.0494C47.3881 25.9401 47.6472 25.8855 47.9422 25.8855C48.2373 25.8855 48.4964 25.9401 48.7195 26.0494C48.9425 26.1553 49.1135 26.3043 49.2322 26.4963C49.3509 26.6883 49.4103 26.9117 49.4103 27.1666C49.4103 27.4216 49.3509 27.645 49.2322 27.837C49.1135 28.029 48.9425 28.1797 48.7195 28.2889C48.4964 28.3948 48.2373 28.4478 47.9422 28.4478ZM47.9422 27.7874C48.1293 27.7874 48.2805 27.7294 48.3956 27.6136C48.5108 27.4977 48.5683 27.3487 48.5683 27.1666C48.5683 26.9846 48.5108 26.8356 48.3956 26.7197C48.2805 26.6039 48.1293 26.5459 47.9422 26.5459C47.7587 26.5459 47.6094 26.6039 47.4942 26.7197C47.3791 26.8356 47.3215 26.9846 47.3215 27.1666C47.3215 27.3487 47.3791 27.4977 47.4942 27.6136C47.6094 27.7294 47.7587 27.7874 47.9422 27.7874Z" fill="#131314"/>
<path d="M51.7145 25.9401H52.6159L51.4878 28.3932H50.6243L49.4908 25.9401H50.4138L50.7322 26.68L51.0615 27.5689L51.3907 26.68L51.7145 25.9401Z" fill="#131314"/>
<path d="M55.6409 25.9401V28.3932H54.9068L54.8529 28.1002C54.6262 28.3286 54.3311 28.4428 53.9677 28.4428C53.7194 28.4428 53.4981 28.3899 53.3038 28.2839C53.1131 28.1747 52.9638 28.0241 52.8558 27.8321C52.7479 27.6367 52.6939 27.4149 52.6939 27.1666C52.6939 26.9184 52.7479 26.6982 52.8558 26.5062C52.9638 26.3109 53.1131 26.1603 53.3038 26.0543C53.4981 25.9451 53.7194 25.8905 53.9677 25.8905C54.1476 25.8905 54.3131 25.9203 54.4643 25.9798C54.6154 26.0361 54.7449 26.1189 54.8529 26.2281L54.9068 25.9401H55.6409ZM54.1674 27.7874C54.3545 27.7874 54.5074 27.7311 54.6262 27.6185C54.7449 27.5027 54.8043 27.352 54.8043 27.1666C54.8043 26.9813 54.7449 26.8323 54.6262 26.7197C54.5074 26.6039 54.3545 26.5459 54.1674 26.5459C53.9803 26.5459 53.8274 26.6039 53.7086 26.7197C53.5935 26.8356 53.5359 26.9846 53.5359 27.1666C53.5359 27.3487 53.5935 27.4977 53.7086 27.6136C53.8274 27.7294 53.9803 27.7874 54.1674 27.7874Z" fill="#131314"/>
<path d="M57.5987 28.4478C57.3001 28.4478 57.0392 28.3965 56.8161 28.2939C56.5966 28.1879 56.4257 28.039 56.3034 27.8469C56.1846 27.6549 56.1253 27.4298 56.1253 27.1716C56.1253 26.9167 56.1864 26.6932 56.3088 26.5012C56.4311 26.3059 56.602 26.1553 56.8215 26.0494C57.041 25.9401 57.2947 25.8855 57.5826 25.8855C57.7805 25.8855 57.9694 25.9186 58.1493 25.9848C58.3292 26.0477 58.4893 26.1421 58.6296 26.2679L58.1601 26.7396C58.0089 26.6105 57.8308 26.5459 57.6257 26.5459C57.4314 26.5459 57.2731 26.6039 57.1508 26.7197C57.0284 26.8323 56.9672 26.9813 56.9672 27.1666C56.9672 27.352 57.0266 27.5027 57.1454 27.6185C57.2677 27.7311 57.4278 27.7874 57.6257 27.7874C57.8452 27.7874 58.0323 27.7162 58.1871 27.5738L58.6674 28.0406C58.3688 28.3121 58.0125 28.4478 57.5987 28.4478Z" fill="#131314"/>
<path d="M59.4963 25.6968C59.3488 25.6968 59.2283 25.6571 59.1347 25.5776C59.0448 25.4982 58.9998 25.3972 58.9998 25.2747C58.9998 25.1489 59.0466 25.0463 59.1401 24.9668C59.2337 24.8874 59.3524 24.8477 59.4963 24.8477C59.6403 24.8477 59.759 24.8874 59.8526 24.9668C59.9461 25.0463 59.9929 25.1489 59.9929 25.2747C59.9929 25.3972 59.9461 25.4982 59.8526 25.5776C59.7626 25.6571 59.6439 25.6968 59.4963 25.6968ZM59.07 25.9401H59.9173V28.3932H59.07V25.9401Z" fill="#131314"/>
<path d="M61.8679 28.4478C61.5729 28.4478 61.3138 28.3948 61.0907 28.2889C60.8712 28.1797 60.7021 28.029 60.5833 27.837C60.4646 27.645 60.4052 27.4216 60.4052 27.1666C60.4052 26.9117 60.4646 26.6883 60.5833 26.4963C60.7021 26.3043 60.8712 26.1553 61.0907 26.0494C61.3138 25.9401 61.5729 25.8855 61.8679 25.8855C62.163 25.8855 62.422 25.9401 62.6451 26.0494C62.8682 26.1553 63.0391 26.3043 63.1579 26.4963C63.2766 26.6883 63.336 26.9117 63.336 27.1666C63.336 27.4216 63.2766 27.645 63.1579 27.837C63.0391 28.029 62.8682 28.1797 62.6451 28.2889C62.422 28.3948 62.163 28.4478 61.8679 28.4478ZM61.8679 27.7874C62.055 27.7874 62.2061 27.7294 62.3213 27.6136C62.4364 27.4977 62.494 27.3487 62.494 27.1666C62.494 26.9846 62.4364 26.8356 62.3213 26.7197C62.2061 26.6039 62.055 26.5459 61.8679 26.5459C61.6844 26.5459 61.5351 26.6039 61.4199 26.7197C61.3048 26.8356 61.2472 26.9846 61.2472 27.1666C61.2472 27.3487 61.3048 27.4977 61.4199 27.6136C61.5351 27.7294 61.6844 27.7874 61.8679 27.7874Z" fill="#131314"/>
<path d="M65.4705 25.8855C65.8015 25.8855 66.0642 25.9848 66.2585 26.1834C66.4564 26.3821 66.5554 26.6568 66.5554 27.0077V28.3932H65.708V27.0524C65.708 26.8935 65.6648 26.7694 65.5784 26.68C65.4921 26.5906 65.3733 26.5459 65.2222 26.5459C65.0567 26.5459 64.9236 26.5972 64.8228 26.6999C64.7221 26.8025 64.6717 26.9366 64.6717 27.1021V28.3932H63.8243V25.9401H64.5583L64.6123 26.2281C64.7167 26.1189 64.8408 26.0345 64.9847 25.9749C65.1323 25.9153 65.2942 25.8855 65.4705 25.8855Z" fill="#131314"/>
<path d="M70.1454 25.9401H71.063L69.4006 29.4558H68.4992L69.0174 28.3584L67.9811 25.9401H68.8932L69.2009 26.7148L69.4923 27.5142L69.8054 26.7148L70.1454 25.9401Z" fill="#131314"/>
<path d="M74.1621 24.9172C74.5507 24.9172 74.8907 24.9884 75.1822 25.1307C75.4772 25.2731 75.7039 25.4766 75.8622 25.7415C76.0242 26.003 76.1051 26.3076 76.1051 26.6552C76.1051 27.0028 76.0242 27.309 75.8622 27.5738C75.7039 27.8354 75.4772 28.0373 75.1822 28.1797C74.8907 28.322 74.5507 28.3932 74.1621 28.3932H72.613V24.9172H74.1621ZM74.1621 27.6831C74.4787 27.6831 74.7342 27.5904 74.9285 27.405C75.1228 27.2196 75.2199 26.9697 75.2199 26.6552C75.2199 26.4466 75.175 26.2662 75.085 26.1139C74.9986 25.9583 74.8745 25.8391 74.7126 25.7564C74.5543 25.6703 74.3708 25.6273 74.1621 25.6273H73.4982V27.6831H74.1621Z" fill="#131314"/>
<path d="M77.8697 25.8855C78.1611 25.8855 78.413 25.9368 78.6253 26.0394C78.8376 26.1387 78.9995 26.2811 79.1111 26.4665C79.2262 26.6486 79.2838 26.8621 79.2838 27.1071C79.2838 27.1865 79.2748 27.2842 79.2568 27.4H77.2976C77.3228 27.5258 77.3965 27.6285 77.5189 27.7079C77.6412 27.7841 77.7977 27.8221 77.9884 27.8221C78.1216 27.8221 78.2511 27.8039 78.377 27.7675C78.503 27.7311 78.6109 27.6798 78.7009 27.6136L79.1435 28.0505C78.9923 28.1797 78.8124 28.279 78.6037 28.3485C78.3986 28.418 78.1791 28.4528 77.9452 28.4528C77.6358 28.4528 77.3677 28.4015 77.141 28.2988C76.9143 28.1929 76.7398 28.0439 76.6175 27.8519C76.4951 27.6599 76.434 27.4331 76.434 27.1716C76.434 26.92 76.4934 26.6966 76.6121 26.5012C76.7344 26.3059 76.9035 26.1553 77.1194 26.0494C77.3353 25.9401 77.5854 25.8855 77.8697 25.8855ZM77.8967 26.5012C77.7276 26.5012 77.589 26.541 77.4811 26.6204C77.3767 26.6999 77.3174 26.8108 77.303 26.9531H78.4796C78.4688 26.8108 78.4112 26.6999 78.3069 26.6204C78.2061 26.541 78.0694 26.5012 77.8967 26.5012Z" fill="#131314"/>
<path d="M80.7892 28.4577C80.3178 28.4577 79.9076 28.3485 79.5586 28.13L79.8824 27.5937C80.012 27.6665 80.1613 27.7228 80.3304 27.7625C80.5031 27.8023 80.6741 27.8221 80.8432 27.8221C81.0771 27.8221 81.194 27.7642 81.194 27.6483C81.194 27.5887 81.1616 27.544 81.0969 27.5142C81.0321 27.4845 80.9241 27.4646 80.773 27.4547C80.4348 27.4381 80.1649 27.3603 79.9634 27.2213C79.7655 27.0822 79.6665 26.9002 79.6665 26.675C79.6665 26.4301 79.7745 26.2364 79.9904 26.0941C80.2063 25.9484 80.4977 25.8756 80.8648 25.8756C81.0735 25.8756 81.2714 25.8987 81.4585 25.9451C81.6492 25.9914 81.8129 26.056 81.9496 26.1387L81.6204 26.6601C81.4189 26.5542 81.1796 26.5012 80.9025 26.5012C80.6291 26.5012 80.4924 26.5608 80.4924 26.68C80.4924 26.7297 80.5193 26.7677 80.5733 26.7942C80.6309 26.8207 80.7262 26.8406 80.8594 26.8538C81.2408 26.8803 81.5304 26.9597 81.7283 27.0922C81.9299 27.2246 82.0306 27.41 82.0306 27.6483C82.0306 27.8999 81.9209 28.0985 81.7014 28.2442C81.4819 28.3866 81.1778 28.4577 80.7892 28.4577Z" fill="#131314"/>
<path d="M85.2422 25.9401V28.3932H84.5081L84.4542 28.1002C84.2275 28.3286 83.9324 28.4428 83.569 28.4428C83.3207 28.4428 83.0994 28.3899 82.9051 28.2839C82.7144 28.1747 82.5651 28.0241 82.4571 27.8321C82.3492 27.6367 82.2952 27.4149 82.2952 27.1666C82.2952 26.9184 82.3492 26.6982 82.4571 26.5062C82.5651 26.3109 82.7144 26.1603 82.9051 26.0543C83.0994 25.9451 83.3207 25.8905 83.569 25.8905C83.7489 25.8905 83.9144 25.9203 84.0655 25.9798C84.2167 26.0361 84.3462 26.1189 84.4542 26.2281L84.5081 25.9401H85.2422ZM83.7687 27.7874C83.9558 27.7874 84.1087 27.7311 84.2275 27.6185C84.3462 27.5027 84.4056 27.352 84.4056 27.1666C84.4056 26.9813 84.3462 26.8323 84.2275 26.7197C84.1087 26.6039 83.9558 26.5459 83.7687 26.5459C83.5816 26.5459 83.4287 26.6039 83.3099 26.7197C83.1948 26.8356 83.1372 26.9846 83.1372 27.1666C83.1372 27.3487 83.1948 27.4977 83.3099 27.6136C83.4287 27.7294 83.5816 27.7874 83.7687 27.7874Z" fill="#131314"/>
<path d="M87.3943 25.8855C87.5167 25.8855 87.639 25.907 87.7614 25.95C87.8837 25.9898 87.9899 26.0494 88.0798 26.1288L87.7236 26.6999C87.648 26.6568 87.5779 26.6254 87.5131 26.6055C87.4483 26.5857 87.3799 26.5757 87.308 26.5757C87.1281 26.5757 86.9859 26.6287 86.8816 26.7346C86.7772 26.8406 86.7251 26.9962 86.7251 27.2014V28.3932H85.8777V25.9401H86.6171L86.6819 26.248C86.8546 26.0063 87.0921 25.8855 87.3943 25.8855Z" fill="#131314"/>
<path d="M89.8822 25.8855C90.0045 25.8855 90.1269 25.907 90.2492 25.95C90.3716 25.9898 90.4777 26.0494 90.5677 26.1288L90.2114 26.6999C90.1359 26.6568 90.0657 26.6254 90.0009 26.6055C89.9362 26.5857 89.8678 26.5757 89.7958 26.5757C89.6159 26.5757 89.4738 26.6287 89.3694 26.7346C89.2651 26.8406 89.2129 26.9962 89.2129 27.2014V28.3932H88.3655V25.9401H89.105L89.1698 26.248C89.3425 26.0063 89.5799 25.8855 89.8822 25.8855Z" fill="#131314"/>
<path d="M92.0964 28.4478C91.8014 28.4478 91.5423 28.3948 91.3192 28.2889C91.0997 28.1797 90.9306 28.029 90.8119 27.837C90.6931 27.645 90.6337 27.4216 90.6337 27.1666C90.6337 26.9117 90.6931 26.6883 90.8119 26.4963C90.9306 26.3043 91.0997 26.1553 91.3192 26.0494C91.5423 25.9401 91.8014 25.8855 92.0964 25.8855C92.3915 25.8855 92.6506 25.9401 92.8737 26.0494C93.0968 26.1553 93.2677 26.3043 93.3864 26.4963C93.5052 26.6883 93.5645 26.9117 93.5645 27.1666C93.5645 27.4216 93.5052 27.645 93.3864 27.837C93.2677 28.029 93.0968 28.1797 92.8737 28.2889C92.6506 28.3948 92.3915 28.4478 92.0964 28.4478ZM92.0964 27.7874C92.2835 27.7874 92.4347 27.7294 92.5498 27.6136C92.665 27.4977 92.7225 27.3487 92.7225 27.1666C92.7225 26.9846 92.665 26.8356 92.5498 26.7197C92.4347 26.6039 92.2835 26.5459 92.0964 26.5459C91.9129 26.5459 91.7636 26.6039 91.6485 26.7197C91.5333 26.8356 91.4757 26.9846 91.4757 27.1666C91.4757 27.3487 91.5333 27.4977 91.6485 27.6136C91.7636 27.7294 91.9129 27.7874 92.0964 27.7874Z" fill="#131314"/>
<path d="M94.0528 24.9172H94.9002V28.3932H94.0528V24.9172Z" fill="#131314"/>
<path d="M95.5392 24.9172H96.3866V28.3932H95.5392V24.9172Z" fill="#131314"/>
<path d="M98.3372 28.4478C98.0421 28.4478 97.783 28.3948 97.5599 28.2889C97.3405 28.1797 97.1713 28.029 97.0526 27.837C96.9338 27.645 96.8745 27.4216 96.8745 27.1666C96.8745 26.9117 96.9338 26.6883 97.0526 26.4963C97.1713 26.3043 97.3405 26.1553 97.5599 26.0494C97.783 25.9401 98.0421 25.8855 98.3372 25.8855C98.6322 25.8855 98.8913 25.9401 99.1144 26.0494C99.3375 26.1553 99.5084 26.3043 99.6271 26.4963C99.7459 26.6883 99.8053 26.9117 99.8053 27.1666C99.8053 27.4216 99.7459 27.645 99.6271 27.837C99.5084 28.029 99.3375 28.1797 99.1144 28.2889C98.8913 28.3948 98.6322 28.4478 98.3372 28.4478ZM98.3372 27.7874C98.5243 27.7874 98.6754 27.7294 98.7906 27.6136C98.9057 27.4977 98.9633 27.3487 98.9633 27.1666C98.9633 26.9846 98.9057 26.8356 98.7906 26.7197C98.6754 26.6039 98.5243 26.5459 98.3372 26.5459C98.1537 26.5459 98.0043 26.6039 97.8892 26.7197C97.774 26.8356 97.7165 26.9846 97.7165 27.1666C97.7165 27.3487 97.774 27.4977 97.8892 27.6136C98.0043 27.7294 98.1537 27.7874 98.3372 27.7874Z" fill="#131314"/>
<path d="M41.8967 21.2909C41.1993 21.2909 40.5262 21.1855 39.8775 20.9746C39.2369 20.7638 38.6814 20.4678 38.2111 20.0867L39.245 18.6392C39.9991 19.2311 40.879 19.5271 41.8845 19.5271C42.3873 19.5271 42.7847 19.442 43.0766 19.2717C43.3766 19.1014 43.5266 18.8703 43.5266 18.5783C43.5266 18.3026 43.3888 18.0877 43.1131 17.9337C42.8374 17.7796 42.3995 17.6701 41.7994 17.6052C40.6398 17.4755 39.7883 17.2038 39.245 16.7903C38.7098 16.3767 38.4422 15.7847 38.4422 15.0143C38.4422 14.4954 38.5881 14.0372 38.8801 13.6398C39.172 13.2425 39.5815 12.9343 40.1086 12.7154C40.6357 12.4964 41.2439 12.387 41.9332 12.387C42.5252 12.387 43.1009 12.4721 43.6604 12.6424C44.2281 12.8127 44.7268 13.0519 45.1566 13.3601L44.22 14.7589C43.555 14.2967 42.8211 14.0656 42.0183 14.0656C41.5237 14.0656 41.1263 14.1467 40.8263 14.3088C40.5343 14.471 40.3884 14.69 40.3884 14.9657C40.3884 15.2333 40.5141 15.4401 40.7655 15.586C41.025 15.732 41.4547 15.8415 42.0548 15.9145C43.2063 16.0442 44.0659 16.3321 44.6336 16.7781C45.2012 17.216 45.485 17.8201 45.485 18.5905C45.485 19.1257 45.335 19.6001 45.035 20.0137C44.7349 20.4191 44.3132 20.7354 43.7699 20.9625C43.2266 21.1814 42.6022 21.2909 41.8967 21.2909Z" fill="#131314"/>
<path d="M52.8585 15.0873V21.0963H51.2042L51.0826 20.3786C50.5717 20.9381 49.9067 21.2179 49.0877 21.2179C48.5282 21.2179 48.0294 21.0881 47.5915 20.8286C47.1618 20.561 46.8252 20.1921 46.5819 19.7217C46.3387 19.2433 46.217 18.7 46.217 18.0918C46.217 17.4836 46.3387 16.9443 46.5819 16.474C46.8252 15.9956 47.1618 15.6266 47.5915 15.3671C48.0294 15.0995 48.5282 14.9657 49.0877 14.9657C49.4932 14.9657 49.8662 15.0387 50.2068 15.1846C50.5473 15.3225 50.8393 15.5252 51.0826 15.7928L51.2042 15.0873H52.8585ZM49.5378 19.6123C49.9594 19.6123 50.3041 19.4744 50.5717 19.1987C50.8393 18.9149 50.9731 18.5459 50.9731 18.0918C50.9731 17.6377 50.8393 17.2728 50.5717 16.997C50.3041 16.7132 49.9594 16.5713 49.5378 16.5713C49.1161 16.5713 48.7714 16.7132 48.5038 16.997C48.2443 17.2809 48.1146 17.6458 48.1146 18.0918C48.1146 18.5378 48.2443 18.9027 48.5038 19.1865C48.7714 19.4704 49.1161 19.6123 49.5378 19.6123Z" fill="#131314"/>
<path d="M54.2907 12.5816H56.2004V21.0963H54.2907V12.5816Z" fill="#131314"/>
<path d="M61.9465 20.8651C61.4761 21.1003 60.945 21.2179 60.353 21.2179C59.6962 21.2179 59.1772 21.0354 58.796 20.6705C58.4149 20.2975 58.2243 19.7015 58.2243 18.8824V16.6078H57.2026V15.0873H58.2243V13.5912L60.1219 13.3844V15.0873H61.618V16.6078H60.1219V18.8824C60.1219 19.1257 60.1827 19.3082 60.3043 19.4298C60.426 19.5433 60.5922 19.6001 60.8031 19.6001C61.0382 19.6001 61.2693 19.5433 61.4964 19.4298L61.9465 20.8651Z" fill="#131314"/>
<path d="M69.0611 15.0873V21.0963H67.4068L67.2851 20.3786C66.7743 20.9381 66.1093 21.2179 65.2903 21.2179C64.7307 21.2179 64.232 21.0881 63.7941 20.8286C63.3643 20.561 63.0278 20.1921 62.7845 19.7217C62.5412 19.2433 62.4196 18.7 62.4196 18.0918C62.4196 17.4836 62.5412 16.9443 62.7845 16.474C63.0278 15.9956 63.3643 15.6266 63.7941 15.3671C64.232 15.0995 64.7307 14.9657 65.2903 14.9657C65.6957 14.9657 66.0688 15.0387 66.4093 15.1846C66.7499 15.3225 67.0419 15.5252 67.2851 15.7928L67.4068 15.0873H69.0611ZM65.7403 19.6123C66.162 19.6123 66.5066 19.4744 66.7743 19.1987C67.0419 18.9149 67.1757 18.5459 67.1757 18.0918C67.1757 17.6377 67.0419 17.2728 66.7743 16.997C66.5066 16.7132 66.162 16.5713 65.7403 16.5713C65.3187 16.5713 64.974 16.7132 64.7064 16.997C64.4469 17.2809 64.3172 17.6458 64.3172 18.0918C64.3172 18.5378 64.4469 18.9027 64.7064 19.1865C64.974 19.4704 65.3187 19.6123 65.7403 19.6123Z" fill="#131314"/>
<path d="M74.7161 21.2909C73.7997 21.2909 72.9929 21.1044 72.2955 20.7313C71.6062 20.3583 71.071 19.8353 70.6899 19.1622C70.3168 18.4891 70.1303 17.7147 70.1303 16.8389C70.1303 15.9631 70.3209 15.1887 70.702 14.5156C71.0913 13.8345 71.6305 13.3114 72.3198 12.9465C73.0091 12.5735 73.7957 12.387 74.6796 12.387C75.9365 12.387 77.015 12.8289 77.9152 13.7128L76.6866 14.9414C76.1433 14.4224 75.4905 14.1629 74.7282 14.1629C74.2174 14.1629 73.7633 14.2764 73.3659 14.5035C72.9767 14.7224 72.6726 15.0346 72.4536 15.4401C72.2428 15.8455 72.1374 16.3118 72.1374 16.8389C72.1374 17.366 72.2428 17.8323 72.4536 18.2378C72.6726 18.6432 72.9767 18.9595 73.3659 19.1865C73.7633 19.4055 74.2174 19.515 74.7282 19.515C75.1337 19.515 75.5229 19.442 75.896 19.296C76.269 19.15 76.5934 18.9392 76.8691 18.6635L78.0368 19.965C77.1205 20.8489 76.0136 21.2909 74.7161 21.2909Z" fill="#131314"/>
<path d="M81.7642 21.2301C81.0992 21.2301 80.5153 21.1003 80.0126 20.8408C79.5179 20.5732 79.1368 20.2042 78.8692 19.7339C78.6016 19.2636 78.4678 18.7162 78.4678 18.0918C78.4678 17.4674 78.6016 16.92 78.8692 16.4497C79.1368 15.9793 79.5179 15.6144 80.0126 15.3549C80.5153 15.0873 81.0992 14.9535 81.7642 14.9535C82.4291 14.9535 83.013 15.0873 83.5157 15.3549C84.0185 15.6144 84.4037 15.9793 84.6713 16.4497C84.9389 16.92 85.0727 17.4674 85.0727 18.0918C85.0727 18.7162 84.9389 19.2636 84.6713 19.7339C84.4037 20.2042 84.0185 20.5732 83.5157 20.8408C83.013 21.1003 82.4291 21.2301 81.7642 21.2301ZM81.7642 19.6123C82.1858 19.6123 82.5264 19.4704 82.7859 19.1865C83.0454 18.9027 83.1752 18.5378 83.1752 18.0918C83.1752 17.6458 83.0454 17.2809 82.7859 16.997C82.5264 16.7132 82.1858 16.5713 81.7642 16.5713C81.3506 16.5713 81.0141 16.7132 80.7546 16.997C80.4951 17.2809 80.3653 17.6458 80.3653 18.0918C80.3653 18.5378 80.4951 18.9027 80.7546 19.1865C81.0141 19.4704 81.3506 19.6123 81.7642 19.6123Z" fill="#131314"/>
<path d="M92.474 12.5816V21.0963H90.8197L90.6981 20.3786C90.1872 20.9381 89.5223 21.2179 88.7032 21.2179C88.1437 21.2179 87.645 21.0881 87.2071 20.8286C86.7773 20.561 86.4408 20.1921 86.1975 19.7217C85.9542 19.2433 85.8326 18.7 85.8326 18.0918C85.8326 17.4836 85.9542 16.9443 86.1975 16.474C86.4408 15.9956 86.7773 15.6266 87.2071 15.3671C87.645 15.0995 88.1437 14.9657 88.7032 14.9657C89.4412 14.9657 90.0615 15.1968 90.5643 15.659V12.5816H92.474ZM89.1533 19.6123C89.575 19.6123 89.9196 19.4744 90.1872 19.1987C90.4548 18.9149 90.5886 18.5459 90.5886 18.0918C90.5886 17.6377 90.4548 17.2728 90.1872 16.997C89.9196 16.7132 89.575 16.5713 89.1533 16.5713C88.7316 16.5713 88.387 16.7132 88.1194 16.997C87.8599 17.2809 87.7301 17.6458 87.7301 18.0918C87.7301 18.5378 87.8599 18.9027 88.1194 19.1865C88.387 19.4704 88.7316 19.6123 89.1533 19.6123Z" fill="#131314"/>
<path d="M96.8131 14.9535C97.4699 14.9535 98.0376 15.0792 98.516 15.3306C98.9944 15.5739 99.3594 15.9226 99.6107 16.3767C99.8702 16.8227 100 17.3457 100 17.9458C100 18.1404 99.9797 18.3797 99.9392 18.6635H95.5237C95.5805 18.9716 95.7467 19.223 96.0224 19.4176C96.2981 19.6042 96.6509 19.6974 97.0807 19.6974C97.3807 19.6974 97.6726 19.6528 97.9565 19.5636C98.2403 19.4744 98.4836 19.3487 98.6863 19.1865L99.6837 20.2569C99.3431 20.5732 98.9377 20.8165 98.4674 20.9868C98.0051 21.1571 97.5105 21.2422 96.9834 21.2422C96.286 21.2422 95.6818 21.1165 95.171 20.8651C94.6601 20.6056 94.2668 20.2407 93.9911 19.7704C93.7154 19.3001 93.5775 18.7446 93.5775 18.104C93.5775 17.4877 93.7113 16.9403 93.9789 16.4618C94.2546 15.9834 94.6357 15.6144 95.1223 15.3549C95.6089 15.0873 96.1724 14.9535 96.8131 14.9535ZM96.8739 16.4618C96.4928 16.4618 96.1806 16.5592 95.9373 16.7538C95.7021 16.9484 95.5683 17.2201 95.5359 17.5687H98.1876C98.1633 17.2201 98.0335 16.9484 97.7983 16.7538C97.5713 16.5592 97.2631 16.4618 96.8739 16.4618Z" fill="#131314"/>
</svg>
