<svg width="29" height="31" viewBox="0 0 29 31" fill="none" xmlns="http://www.w3.org/2000/svg">
<path d="M2.67969 17.6541L4.88646 17.1813L7.01442 16.1567L8.90594 13.8711M8.90594 13.8711L7.25086 18.6787L11.0366 20.0419L8.90594 13.8711Z" stroke="#131314" stroke-width="0.5"/>
<path d="M8.90588 13.8711L13.002 18.2009" stroke="#131314" stroke-width="0.5"/>
<path d="M11.0366 20.0417L13.0021 18.2008" stroke="#131314" stroke-width="0.5"/>
<path d="M7.19485 18.6611L4.88635 17.1813" stroke="#131314" stroke-width="0.5"/>
<path d="M13.0021 18.1017L17.0847 10.9291M17.0847 10.9291L15.3609 17.3613L17.3569 19.3974L19.3982 19.2123L17.0847 10.9291ZM17.0847 10.9291L20.124 14.0295L21.8931 17.1299L24.7056 18.6107" stroke="#131314" stroke-width="0.5"/>
<path d="M10.4822 15.5262L12.6894 13.1383L14.3421 15.8077" stroke="#131314" stroke-width="0.5"/>
<path d="M12.6448 13.1383L13.0021 18.1089" stroke="#131314" stroke-width="0.5"/>
<path d="M13.0021 18.2007L15.3249 17.3723" stroke="#131314" stroke-width="0.5"/>
<circle cx="2.71594" cy="17.7151" r="0.75" fill="#141413"/>
<circle cx="4.94958" cy="17.2548" r="0.75" fill="#141413"/>
<circle cx="7.05505" cy="16.1974" r="0.75" fill="#141413"/>
<circle cx="8.94653" cy="13.833" r="0.75" fill="#141413"/>
<circle cx="14.4194" cy="15.7822" r="0.75" fill="#141413"/>
<circle cx="20.2266" cy="14.0333" r="0.75" fill="#141413"/>
<circle cx="21.9241" cy="17.163" r="0.75" fill="#141413"/>
<circle cx="19.5118" cy="19.28" r="0.75" fill="#141413"/>
<circle cx="24.6042" cy="18.6356" r="0.75" fill="#141413"/>
<circle cx="12.722" cy="13.205" r="0.75" fill="#141413"/>
<circle cx="13.0795" cy="18.1754" r="0.75" fill="#141413"/>
<circle cx="11.114" cy="20.0164" r="0.75" fill="#141413"/>
<circle cx="15.4023" cy="17.439" r="0.75" fill="#141413"/>
<circle cx="17.4584" cy="19.3499" r="0.75" fill="#141413"/>
<circle cx="17.0997" cy="10.9957" r="0.75" fill="#141413"/>
<circle cx="7.27234" cy="18.7277" r="0.75" fill="#141413"/>
<circle cx="10.5228" cy="15.5669" r="0.75" fill="#141413"/>
<path d="M9.16584 28.5195C8.94035 28.3284 8.61932 28.0876 8.4588 27.973C8.29828 27.8583 7.17849 27.0042 5.97462 26.0812L2.95921 23.7881C0.641283 22.0377 0.35847 21.8084 0.197953 21.495C-0.226268 20.6752 0.245725 19.7962 1.3101 19.4255C1.71521 19.2841 2.09166 19.3816 2.60187 19.7599C2.84647 19.9357 3.4121 20.358 3.87262 20.6924C4.33315 21.0268 5.0593 21.5906 5.50263 21.925C5.94596 22.2594 6.50203 22.6893 6.72752 22.8575C8.1779 23.941 8.23522 24.004 8.23522 24.3633C8.23522 24.6461 8.19701 24.7244 8.02885 24.7856C7.82056 24.8563 7.82056 24.8563 8.02885 24.9538C8.16044 25.0447 8.25423 25.1806 8.29255 25.3359C8.36708 25.6436 8.90404 26.6124 9.29004 27.1303C9.49833 27.4131 9.57286 27.6233 9.62063 28.1698C9.66084 28.3937 9.66728 28.6224 9.63974 28.8482C9.47485 28.7524 9.31994 28.6404 9.1773 28.5138L9.16584 28.5195Z" fill="#D3778B"/>
<path d="M13.6511 30.8165C12.5294 30.719 10.758 29.861 9.68405 28.9056C9.55435 28.7687 9.40173 28.6555 9.23307 28.5712C9.21396 28.5884 9.14708 28.5444 9.08211 28.4642C8.92159 28.2731 9.03434 28.1928 9.24263 28.3419C9.39168 28.4565 9.40123 28.447 9.28849 28.3247C9.21588 28.2027 9.18315 28.061 9.19485 27.9196C9.18497 27.7117 9.10556 27.5132 8.96937 27.3558C8.58072 26.8286 8.25973 26.2546 8.01391 25.6475C7.95966 25.4764 7.85834 25.3241 7.72154 25.208C7.42918 24.9787 7.31643 24.4857 7.53045 24.4073C7.57065 24.3887 7.61606 24.3846 7.65894 24.3957C7.70181 24.4069 7.73948 24.4326 7.76549 24.4685C7.83238 24.5659 7.86104 24.5564 7.91646 24.4341C7.93527 24.3904 7.94094 24.3422 7.9328 24.2954C7.92465 24.2485 7.90304 24.2051 7.87059 24.1704C7.79416 24.0997 7.76549 24.0997 7.76549 24.1704C7.76602 24.1841 7.76372 24.1979 7.75875 24.2107C7.75377 24.2236 7.74622 24.2353 7.73656 24.2452C7.7269 24.255 7.71533 24.2628 7.70256 24.268C7.68979 24.2732 7.67609 24.2757 7.66231 24.2755C7.61645 24.2755 7.59734 24.2315 7.626 24.1876C7.64129 24.1527 7.64582 24.1141 7.63901 24.0766C7.6322 24.0392 7.61436 24.0046 7.58778 23.9774C7.51135 23.8894 7.51134 23.8359 7.61644 23.7576C7.72154 23.6793 7.91646 23.7748 8.63305 24.3194C9.1146 24.6901 10.2153 25.5271 11.0733 26.1768C12.5332 27.2775 12.8542 27.5947 12.8542 27.9463C12.8542 28.1049 13.2785 28.8272 13.4848 29.0202C13.6304 29.1861 13.7543 29.3697 13.8536 29.5668C13.9224 29.7345 14.0322 29.8823 14.1728 29.9967C14.2301 29.9967 14.2683 30.1993 14.2683 30.4381C14.2683 30.7362 14.2301 30.8681 14.1537 30.8604C14.0772 30.8528 13.8632 30.8337 13.6549 30.8165L13.6511 30.8165Z" fill="#CA7497"/>
<path d="M13.9815 30.763C13.98 30.7261 13.9686 30.6902 13.9484 30.6593C13.9282 30.6283 13.9 30.6034 13.8668 30.5872C13.7732 30.5528 13.7732 30.5337 13.8668 30.5337C14.0006 30.5337 14.0273 30.2623 13.8859 30.2623C13.7455 30.147 13.6358 29.9986 13.5668 29.8305C13.4665 29.634 13.3426 29.4505 13.198 29.2839C12.9725 29.0642 12.5674 28.361 12.5674 28.1756C12.5301 27.9918 12.4495 27.8195 12.3324 27.6731C12.2101 27.4973 12.1241 27.3578 12.1623 27.3578C12.2005 27.3578 12.1623 27.2947 12.0973 27.2259C11.8699 26.9698 12.0973 26.987 12.5483 27.2507C13.2267 27.6654 14.1229 27.8584 14.7535 27.7361C14.941 27.6901 15.1337 27.6689 15.3267 27.6731C15.4566 27.8613 15.5728 28.0587 15.6745 28.2635C15.8379 28.5853 16.0656 28.8701 16.3433 29.1005C16.5549 29.2372 16.7092 29.4465 16.7771 29.6891C16.8058 29.8572 16.8708 29.9967 16.9185 29.9967C17.0886 29.9967 16.995 30.2356 16.7962 30.3311C16.1414 30.616 15.4442 30.7909 14.7325 30.849C14.0923 30.9006 13.9891 30.8929 13.9891 30.7687L13.9815 30.763Z" fill="#C270A5"/>
<path d="M16.6435 30.2759C16.555 30.1769 16.4961 30.0551 16.4735 29.9242C16.4001 29.6911 16.2508 29.4893 16.0492 29.351C15.7495 29.0994 15.506 28.7875 15.3346 28.4356C15.1435 28.0745 14.939 27.784 14.8817 27.784C14.8244 27.784 15.0135 27.6866 15.2964 27.5815C15.9162 27.3227 16.4955 26.9758 17.0162 26.5515C17.3085 26.3145 17.3276 26.3145 17.6487 26.4368C17.9379 26.5909 18.1938 26.8007 18.4016 27.0541C18.6366 27.3178 18.8736 27.591 18.9385 27.6426C19.2309 27.8891 19.3437 27.9598 19.4851 27.9598C19.5787 27.9598 19.6265 28.0477 19.6265 28.2159C19.6265 28.4261 19.4851 28.5675 18.7131 29.1389C17.7041 29.8707 16.8021 30.3638 16.6397 30.2663L16.6435 30.2759Z" fill="#B86DB3"/>
<path d="M19.1909 28.5368C19.1777 28.4969 19.178 28.4537 19.1918 28.4139C19.2057 28.3742 19.2322 28.3401 19.2674 28.317C19.3705 28.254 19.361 28.2368 19.2291 28.2368C19.1207 28.2305 19.0161 28.1941 18.9272 28.1317C18.8527 28.0705 18.7361 27.9731 18.6731 27.9196C18.61 27.8661 18.3635 27.6004 18.1265 27.331C17.9294 27.0801 17.6821 26.8732 17.4004 26.7233C17.2852 26.6981 17.1786 26.6435 17.0908 26.5647C17.0908 26.5036 17.7214 25.9915 18.0883 25.7736C18.2106 25.7029 18.7208 25.3246 19.2349 24.9462C19.7489 24.5678 20.2056 24.2143 20.261 24.1704C20.3041 24.1492 20.3533 24.1437 20.4001 24.1548C20.4468 24.166 20.4882 24.1931 20.5171 24.2315C20.585 24.2974 20.6696 24.3436 20.7617 24.3653C20.8171 24.3653 20.8649 24.3997 20.8649 24.4436C20.9197 24.5531 20.9942 24.6516 21.0846 24.7341C21.2393 24.9056 21.3811 25.0882 21.5088 25.2806C21.6311 25.4564 21.7821 25.5959 21.8585 25.5959C21.8934 25.5964 21.9266 25.6104 21.9512 25.6351C21.9759 25.6597 21.9899 25.6929 21.9904 25.7278C21.9904 25.7985 22.1222 25.8787 22.3191 25.9188C22.5159 25.959 22.6497 26.0163 22.6497 26.0775C22.6497 26.1386 22.2809 26.4596 21.8299 26.7902C21.3789 27.1208 20.6337 27.6979 20.1903 28.0495C19.747 28.4011 19.3419 28.6839 19.3132 28.6839C19.2846 28.6839 19.2291 28.6209 19.1909 28.5425L19.1909 28.5368Z" fill="#AF6AC1"/>
<path d="M27.4341 22.0588C27.3307 21.9586 27.2367 21.8492 27.1532 21.732C27.0672 21.5218 26.3506 20.8874 26.0965 20.7995C25.9379 20.7383 25.6646 20.6409 25.5041 20.5874C25.3884 20.5578 25.2816 20.5007 25.1926 20.4211C25.1926 20.3065 26.4366 19.5058 26.7003 19.4351C27.3214 19.2688 28.1794 19.672 28.5004 20.2797C28.8482 20.9581 28.6322 21.6613 27.9271 22.1371C27.6825 22.3129 27.6825 22.3129 27.4265 22.0588L27.4341 22.0588Z" fill="#8E61ED"/>
<path d="M22.3474 26.2627C22.2389 26.212 22.1189 26.1909 21.9996 26.2016C21.7818 26.192 21.7073 26.1481 21.7073 26.0239C21.7091 26.0049 21.7071 25.9857 21.7015 25.9675C21.6958 25.9493 21.6866 25.9324 21.6743 25.9178C21.662 25.9032 21.6469 25.8912 21.63 25.8825C21.613 25.8738 21.5944 25.8686 21.5754 25.8672C21.499 25.8672 21.348 25.7258 21.2257 25.55C21.0976 25.3579 20.9558 25.1752 20.8015 25.0035C20.7082 24.9222 20.6317 24.8235 20.576 24.713C20.5753 24.7016 20.5723 24.6905 20.5671 24.6803C20.562 24.6701 20.5548 24.661 20.546 24.6537C20.5373 24.6464 20.5271 24.6409 20.5162 24.6376C20.5052 24.6343 20.4937 24.6333 20.4824 24.6347C20.3819 24.6086 20.2885 24.5602 20.2091 24.4932C20.039 24.3518 20.0582 24.3251 20.6601 23.8512C21.2334 23.4021 21.9614 22.8384 22.3952 22.5307C22.5366 22.4256 22.6016 22.4428 22.9417 22.653C23.1556 22.7966 23.3541 22.9618 23.5341 23.1461C23.7132 23.3206 23.9206 23.4634 24.1475 23.5684C24.3539 23.6754 24.5297 23.8149 24.5297 23.8856C24.5269 23.9166 24.536 23.9474 24.5552 23.9719C24.5743 23.9964 24.6021 24.0127 24.6329 24.0174C24.7552 24.0174 24.9998 24.2372 24.9902 24.3442C24.9902 24.4053 22.6264 26.2092 22.4563 26.2895C22.4368 26.2939 22.4164 26.2938 22.3969 26.2892C22.3773 26.2845 22.3591 26.2755 22.3436 26.2627L22.3474 26.2627Z" fill="#A768CD"/>
<path d="M24.5986 24.4092C24.5307 24.3434 24.4461 24.2971 24.354 24.2755C24.3233 24.2707 24.2955 24.2545 24.2763 24.23C24.2571 24.2055 24.248 24.1746 24.2508 24.1436C24.2508 24.0748 24.0903 23.9411 23.903 23.8455C23.5951 23.6721 23.3073 23.4651 23.045 23.2283C22.7049 22.9378 22.4985 22.806 22.3953 22.8461C22.2921 22.8862 22.2635 22.8633 22.3093 22.8022C22.3552 22.741 22.3284 22.6952 22.273 22.6952C22.2176 22.6952 22.7336 22.2728 23.4196 21.755C24.1056 21.2371 24.8336 20.6887 25.0305 20.5225C25.4126 20.1957 25.512 20.1785 25.8598 20.3543C26.0185 20.426 26.1828 20.4848 26.3509 20.5301C26.5687 20.574 27.3599 21.262 27.4439 21.4722C27.5094 21.5876 27.5964 21.6894 27.7 21.7722C27.7935 21.8499 27.868 21.9479 27.9178 22.0588C27.9178 22.1295 25.1375 24.3118 24.8375 24.478C24.7801 24.5143 24.6674 24.478 24.591 24.4092L24.5986 24.4092Z" fill="#9B64DE"/>
<path d="M26.4848 11.3503C26.1752 11.2013 20.6814 7.12532 17.1213 4.4061C15.5926 3.22707 15.0404 2.98821 14.1078 3.06847C13.3317 3.16369 12.5986 3.47785 11.9944 3.97424C9.5446 5.88514 7.49037 7.35463 7.3031 7.35463C7.0394 7.35463 6.76614 7.15207 6.76614 6.97245C6.76614 6.8941 6.65339 6.78136 6.51199 6.72594C6.31715 6.63602 6.13885 6.51392 5.98458 6.36478C5.65399 6.05712 5.1648 5.77622 4.95651 5.77622C4.86287 5.77622 4.78644 5.73991 4.78644 5.70552C4.78644 5.67112 5.49347 5.09785 6.36103 4.44623C7.22858 3.79461 8.13244 3.10859 8.37703 2.9175C8.62163 2.72641 8.97132 2.45124 9.16815 2.30028C9.36497 2.14932 9.79875 1.82638 10.1389 1.57031C11.4116 0.593842 12.5218 0.118027 13.7467 0.0129268C15.2897 -0.0845303 16.8169 0.371459 18.0539 1.29897C18.5908 1.70408 24.0961 5.84119 26.9625 8.00625C28.5734 9.21967 28.6823 9.37064 28.5925 10.1446C28.5161 10.7866 27.6371 11.4994 26.9243 11.4822C26.7711 11.4541 26.6221 11.4066 26.481 11.3408L26.4848 11.3503Z" fill="#7E5EFC"/>
<path d="M4.60471 9.02652C4.60471 8.98257 4.52827 8.93862 4.43464 8.93862C4.341 8.93862 4.05246 8.74753 3.80404 8.49911C3.51167 8.22585 3.25752 8.05769 3.12567 8.05769C2.99381 8.05769 2.90782 8.0233 2.90782 7.96979C2.90782 7.91629 2.80463 7.88189 2.67278 7.88189C2.60844 7.88242 2.54489 7.86763 2.4874 7.83871C2.42991 7.8098 2.38013 7.76761 2.3422 7.71564C2.26767 7.56468 2.3422 7.48633 2.88871 7.08122C3.23841 6.82516 3.84417 6.3589 4.25501 6.05124C4.90663 5.54103 5.45315 5.28688 5.45315 5.50663C5.45315 5.55058 5.52768 5.60218 5.63086 5.63848C5.83064 5.73382 6.01233 5.86313 6.16783 6.02066C6.37136 6.1935 6.58865 6.34943 6.81754 6.48693C6.97805 6.56527 7.0908 6.67802 7.0736 6.74108C7.04494 6.87293 7.32775 7.08504 7.55324 7.0946C7.77872 7.10415 7.74433 7.17294 7.36214 7.49015C6.12961 8.46663 5.14931 9.11824 4.87797 9.11824C4.71745 9.11824 4.59515 9.08385 4.59515 9.03034L4.60471 9.02652Z" fill="#8E61ED"/>
<path d="M0.735332 11.1744C-0.130309 10.6011 -0.244961 9.63419 0.462074 8.93862C0.653164 8.76282 1.82837 7.83794 2.41311 7.4099C2.50674 7.34875 2.57363 7.36595 2.6386 7.47296C2.66227 7.52191 2.70369 7.56002 2.75444 7.57954C2.8052 7.59906 2.86148 7.59853 2.91185 7.57806C3.0246 7.54366 3.10294 7.57806 3.1469 7.6564C3.17404 7.70198 3.21314 7.73926 3.25996 7.76418C3.30679 7.78911 3.35955 7.80074 3.41251 7.79781C3.53481 7.79781 3.80807 7.97361 4.08133 8.23732C4.35459 8.50102 4.61829 8.67874 4.71193 8.67874C4.80556 8.67874 4.882 8.72269 4.882 8.76664C4.882 8.81059 4.99474 8.85454 5.12659 8.85454C5.25845 8.85454 5.35208 8.88894 5.33297 8.93289C5.28711 9.04754 2.46661 11.1247 2.13985 11.2757C1.91506 11.3732 1.67013 11.4152 1.4257 11.3982C1.18127 11.3813 0.944497 11.3058 0.735332 11.1782L0.735332 11.1744Z" fill="#9B64DE"/>
</svg>
