<svg width="528" height="196" viewBox="0 0 528 196" fill="none" xmlns="http://www.w3.org/2000/svg">
<path d="M58.5 181.137C57.0695 179.925 54.6816 178.191 53.6633 177.464C52.645 176.737 45.5409 171.318 37.9034 165.462L18.7733 150.915C4.0681 139.81 2.2739 138.355 1.25557 136.367C-1.43574 131.166 1.55864 125.59 8.31115 123.238C10.8812 122.341 13.2695 122.959 16.5063 125.359C18.058 126.475 21.6464 129.154 24.5681 131.275C27.4897 133.397 32.0965 136.973 34.909 139.095C37.7215 141.216 41.2493 143.944 42.6799 145.011C51.8812 151.884 52.2449 152.285 52.2449 154.564C52.2449 156.358 52.0024 156.855 50.9356 157.243C49.6142 157.691 49.6142 157.691 50.9356 158.31C51.7705 158.887 52.3655 159.749 52.6086 160.734C53.0814 162.686 56.4879 168.832 58.9368 172.118C60.2582 173.912 60.731 175.246 61.0341 178.713C61.2892 180.133 61.33 181.584 61.1553 183.016C60.1092 182.409 59.1265 181.698 58.2215 180.895L58.5 181.137Z" fill="#D3778B"/>
<path d="M86.6037 195.503C79.4875 194.885 65.8131 187.562 59 181.5C58.1772 180.632 59.57 181.535 58.5 181C58.3788 181.109 58.4122 181.009 58 180.5C56.9817 179.288 57.3145 178.858 58.6359 179.804C59.5815 180.531 59.6421 180.471 58.9269 179.695C58.4663 178.921 58.2586 178.022 58.3328 177.125C58.2701 175.806 57.7664 174.546 56.9023 173.548C54.4367 170.203 52.4003 166.562 50.8408 162.71C50.4967 161.625 49.8539 160.659 48.986 159.922C47.1312 158.467 46.4159 155.34 47.7737 154.843C48.0287 154.724 48.3168 154.698 48.5888 154.769C48.8608 154.84 49.0998 155.003 49.2648 155.23C49.6891 155.849 49.871 155.788 50.2226 155.012C50.3419 154.735 50.3779 154.43 50.3262 154.132C50.2745 153.835 50.1374 153.56 49.9316 153.339C49.4467 152.891 49.2648 152.891 49.2648 153.339C49.2681 153.427 49.2536 153.514 49.222 153.595C49.1905 153.677 49.1425 153.751 49.0812 153.814C49.02 153.876 48.9466 153.925 48.8656 153.959C48.7846 153.992 48.6977 154.008 48.6102 154.006C48.3192 154.006 48.198 153.727 48.3799 153.448C48.4769 153.227 48.5056 152.982 48.4624 152.745C48.4192 152.507 48.306 152.288 48.1374 152.115C47.6525 151.557 47.6525 151.218 48.3192 150.721C48.986 150.224 50.2226 150.83 54.7687 154.285C57.8237 156.637 64.8065 161.947 70.2497 166.068C79.5117 173.051 81.5484 175.064 81.5484 177.294C81.5484 178.301 84.2397 182.883 85.549 184.107C86.4724 185.16 87.2586 186.325 87.8887 187.575C88.3252 188.639 89.0212 189.576 89.9133 190.302C90.2769 190.302 90.5194 191.587 90.5194 193.103C90.5194 194.994 90.2769 195.83 89.792 195.782C89.3071 195.733 87.9493 195.612 86.6279 195.503L86.6037 195.503Z" fill="#CA7497"/>
<path d="M88.7002 195.164C88.6911 194.929 88.6186 194.702 88.4905 194.505C88.3624 194.309 88.1835 194.151 87.9728 194.048C87.3788 193.83 87.3788 193.709 87.9728 193.709C88.8214 193.709 88.9911 191.987 88.094 191.987C87.203 191.256 86.5074 190.314 86.0695 189.248C85.433 188.001 84.6473 186.837 83.7298 185.78C82.2992 184.386 79.7292 179.925 79.7292 178.749C79.4924 177.583 78.9812 176.49 78.238 175.561C77.4622 174.445 76.9166 173.56 77.1591 173.56C77.4016 173.56 77.1591 173.16 76.7469 172.724C75.3043 171.099 75.377 170.716 78.238 172.389C82.5417 175.02 89.5973 176.737 93.5979 175.961C94.7874 175.669 96.0102 175.534 97.2348 175.561C98.0586 176.755 98.796 178.007 99.4412 179.307C100.478 181.348 101.922 183.155 103.684 184.617C105.026 185.484 106.005 186.812 106.436 188.35C106.618 189.417 107.03 190.302 107.333 190.302C108.412 190.302 107.761 191.394 106.5 192C102.346 193.807 98.0152 195.132 93.5 195.5C89.4388 195.827 88.7487 195.988 88.7487 195.2L88.7002 195.164Z" fill="#C270A5"/>
<path d="M105.589 192.073C105.028 191.445 104.654 190.672 104.51 189.842C104.045 188.363 103.097 187.083 101.819 186.205C99.9168 184.609 98.372 182.631 97.2847 180.398C96.0724 178.107 94.7752 176.265 94.4115 176.265C94.0478 176.265 95.248 175.646 97.0422 174.98C100.975 173.338 104.65 171.137 107.953 168.445C109.808 166.942 109.929 166.942 111.966 167.718C113.8 168.695 115.424 170.026 116.742 171.634C118.233 173.307 119.736 175.04 120.149 175.367C122.003 176.931 122.719 177.38 123.616 177.38C124.21 177.38 124.513 177.938 124.513 179.004C124.513 180.338 123.616 181.235 118.718 184.86C112.317 189.503 106.595 192.631 105.565 192.012L105.589 192.073Z" fill="#B86DB3"/>
<path d="M121.75 181.041C121.666 180.787 121.668 180.513 121.755 180.261C121.843 180.009 122.012 179.793 122.235 179.646C122.889 179.246 122.829 179.137 121.992 179.137C121.304 179.097 120.641 178.866 120.077 178.471C119.604 178.083 118.864 177.464 118.464 177.125C118.064 176.785 116.5 175.1 114.997 173.391C113.746 171.799 112.177 170.486 110.39 169.536C109.66 169.376 108.983 169.029 108.426 168.53C108.426 168.142 112.427 164.893 114.755 163.511C115.531 163.062 118.767 160.662 122.028 158.262C125.29 155.861 128.187 153.618 128.539 153.34C128.812 153.205 129.124 153.17 129.421 153.241C129.717 153.312 129.98 153.484 130.163 153.728C130.594 154.145 131.13 154.439 131.715 154.576C132.066 154.576 132.369 154.794 132.369 155.073C132.717 155.768 133.19 156.392 133.764 156.916C134.745 158.004 135.644 159.163 136.455 160.383C137.231 161.498 138.188 162.383 138.673 162.383C138.894 162.386 139.105 162.476 139.261 162.632C139.418 162.788 139.507 162.999 139.51 163.22C139.51 163.668 140.346 164.178 141.595 164.432C142.844 164.687 143.692 165.05 143.692 165.438C143.692 165.826 141.353 167.863 138.491 169.96C135.63 172.057 130.902 175.719 128.09 177.949C125.277 180.18 122.707 181.974 122.525 181.974C122.344 181.974 121.992 181.574 121.75 181.077L121.75 181.041Z" fill="#AF6AC1"/>
<path d="M174.045 139.944C173.389 139.308 172.792 138.614 172.263 137.87C171.717 136.537 167.171 132.512 165.559 131.954C164.552 131.567 162.819 130.948 161.8 130.609C161.067 130.421 160.389 130.059 159.824 129.554C159.824 128.827 167.717 123.747 169.389 123.299C173.329 122.244 178.773 124.802 180.809 128.657C183.016 132.961 181.646 137.422 177.172 140.441C175.621 141.556 175.621 141.556 173.996 139.944L174.045 139.944Z" fill="#8E61ED"/>
<path d="M141.774 166.614C141.086 166.292 140.325 166.158 139.568 166.226C138.186 166.165 137.713 165.886 137.713 165.098C137.725 164.978 137.712 164.856 137.676 164.741C137.64 164.625 137.582 164.518 137.504 164.425C137.426 164.333 137.33 164.257 137.222 164.202C137.115 164.146 136.997 164.113 136.876 164.104C136.392 164.104 135.434 163.207 134.658 162.092C133.845 160.873 132.946 159.714 131.967 158.625C131.375 158.109 130.889 157.483 130.536 156.782C130.532 156.71 130.513 156.639 130.48 156.574C130.447 156.51 130.402 156.452 130.346 156.406C130.29 156.359 130.226 156.324 130.157 156.304C130.087 156.283 130.014 156.277 129.942 156.285C129.304 156.119 128.712 155.813 128.209 155.388C127.13 154.491 127.251 154.321 131.07 151.314C134.706 148.466 139.325 144.889 142.077 142.937C142.974 142.271 143.387 142.38 145.544 143.713C146.901 144.624 148.16 145.672 149.303 146.841C150.439 147.948 151.754 148.854 153.194 149.52C154.503 150.199 155.619 151.084 155.619 151.533C155.601 151.729 155.659 151.925 155.78 152.081C155.902 152.236 156.078 152.339 156.273 152.369C157.049 152.369 158.601 153.763 158.54 154.442C158.54 154.83 143.544 166.274 142.465 166.783C142.341 166.811 142.212 166.811 142.088 166.781C141.964 166.752 141.848 166.695 141.75 166.614L141.774 166.614Z" fill="#A768CD"/>
<path d="M156.056 154.855C155.625 154.437 155.089 154.144 154.504 154.007C154.309 153.976 154.133 153.873 154.011 153.718C153.89 153.562 153.832 153.367 153.85 153.17C153.85 152.734 152.831 151.885 151.643 151.279C149.69 150.179 147.864 148.866 146.2 147.363C144.042 145.52 142.733 144.684 142.078 144.938C141.424 145.193 141.242 145.048 141.533 144.66C141.824 144.272 141.654 143.981 141.302 143.981C140.951 143.981 144.224 141.302 148.576 138.016C152.928 134.731 157.547 131.252 158.796 130.197C161.221 128.124 161.851 128.015 164.057 129.13C165.064 129.585 166.106 129.958 167.173 130.245C168.555 130.524 173.574 134.889 174.107 136.222C174.523 136.954 175.074 137.6 175.732 138.125C176.325 138.618 176.798 139.24 177.114 139.944C177.114 140.392 159.475 154.237 157.571 155.292C157.208 155.522 156.493 155.292 156.008 154.855L156.056 154.855Z" fill="#9B64DE"/>
<path d="M168.022 72.0078C166.058 71.0622 131.204 45.2038 108.619 27.9528C98.9209 20.4729 95.4174 18.9575 89.5014 19.4667C84.5772 20.0708 79.9267 22.0639 76.0933 25.213C60.5516 37.336 47.5194 46.6586 46.3313 46.6586C44.6584 46.6586 42.9248 45.3735 42.9248 44.234C42.9248 43.7369 42.2095 43.0217 41.3124 42.6701C40.0764 42.0996 38.9452 41.3251 37.9665 40.3789C35.8692 38.4271 32.7657 36.645 31.4443 36.645C30.8503 36.645 27 38.7182 27 38.5C27 38.2818 34.8509 32.3413 40.3547 28.2074C45.8586 24.0734 51.5927 19.7213 53.1445 18.509C54.6962 17.2967 56.9147 15.551 58.1634 14.5932C59.4121 13.6355 62.164 11.5867 64.3219 9.96225C72.3958 3.7674 79.4393 0.748774 87.2101 0.0820093C96.9991 -0.536269 106.688 2.35658 114.535 8.24079C117.942 10.8109 152.868 37.0572 171.053 50.7925C181.272 58.4906 181.963 59.4484 181.394 64.3582C180.909 68.4315 175.332 72.9534 170.81 72.8443C169.838 72.6662 168.893 72.3647 167.998 71.9472L168.022 72.0078Z" fill="#7E5EFC"/>
<path d="M29.2131 57.2652C29.2131 56.9864 28.7281 56.7076 28.1341 56.7076C27.5401 56.7076 25.7095 55.4953 24.1335 53.9193C22.2787 52.1857 20.6663 51.1189 19.8299 51.1189C18.9934 51.1189 18.4478 50.9007 18.4478 50.5612C18.4478 50.2218 17.7932 50.0035 16.9567 50.0035C16.5485 50.0069 16.1453 49.9131 15.7806 49.7297C15.4159 49.5462 15.1001 49.2786 14.8594 48.9489C14.3866 47.9911 14.0328 48.0701 17.5 45.5C19.7185 43.8755 24.3881 40.3415 26.9946 38.3897C31.1285 35.1529 34.5957 33.5405 34.5957 34.9347C34.5957 35.2135 35.0685 35.5408 35.7231 35.7711C36.9905 36.3759 38.1432 37.1963 39.1297 38.1957C40.4209 39.2922 41.7994 40.2815 43.2515 41.1538C44.2698 41.6508 44.9851 42.3661 44.876 42.7661C44.6941 43.6026 46.4883 44.9483 47.9189 45.0089C49.3494 45.0695 48.4246 45.4876 46 47.5C38.1807 53.6949 32.6681 57.8471 30.9466 57.8471C29.9283 57.8471 29.1524 57.6289 29.1524 57.2895L29.2131 57.2652Z" fill="#8E61ED"/>
<path d="M4.66524 70.8919C-0.826474 67.255 -1.55385 61.1208 2.93167 56.708C4.14397 55.5927 13.7904 48.2156 17.5 45.5C18.0941 45.1121 16.3276 46.7307 16.7398 47.4096C16.8899 47.7202 17.1527 47.962 17.4747 48.0858C17.7967 48.2097 18.1537 48.2063 18.4733 48.0764C19.1886 47.8582 19.6856 48.0764 19.9645 48.5734C20.1366 48.8626 20.3847 49.0991 20.6818 49.2572C20.9788 49.4154 21.3135 49.4891 21.6496 49.4705C22.4254 49.4705 24.159 50.5859 25.8926 52.2588C27.6262 53.9318 29.2992 55.0593 29.8932 55.0593C30.4872 55.0593 30.9721 55.3381 30.9721 55.6169C30.9721 55.8957 31.6874 56.1746 32.5239 56.1746C33.3604 56.1746 39.6212 52.2212 39.5 52.5C39.209 53.2274 15.6487 70.5767 13.5757 71.5344C12.1496 72.153 10.5957 72.4197 9.04503 72.3121C7.49432 72.2045 5.99221 71.7257 4.66524 70.9161L4.66524 70.8919Z" fill="#9B64DE"/>
<circle cx="16.9725" cy="112.128" r="4.5" fill="#141413"/>
<circle cx="31.1425" cy="109.208" r="4.5" fill="#141413"/>
<circle cx="44.5" cy="102.5" r="4.5" fill="#141413"/>
<circle cx="56.5" cy="87.5" r="4.5" fill="#141413"/>
<circle cx="91.2206" cy="99.8665" r="4.5" fill="#141413"/>
<circle cx="128.062" cy="88.7712" r="4.5" fill="#141413"/>
<circle cx="138.831" cy="108.626" r="4.5" fill="#141413"/>
<circle cx="123.527" cy="122.056" r="4.5" fill="#141413"/>
<circle cx="155.834" cy="117.968" r="4.5" fill="#141413"/>
<circle cx="80.452" cy="83.5154" r="4.5" fill="#141413"/>
<circle cx="82.7197" cy="115.048" r="4.5" fill="#141413"/>
<circle cx="70.2501" cy="126.728" r="4.5" fill="#141413"/>
<circle cx="97.4561" cy="110.377" r="4.5" fill="#141413"/>
<circle cx="110.5" cy="122.5" r="4.5" fill="#141413"/>
<circle cx="108.225" cy="69.5" r="4.5" fill="#141413"/>
<circle cx="45.8788" cy="118.552" r="4.5" fill="#141413"/>
<circle cx="66.5" cy="98.5" r="4.5" fill="#141413"/>
<path d="M17 112L31 109L44.5 102.5L56.5 88M56.5 88L46 118.5L70.0171 127.148L56.5 88Z" stroke="black"/>
<path d="M56.5 88L82.486 115.469" stroke="black"/>
<path d="M70.0172 127.147L82.4864 115.468" stroke="black"/>
<path d="M45.6454 118.388L31 109" stroke="black"/>
<path d="M82.4863 114.84L108.387 69.3357M108.387 69.3357L97.4511 110.143L110.114 123.06L123.064 121.885L108.387 69.3357ZM108.387 69.3357L127.669 89.0052L138.892 108.675L156.735 118.069" stroke="black"/>
<path d="M66.5 98.5L80.5026 83.3511L90.9881 100.286" stroke="black"/>
<path d="M80.2196 83.3511L82.4867 114.885" stroke="black"/>
<path d="M82.4863 115.468L97.2227 110.212" stroke="black"/>
<path d="M201.845 131.104H206.502V149.393H201.845V131.104Z" fill="#141413"/>
<path d="M218.898 136.199C220.64 136.199 222.022 136.721 223.044 137.766C224.085 138.811 224.606 140.257 224.606 142.103V149.393H220.147V142.338C220.147 141.502 219.92 140.849 219.466 140.379C219.011 139.909 218.387 139.674 217.592 139.674C216.721 139.674 216.02 139.944 215.49 140.483C214.96 141.023 214.695 141.729 214.695 142.6V149.393H210.236V136.486H214.099L214.382 138.001C214.932 137.427 215.585 136.982 216.342 136.669C217.118 136.355 217.97 136.199 218.898 136.199Z" fill="#141413"/>
<path d="M236.453 136.199C238.194 136.199 239.577 136.721 240.599 137.766C241.64 138.811 242.161 140.257 242.161 142.103V149.393H237.702V142.338C237.702 141.502 237.475 140.849 237.021 140.379C236.566 139.909 235.942 139.674 235.146 139.674C234.276 139.674 233.575 139.944 233.045 140.483C232.515 141.023 232.25 141.729 232.25 142.6V149.393H227.791V136.486H231.653L231.937 138.001C232.486 137.427 233.14 136.982 233.897 136.669C234.673 136.355 235.525 136.199 236.453 136.199Z" fill="#141413"/>
<path d="M252.247 149.68C250.694 149.68 249.331 149.402 248.158 148.844C247.003 148.269 246.113 147.477 245.488 146.467C244.863 145.456 244.551 144.281 244.551 142.939C244.551 141.598 244.863 140.423 245.488 139.412C246.113 138.402 247.003 137.618 248.158 137.061C249.331 136.486 250.694 136.199 252.247 136.199C253.799 136.199 255.162 136.486 256.336 137.061C257.51 137.618 258.409 138.402 259.034 139.412C259.659 140.423 259.971 141.598 259.971 142.939C259.971 144.281 259.659 145.456 259.034 146.467C258.409 147.477 257.51 148.269 256.336 148.844C255.162 149.402 253.799 149.68 252.247 149.68ZM252.247 146.205C253.231 146.205 254.027 145.9 254.632 145.291C255.238 144.681 255.541 143.897 255.541 142.939C255.541 141.981 255.238 141.198 254.632 140.588C254.027 139.978 253.231 139.674 252.247 139.674C251.281 139.674 250.496 139.978 249.89 140.588C249.284 141.198 248.981 141.981 248.981 142.939C248.981 143.897 249.284 144.681 249.89 145.291C250.496 145.9 251.281 146.205 252.247 146.205Z" fill="#141413"/>
<path d="M272.095 136.486H276.837L270.902 149.393H266.358L260.395 136.486H265.251L266.926 140.379L268.659 145.056L270.391 140.379L272.095 136.486Z" fill="#141413"/>
<path d="M292.753 136.486V149.393H288.891L288.607 147.851C287.415 149.053 285.862 149.654 283.95 149.654C282.644 149.654 281.479 149.375 280.457 148.818C279.454 148.243 278.668 147.451 278.1 146.44C277.532 145.413 277.248 144.246 277.248 142.939C277.248 141.633 277.532 140.475 278.1 139.465C278.668 138.437 279.454 137.644 280.457 137.087C281.479 136.512 282.644 136.225 283.95 136.225C284.897 136.225 285.767 136.382 286.563 136.695C287.358 136.991 288.039 137.427 288.607 138.001L288.891 136.486H292.753ZM285.001 146.205C285.985 146.205 286.79 145.909 287.415 145.317C288.039 144.707 288.352 143.915 288.352 142.939C288.352 141.964 288.039 141.18 287.415 140.588C286.79 139.978 285.985 139.674 285.001 139.674C284.016 139.674 283.212 139.978 282.587 140.588C281.981 141.198 281.678 141.981 281.678 142.939C281.678 143.897 281.981 144.681 282.587 145.291C283.212 145.9 284.016 146.205 285.001 146.205Z" fill="#141413"/>
<path d="M303.055 149.68C301.483 149.68 300.111 149.41 298.937 148.87C297.782 148.313 296.883 147.529 296.239 146.519C295.614 145.509 295.302 144.324 295.302 142.966C295.302 141.624 295.624 140.449 296.268 139.438C296.911 138.411 297.81 137.618 298.965 137.061C300.12 136.486 301.455 136.199 302.97 136.199C304.011 136.199 305.005 136.373 305.951 136.721C306.898 137.052 307.74 137.549 308.479 138.21L306.008 140.692C305.213 140.013 304.276 139.674 303.197 139.674C302.174 139.674 301.341 139.978 300.698 140.588C300.054 141.18 299.732 141.964 299.732 142.939C299.732 143.915 300.045 144.707 300.669 145.317C301.313 145.909 302.155 146.205 303.197 146.205C304.352 146.205 305.336 145.831 306.15 145.082L308.678 147.538C307.106 148.966 305.232 149.68 303.055 149.68Z" fill="#141413"/>
<path d="M313.039 135.206C312.263 135.206 311.629 134.997 311.136 134.579C310.663 134.161 310.426 133.629 310.426 132.985C310.426 132.323 310.672 131.783 311.165 131.365C311.657 130.947 312.282 130.738 313.039 130.738C313.796 130.738 314.421 130.947 314.913 131.365C315.406 131.783 315.652 132.323 315.652 132.985C315.652 133.629 315.406 134.161 314.913 134.579C314.44 134.997 313.815 135.206 313.039 135.206ZM310.796 136.486H315.254V149.393H310.796V136.486Z" fill="#141413"/>
<path d="M325.517 149.68C323.965 149.68 322.601 149.402 321.428 148.844C320.273 148.269 319.383 147.477 318.758 146.467C318.133 145.456 317.821 144.281 317.821 142.939C317.821 141.598 318.133 140.423 318.758 139.412C319.383 138.402 320.273 137.618 321.428 137.061C322.601 136.486 323.965 136.199 325.517 136.199C327.069 136.199 328.433 136.486 329.606 137.061C330.78 137.618 331.679 138.402 332.304 139.412C332.929 140.423 333.241 141.598 333.241 142.939C333.241 144.281 332.929 145.456 332.304 146.467C331.679 147.477 330.78 148.269 329.606 148.844C328.433 149.402 327.069 149.68 325.517 149.68ZM325.517 146.205C326.501 146.205 327.297 145.9 327.902 145.291C328.508 144.681 328.811 143.897 328.811 142.939C328.811 141.981 328.508 141.198 327.902 140.588C327.297 139.978 326.501 139.674 325.517 139.674C324.551 139.674 323.766 139.978 323.16 140.588C322.554 141.198 322.251 141.981 322.251 142.939C322.251 143.897 322.554 144.681 323.16 145.291C323.766 145.9 324.551 146.205 325.517 146.205Z" fill="#141413"/>
<path d="M344.472 136.199C346.214 136.199 347.596 136.721 348.618 137.766C349.659 138.811 350.18 140.257 350.18 142.103V149.393H345.722V142.338C345.722 141.502 345.494 140.849 345.04 140.379C344.586 139.909 343.961 139.674 343.166 139.674C342.295 139.674 341.594 139.944 341.064 140.483C340.534 141.023 340.269 141.729 340.269 142.6V149.393H335.811V136.486H339.673L339.957 138.001C340.506 137.427 341.159 136.982 341.916 136.669C342.692 136.355 343.544 136.199 344.472 136.199Z" fill="#141413"/>
<path d="M369.069 136.486H373.897L365.15 154.984H360.408L363.134 149.21L357.681 136.486H362.481L364.1 140.562L365.633 144.768L367.28 140.562L369.069 136.486Z" fill="#141413"/>
<path d="M390.203 131.104C392.247 131.104 394.037 131.478 395.57 132.227C397.122 132.976 398.315 134.047 399.148 135.441C400 136.817 400.426 138.419 400.426 140.248C400.426 142.077 400 143.688 399.148 145.082C398.315 146.458 397.122 147.52 395.57 148.269C394.037 149.018 392.247 149.393 390.203 149.393H382.052V131.104H390.203ZM390.203 145.657C391.869 145.657 393.213 145.169 394.235 144.194C395.258 143.218 395.769 141.903 395.769 140.248C395.769 139.151 395.532 138.202 395.059 137.4C394.605 136.582 393.951 135.955 393.099 135.519C392.266 135.066 391.301 134.84 390.203 134.84H386.71V145.657H390.203Z" fill="#141413"/>
<path d="M409.71 136.199C411.244 136.199 412.569 136.469 413.686 137.009C414.803 137.531 415.655 138.28 416.242 139.255C416.848 140.213 417.151 141.337 417.151 142.626C417.151 143.044 417.104 143.558 417.009 144.167H406.7C406.833 144.829 407.221 145.369 407.865 145.787C408.508 146.188 409.332 146.388 410.335 146.388C411.036 146.388 411.717 146.292 412.38 146.101C413.043 145.909 413.611 145.639 414.084 145.291L416.412 147.59C415.617 148.269 414.671 148.792 413.573 149.158C412.494 149.523 411.339 149.706 410.108 149.706C408.48 149.706 407.069 149.436 405.877 148.896C404.684 148.339 403.766 147.555 403.122 146.545C402.478 145.535 402.156 144.342 402.156 142.966C402.156 141.642 402.469 140.466 403.094 139.438C403.737 138.411 404.627 137.618 405.763 137.061C406.899 136.486 408.215 136.199 409.71 136.199ZM409.852 139.438C408.963 139.438 408.234 139.647 407.666 140.065C407.117 140.483 406.804 141.067 406.729 141.816H412.919C412.863 141.067 412.56 140.483 412.011 140.065C411.481 139.647 410.761 139.438 409.852 139.438Z" fill="#141413"/>
<path d="M425.072 149.732C422.591 149.732 420.433 149.158 418.597 148.008L420.301 145.186C420.982 145.57 421.768 145.866 422.658 146.075C423.566 146.284 424.466 146.388 425.356 146.388C426.586 146.388 427.201 146.083 427.201 145.474C427.201 145.16 427.031 144.925 426.69 144.768C426.349 144.612 425.782 144.507 424.986 144.455C423.207 144.368 421.787 143.958 420.727 143.227C419.685 142.495 419.165 141.537 419.165 140.353C419.165 139.064 419.733 138.045 420.869 137.296C422.005 136.53 423.538 136.146 425.469 136.146C426.567 136.146 427.608 136.268 428.593 136.512C429.596 136.756 430.458 137.096 431.177 137.531L429.445 140.274C428.385 139.717 427.126 139.438 425.668 139.438C424.229 139.438 423.51 139.752 423.51 140.379C423.51 140.64 423.652 140.841 423.936 140.98C424.239 141.119 424.74 141.224 425.441 141.293C427.448 141.433 428.972 141.851 430.013 142.548C431.073 143.244 431.603 144.22 431.603 145.474C431.603 146.798 431.026 147.843 429.871 148.609C428.716 149.358 427.116 149.732 425.072 149.732Z" fill="#141413"/>
<path d="M448.501 136.486V149.393H444.639L444.355 147.851C443.162 149.053 441.61 149.654 439.697 149.654C438.391 149.654 437.227 149.375 436.204 148.818C435.201 148.243 434.415 147.451 433.847 146.44C433.279 145.413 432.995 144.246 432.995 142.939C432.995 141.633 433.279 140.475 433.847 139.465C434.415 138.437 435.201 137.644 436.204 137.087C437.227 136.512 438.391 136.225 439.697 136.225C440.644 136.225 441.515 136.382 442.31 136.695C443.105 136.991 443.787 137.427 444.355 138.001L444.639 136.486H448.501ZM440.748 146.205C441.733 146.205 442.537 145.909 443.162 145.317C443.787 144.707 444.099 143.915 444.099 142.939C444.099 141.964 443.787 141.18 443.162 140.588C442.537 139.978 441.733 139.674 440.748 139.674C439.764 139.674 438.959 139.978 438.334 140.588C437.728 141.198 437.426 141.981 437.426 142.939C437.426 143.897 437.728 144.681 438.334 145.291C438.959 145.9 439.764 146.205 440.748 146.205Z" fill="#141413"/>
<path d="M459.825 136.199C460.468 136.199 461.112 136.312 461.756 136.538C462.399 136.747 462.958 137.061 463.431 137.479L461.557 140.483C461.159 140.257 460.79 140.092 460.449 139.987C460.109 139.883 459.749 139.83 459.37 139.83C458.424 139.83 457.676 140.109 457.127 140.666C456.578 141.224 456.303 142.042 456.303 143.122V149.393H451.845V136.486H455.735L456.076 138.106C456.985 136.834 458.234 136.199 459.825 136.199Z" fill="#141413"/>
<path d="M472.914 136.199C473.558 136.199 474.202 136.312 474.846 136.538C475.489 136.747 476.048 137.061 476.521 137.479L474.647 140.483C474.249 140.257 473.88 140.092 473.539 139.987C473.198 139.883 472.839 139.83 472.46 139.83C471.513 139.83 470.766 140.109 470.217 140.666C469.668 141.224 469.393 142.042 469.393 143.122V149.393H464.935V136.486H468.825L469.166 138.106C470.075 136.834 471.324 136.199 472.914 136.199Z" fill="#141413"/>
<path d="M484.565 149.68C483.012 149.68 481.649 149.402 480.475 148.844C479.32 148.269 478.431 147.477 477.806 146.467C477.181 145.456 476.869 144.281 476.869 142.939C476.869 141.598 477.181 140.423 477.806 139.412C478.431 138.402 479.32 137.618 480.475 137.061C481.649 136.486 483.012 136.199 484.565 136.199C486.117 136.199 487.48 136.486 488.654 137.061C489.828 137.618 490.727 138.402 491.352 139.412C491.977 140.423 492.289 141.598 492.289 142.939C492.289 144.281 491.977 145.456 491.352 146.467C490.727 147.477 489.828 148.269 488.654 148.844C487.48 149.402 486.117 149.68 484.565 149.68ZM484.565 146.205C485.549 146.205 486.344 145.9 486.95 145.291C487.556 144.681 487.859 143.897 487.859 142.939C487.859 141.981 487.556 141.198 486.95 140.588C486.344 139.978 485.549 139.674 484.565 139.674C483.599 139.674 482.813 139.978 482.208 140.588C481.602 141.198 481.299 141.981 481.299 142.939C481.299 143.897 481.602 144.681 482.208 145.291C482.813 145.9 483.599 146.205 484.565 146.205Z" fill="#141413"/>
<path d="M494.858 131.104H499.317V149.393H494.858V131.104Z" fill="#141413"/>
<path d="M502.679 131.104H507.137V149.393H502.679V131.104Z" fill="#141413"/>
<path d="M517.4 149.68C515.848 149.68 514.485 149.402 513.311 148.844C512.156 148.269 511.266 147.477 510.641 146.467C510.017 145.456 509.704 144.281 509.704 142.939C509.704 141.598 510.017 140.423 510.641 139.412C511.266 138.402 512.156 137.618 513.311 137.061C514.485 136.486 515.848 136.199 517.4 136.199C518.953 136.199 520.316 136.486 521.49 137.061C522.663 137.618 523.563 138.402 524.188 139.412C524.812 140.423 525.125 141.598 525.125 142.939C525.125 144.281 524.812 145.456 524.188 146.467C523.563 147.477 522.663 148.269 521.49 148.844C520.316 149.402 518.953 149.68 517.4 149.68ZM517.4 146.205C518.385 146.205 519.18 145.9 519.786 145.291C520.392 144.681 520.695 143.897 520.695 142.939C520.695 141.981 520.392 141.198 519.786 140.588C519.18 139.978 518.385 139.674 517.4 139.674C516.435 139.674 515.649 139.978 515.043 140.588C514.437 141.198 514.134 141.981 514.134 142.939C514.134 143.897 514.437 144.681 515.043 145.291C515.649 145.9 516.435 146.205 517.4 146.205Z" fill="#141413"/>
<path d="M220.44 112.024C216.771 112.024 213.229 111.469 209.816 110.36C206.445 109.251 203.523 107.693 201.048 105.688L206.488 98.072C210.456 101.187 215.085 102.744 220.376 102.744C223.021 102.744 225.112 102.296 226.648 101.4C228.227 100.504 229.016 99.288 229.016 97.752C229.016 96.3013 228.291 95.1707 226.84 94.36C225.389 93.5493 223.085 92.9733 219.928 92.632C213.827 91.9493 209.347 90.52 206.488 88.344C203.672 86.168 202.264 83.0533 202.264 79C202.264 76.2693 203.032 73.8587 204.568 71.768C206.104 69.6773 208.259 68.056 211.032 66.904C213.805 65.752 217.005 65.176 220.632 65.176C223.747 65.176 226.776 65.624 229.72 66.52C232.707 67.416 235.331 68.6747 237.592 70.296L232.664 77.656C229.165 75.224 225.304 74.008 221.08 74.008C218.477 74.008 216.387 74.4347 214.808 75.288C213.272 76.1413 212.504 77.2933 212.504 78.744C212.504 80.152 213.165 81.24 214.488 82.008C215.853 82.776 218.115 83.352 221.272 83.736C227.331 84.4187 231.853 85.9333 234.84 88.28C237.827 90.584 239.32 93.7627 239.32 97.816C239.32 100.632 238.531 103.128 236.952 105.304C235.373 107.437 233.155 109.101 230.296 110.296C227.437 111.448 224.152 112.024 220.44 112.024ZM278.116 79.384V111H269.412L268.772 107.224C266.084 110.168 262.585 111.64 258.276 111.64C255.332 111.64 252.708 110.957 250.404 109.592C248.142 108.184 246.372 106.243 245.092 103.768C243.812 101.251 243.172 98.392 243.172 95.192C243.172 91.992 243.812 89.1547 245.092 86.68C246.372 84.1627 248.142 82.2213 250.404 80.856C252.708 79.448 255.332 78.744 258.276 78.744C260.409 78.744 262.372 79.128 264.164 79.896C265.956 80.6213 267.492 81.688 268.772 83.096L269.412 79.384H278.116ZM260.644 103.192C262.862 103.192 264.676 102.467 266.084 101.016C267.492 99.5227 268.196 97.5813 268.196 95.192C268.196 92.8027 267.492 90.8827 266.084 89.432C264.676 87.9387 262.862 87.192 260.644 87.192C258.425 87.192 256.612 87.9387 255.204 89.432C253.838 90.9253 253.156 92.8453 253.156 95.192C253.156 97.5387 253.838 99.4587 255.204 100.952C256.612 102.445 258.425 103.192 260.644 103.192ZM285.651 66.2H295.699V111H285.651V66.2ZM325.932 109.784C323.457 111.021 320.663 111.64 317.548 111.64C314.092 111.64 311.361 110.68 309.356 108.76C307.351 106.797 306.348 103.661 306.348 99.352V87.384H300.972V79.384H306.348V71.512L316.332 70.424V79.384H324.204V87.384H316.332V99.352C316.332 100.632 316.652 101.592 317.292 102.232C317.932 102.829 318.807 103.128 319.916 103.128C321.153 103.128 322.369 102.829 323.564 102.232L325.932 109.784ZM363.366 79.384V111H354.662L354.022 107.224C351.334 110.168 347.835 111.64 343.526 111.64C340.582 111.64 337.958 110.957 335.654 109.592C333.392 108.184 331.622 106.243 330.342 103.768C329.062 101.251 328.422 98.392 328.422 95.192C328.422 91.992 329.062 89.1547 330.342 86.68C331.622 84.1627 333.392 82.2213 335.654 80.856C337.958 79.448 340.582 78.744 343.526 78.744C345.659 78.744 347.622 79.128 349.414 79.896C351.206 80.6213 352.742 81.688 354.022 83.096L354.662 79.384H363.366ZM345.894 103.192C348.112 103.192 349.926 102.467 351.334 101.016C352.742 99.5227 353.446 97.5813 353.446 95.192C353.446 92.8027 352.742 90.8827 351.334 89.432C349.926 87.9387 348.112 87.192 345.894 87.192C343.675 87.192 341.862 87.9387 340.454 89.432C339.088 90.9253 338.406 92.8453 338.406 95.192C338.406 97.5387 339.088 99.4587 340.454 100.952C341.862 102.445 343.675 103.192 345.894 103.192ZM393.12 112.024C388.298 112.024 384.053 111.043 380.384 109.08C376.757 107.117 373.941 104.365 371.936 100.824C369.973 97.2827 368.992 93.208 368.992 88.6C368.992 83.992 369.994 79.9173 372 76.376C374.048 72.792 376.885 70.04 380.512 68.12C384.138 66.1573 388.277 65.176 392.928 65.176C399.541 65.176 405.216 67.5013 409.952 72.152L403.488 78.616C400.629 75.8853 397.194 74.52 393.184 74.52C390.496 74.52 388.106 75.1173 386.016 76.312C383.968 77.464 382.368 79.1067 381.216 81.24C380.106 83.3733 379.552 85.8267 379.552 88.6C379.552 91.3733 380.106 93.8267 381.216 95.96C382.368 98.0933 383.968 99.7573 386.016 100.952C388.106 102.104 390.496 102.68 393.184 102.68C395.317 102.68 397.365 102.296 399.328 101.528C401.29 100.76 402.997 99.6507 404.448 98.2L410.592 105.048C405.77 109.699 399.946 112.024 393.12 112.024ZM430.203 111.704C426.704 111.704 423.632 111.021 420.987 109.656C418.384 108.248 416.379 106.307 414.971 103.832C413.563 101.357 412.859 98.4773 412.859 95.192C412.859 91.9067 413.563 89.0267 414.971 86.552C416.379 84.0773 418.384 82.1573 420.987 80.792C423.632 79.384 426.704 78.68 430.203 78.68C433.702 78.68 436.774 79.384 439.419 80.792C442.064 82.1573 444.091 84.0773 445.499 86.552C446.907 89.0267 447.611 91.9067 447.611 95.192C447.611 98.4773 446.907 101.357 445.499 103.832C444.091 106.307 442.064 108.248 439.419 109.656C436.774 111.021 433.702 111.704 430.203 111.704ZM430.203 103.192C432.422 103.192 434.214 102.445 435.579 100.952C436.944 99.4587 437.627 97.5387 437.627 95.192C437.627 92.8453 436.944 90.9253 435.579 89.432C434.214 87.9387 432.422 87.192 430.203 87.192C428.027 87.192 426.256 87.9387 424.891 89.432C423.526 90.9253 422.843 92.8453 422.843 95.192C422.843 97.5387 423.526 99.4587 424.891 100.952C426.256 102.445 428.027 103.192 430.203 103.192ZM486.553 66.2V111H477.849L477.209 107.224C474.521 110.168 471.022 111.64 466.713 111.64C463.769 111.64 461.145 110.957 458.841 109.592C456.58 108.184 454.809 106.243 453.529 103.768C452.249 101.251 451.609 98.392 451.609 95.192C451.609 91.992 452.249 89.1547 453.529 86.68C454.809 84.1627 456.58 82.2213 458.841 80.856C461.145 79.448 463.769 78.744 466.713 78.744C470.596 78.744 473.86 79.96 476.505 82.392V66.2H486.553ZM469.081 103.192C471.3 103.192 473.113 102.467 474.521 101.016C475.929 99.5227 476.633 97.5813 476.633 95.192C476.633 92.8027 475.929 90.8827 474.521 89.432C473.113 87.9387 471.3 87.192 469.081 87.192C466.862 87.192 465.049 87.9387 463.641 89.432C462.276 90.9253 461.593 92.8453 461.593 95.192C461.593 97.5387 462.276 99.4587 463.641 100.952C465.049 102.445 466.862 103.192 469.081 103.192ZM509.383 78.68C512.839 78.68 515.826 79.3413 518.343 80.664C520.86 81.944 522.78 83.7787 524.103 86.168C525.468 88.5147 526.151 91.2667 526.151 94.424C526.151 95.448 526.044 96.7067 525.831 98.2H502.599C502.898 99.8213 503.772 101.144 505.223 102.168C506.674 103.149 508.53 103.64 510.791 103.64C512.37 103.64 513.906 103.405 515.399 102.936C516.892 102.467 518.172 101.805 519.239 100.952L524.487 106.584C522.695 108.248 520.562 109.528 518.087 110.424C515.655 111.32 513.052 111.768 510.279 111.768C506.61 111.768 503.431 111.107 500.743 109.784C498.055 108.419 495.986 106.499 494.535 104.024C493.084 101.549 492.359 98.6267 492.359 95.256C492.359 92.0133 493.063 89.1333 494.471 86.616C495.922 84.0987 497.927 82.1573 500.487 80.792C503.047 79.384 506.012 78.68 509.383 78.68ZM509.703 86.616C507.698 86.616 506.055 87.128 504.775 88.152C503.538 89.176 502.834 90.6053 502.663 92.44H516.615C516.487 90.6053 515.804 89.176 514.567 88.152C513.372 87.128 511.751 86.616 509.703 86.616Z" fill="#141413"/>
</svg>
