<?xml version="1.0" encoding="utf-8"?>
<!-- Generator: Adobe Illustrator 24.1.3, SVG Export Plug-In . SVG Version: 6.00 Build 0)  -->
<svg version="1.1" id="Capa_1" xmlns="http://www.w3.org/2000/svg" xmlns:xlink="http://www.w3.org/1999/xlink" x="0px" y="0px"
	 viewBox="0 0 100 100" style="enable-background:new 0 0 100 100;" xml:space="preserve">
<style type="text/css">
	.st0{fill:#8E61ED;}
	.st1{fill:none;stroke:#D9D9D9;stroke-width:2;}
	.st2{fill:#D9D9D9;}
</style>
<g>
	<g>
		<circle class="st0" cx="50" cy="50" r="50"/>
	</g>
	<circle class="st0" cx="49.5" cy="50.5" r="40.5"/>
	<path class="st1" d="M33,32h32c1.7,0,3,1.3,3,3v32c0,1.7-1.3,3-3,3H33c-1.7,0-3-1.3-3-3V35C30,33.3,31.3,32,33,32z"/>
	<path class="st2" d="M47.4,39.4v8c0,1.1-0.9,2-2,2h-8c-1.1,0-2-0.9-2-2v-8c0-1.1,0.9-2,2-2h8C46.5,37.4,47.4,38.3,47.4,39.4z"/>
	<path class="st2" d="M62.6,39.4v8c0,1.1-0.9,2-2,2h-8c-1.1,0-2-0.9-2-2v-8c0-1.1,0.9-2,2-2h8C61.7,37.4,62.6,38.3,62.6,39.4z"/>
	<path class="st2" d="M47.4,54.6v8c0,1.1-0.9,2-2,2h-8c-1.1,0-2-0.9-2-2v-8c0-1.1,0.9-2,2-2h8C46.5,52.6,47.4,53.5,47.4,54.6z"/>
	<path class="st2" d="M62.6,54.6v8c0,1.1-0.9,2-2,2h-8c-1.1,0-2-0.9-2-2v-8c0-1.1,0.9-2,2-2h8C61.7,52.6,62.6,53.5,62.6,54.6z"/>
</g>
</svg>
