<?xml version="1.0" encoding="utf-8"?>
<!-- Generator: Adobe Illustrator 24.1.3, SVG Export Plug-In . SVG Version: 6.00 Build 0)  -->
<svg version="1.1" id="Capa_1" xmlns="http://www.w3.org/2000/svg" xmlns:xlink="http://www.w3.org/1999/xlink" x="0px" y="0px"
	 viewBox="0 0 100 100" style="enable-background:new 0 0 100 100;" xml:space="preserve">
<style type="text/css">
	.st0{fill:#8E61ED;}
	.st1{fill:#F2F2F2;}
	.st2{fill:#F2F2F2;stroke:#8E61ED;stroke-width:0.1;}
</style>
<g>
	<g>
		<circle class="st0" cx="50" cy="50" r="50"/>
	</g>
	<circle class="st0" cx="49.5" cy="50.5" r="40.5"/>
	<path class="st1" d="M67,34H33v36h34V34z"/>
	<path class="st2" d="M63,30.1l3.9,3.9H33.1l3.9-3.9H63z"/>
	<path class="st0" d="M39,50c1.1,0,2,0.9,2,2c0,1.1-0.9,2-2,2c-1.1,0-2-0.9-2-2C37,50.9,37.9,50,39,50z"/>
	<path class="st0" d="M39,38c1.1,0,2,0.9,2,2c0,1.1-0.9,2-2,2c-1.1,0-2-0.9-2-2C37,38.9,37.9,38,39,38z"/>
	<path class="st0" d="M39,62c1.1,0,2,0.9,2,2c0,1.1-0.9,2-2,2c-1.1,0-2-0.9-2-2C37,62.9,37.9,62,39,62z"/>
	<path class="st2" d="M66.9,52v5.9H34h-0.9V46.1h33.9V52z M41.1,52c0-1.1-0.9-2.1-2.1-2.1c-1.1,0-2.1,0.9-2.1,2.1
		c0,1.1,0.9,2.1,2.1,2.1C40.1,54.1,41.1,53.1,41.1,52z"/>
	<path class="st0" d="M54,42c-0.1,0-0.3,0-0.4-0.1c-0.5-0.2-0.7-0.8-0.4-1.3l1-2c0.2-0.5,0.8-0.7,1.3-0.4c0.5,0.2,0.7,0.8,0.4,1.3
		l-1,2C54.7,41.8,54.4,42,54,42z"/>
	<path class="st0" d="M58,42c-0.1,0-0.3,0-0.4-0.1c-0.5-0.2-0.7-0.8-0.4-1.3l1-2c0.2-0.5,0.8-0.7,1.3-0.4c0.5,0.2,0.7,0.8,0.4,1.3
		l-1,2C58.7,41.8,58.4,42,58,42z"/>
	<path class="st0" d="M62,42c-0.1,0-0.3,0-0.4-0.1c-0.5-0.2-0.7-0.8-0.4-1.3l1-2c0.2-0.5,0.8-0.7,1.3-0.4c0.5,0.2,0.7,0.8,0.4,1.3
		l-1,2C62.7,41.8,62.4,42,62,42z"/>
	<path class="st0" d="M54,54c-0.1,0-0.3,0-0.4-0.1c-0.5-0.2-0.7-0.8-0.4-1.3l1-2c0.2-0.5,0.8-0.7,1.3-0.4c0.5,0.2,0.7,0.8,0.4,1.3
		l-1,2C54.7,53.8,54.4,54,54,54z"/>
	<path class="st0" d="M58,54c-0.1,0-0.3,0-0.4-0.1c-0.5-0.2-0.7-0.8-0.4-1.3l1-2c0.2-0.5,0.8-0.7,1.3-0.4c0.5,0.2,0.7,0.8,0.4,1.3
		l-1,2C58.7,53.8,58.4,54,58,54z"/>
	<path class="st0" d="M62,54c-0.1,0-0.3,0-0.4-0.1c-0.5-0.2-0.7-0.8-0.4-1.3l1-2c0.2-0.5,0.8-0.7,1.3-0.4c0.5,0.2,0.7,0.8,0.4,1.3
		l-1,2C62.7,53.8,62.4,54,62,54z"/>
	<path class="st0" d="M54,66c-0.1,0-0.3,0-0.4-0.1c-0.5-0.2-0.7-0.8-0.4-1.3l1-2c0.2-0.5,0.8-0.7,1.3-0.4c0.5,0.2,0.7,0.8,0.4,1.3
		l-1,2C54.7,65.8,54.4,66,54,66z"/>
	<path class="st0" d="M58,66c-0.1,0-0.3,0-0.4-0.1c-0.5-0.2-0.7-0.8-0.4-1.3l1-2c0.2-0.5,0.8-0.7,1.3-0.4c0.5,0.2,0.7,0.8,0.4,1.3
		l-1,2C58.7,65.8,58.4,66,58,66z"/>
	<path class="st0" d="M62,66c-0.1,0-0.3,0-0.4-0.1c-0.5-0.2-0.7-0.8-0.4-1.3l1-2c0.2-0.5,0.8-0.7,1.3-0.4c0.5,0.2,0.7,0.8,0.4,1.3
		l-1,2C62.7,65.8,62.4,66,62,66z"/>
</g>
</svg>
