<?xml version="1.0" encoding="utf-8"?>
<!-- Generator: Adobe Illustrator 24.1.3, SVG Export Plug-In . SVG Version: 6.00 Build 0)  -->
<svg version="1.1" id="Capa_1" xmlns="http://www.w3.org/2000/svg" xmlns:xlink="http://www.w3.org/1999/xlink" x="0px" y="0px"
	 viewBox="0 0 100 100" style="enable-background:new 0 0 100 100;" xml:space="preserve">
<style type="text/css">
	.st0{fill:#8E61ED;}
	.st1{fill:#F2F2F2;}
</style>
<g>
	<circle class="st0" cx="50" cy="50" r="50"/>
</g>
<circle class="st0" cx="49.5" cy="50.5" r="40.5"/>
<path class="st1" d="M44,53.8c1.5,0.8,3.2,1.2,5,1.2s3.5-0.4,5-1.2V57l-2,2l-3-1l-3,1l-2-2V53.8z"/>
<path class="st1" d="M46,59l3-1l3,1l2-2h4c3.3,0,6,2.7,6,6v6c0,1.1-0.9,2-2,2H36c-1.1,0-2-0.9-2-2v-6c0-3.3,2.7-6,6-6h4L46,59z"/>
<path class="st1" d="M58,57h-3c3.3,0,6,2.7,6,6v6c0,1.1-0.9,2-2,2h3c1.1,0,2-0.9,2-2v-6C64,59.7,61.3,57,58,57z"/>
<path class="st1" d="M60,44L60,44c0,1.4-0.3,2.8-0.8,4c-1,2.5-2.9,4.6-5.3,5.8c-1.5,0.8-3.2,1.2-5,1.2s-3.5-0.4-5-1.2
	c-2.4-1.2-4.3-3.3-5.3-5.8c-0.5-1.2-0.8-2.6-0.8-4v0v-4l3-3c0,0,3.7,2,8,2c4.3,0,8-2,8-2l3,3V44z"/>
<path class="st1" d="M57,37L57,37l0,7v0c0,1.4-0.3,2.8-0.8,4c-1,2.5-2.9,4.6-5.3,5.8c-1.1,0.6-2.3,0.9-3.5,1.1C48,55,48.5,55,49,55
	c1.8,0,3.5-0.4,5-1.2c2.4-1.2,4.3-3.3,5.3-5.8c0.5-1.2,0.8-2.6,0.8-4v0v-4L57,37z"/>
<path class="st1" d="M41,37l-3,3v-5c0-5,4-9,9-9h8v4c2.8,0,5,2.2,5,5v5l-3-3c0,0-3.7,2-8,2C44.7,39,41,37,41,37z"/>
<path class="st1" d="M55,33c1.1,0,2,0.9,2,2v2l3,3v-5c0-2.8-2.2-5-5-5v-4h-3v4C52,31.7,53.3,33,55,33z"/>
<path class="st1" d="M49,64c-0.6,0-1-0.4-1-1s0.4-1,1-1h0c0.6,0,1,0.4,1,1S49.6,64,49,64z"/>
<path class="st1" d="M49,68c-0.6,0-1-0.4-1-1s0.4-1,1-1h0c0.6,0,1,0.4,1,1S49.6,68,49,68z"/>
</svg>
