<?xml version="1.0" encoding="utf-8"?>
<!-- Generator: Adobe Illustrator 24.1.3, SVG Export Plug-In . SVG Version: 6.00 Build 0)  -->
<svg version="1.1" id="Capa_1" xmlns="http://www.w3.org/2000/svg" xmlns:xlink="http://www.w3.org/1999/xlink" x="0px" y="0px"
	 viewBox="0 0 100 100" style="enable-background:new 0 0 100 100;" xml:space="preserve">
<style type="text/css">
	.st0{fill:#8E61ED;}
	.st1{fill:#F2F2F2;}
	.st2{fill:#E6E9ED;}
</style>
<g>
	<g>
		<circle class="st0" cx="50" cy="50" r="50"/>
	</g>
	<circle class="st0" cx="49.5" cy="50.5" r="40.5"/>
	<path class="st1" d="M45,56h-3c1.1,0,2-0.9,2-2c0-1.1-0.9-2-2-2h-6.8l0,0c-0.1-0.7-0.1-1.3-0.1-2c0-8.3,6.7-15,15-15
		c4.4,0,8.4,1.9,11.2,5H54c-1.1,0-2,0.9-2,2c0,1.1,0.9,2,2,2h-3c-1.1,0-2,0.9-2,2c0,1.1,0.9,2,2,2h6c-1.1,0-2,0.9-2,2
		c0,1.1,0.9,2,2,2h7.9c-1,7.3-7.3,13-14.9,13c-4.4,0-8.4-1.9-11.2-5H45c1.1,0,2-0.9,2-2C47,56.9,46.1,56,45,56z"/>
	<path class="st0" d="M45,56c1.1,0,2,0.9,2,2c0,1.1-0.9,2-2,2h-6.2c-2-2.2-3.3-4.9-3.7-8l0,0H42c1.1,0,2,0.9,2,2c0,1.1-0.9,2-2,2H45
		z"/>
	<path class="st0" d="M61.2,40c2.4,2.7,3.8,6.2,3.8,10c0,0.7-0.1,1.4-0.1,2H57c-1.1,0-2-0.9-2-2c0-1.1,0.9-2,2-2h-6
		c-1.1,0-2-0.9-2-2c0-1.1,0.9-2,2-2h3c-1.1,0-2-0.9-2-2c0-1.1,0.9-2,2-2H61.2z"/>
	<path class="st1" d="M50,70c-2,0-4-0.3-6-0.9c-0.5-0.2-0.8-0.7-0.7-1.3c0.2-0.5,0.7-0.8,1.3-0.7c1.7,0.5,3.5,0.8,5.3,0.8
		c0,0,0,0,0,0c0.6,0,1,0.4,1,1C51,69.5,50.6,70,50,70C50,70,50,70,50,70z M53.8,69.6c-0.5,0-0.9-0.3-1-0.8c-0.1-0.5,0.2-1.1,0.8-1.2
		c5.1-1.1,9.5-4.3,12.1-8.9c0.3-0.5,0.9-0.7,1.4-0.4c0.5,0.3,0.7,0.9,0.4,1.4c-2.8,5.1-7.7,8.7-13.5,9.9
		C54,69.6,53.9,69.6,53.8,69.6z M40.8,67.6c-0.2,0-0.3,0-0.5-0.1c-5.1-2.8-8.7-7.7-9.9-13.4c-0.1-0.5,0.2-1.1,0.8-1.2
		c0.5-0.1,1.1,0.2,1.2,0.8c1.1,5.1,4.3,9.5,8.9,12.1c0.5,0.3,0.7,0.9,0.4,1.4C41.5,67.4,41.1,67.6,40.8,67.6z M68.1,56.7
		c-0.1,0-0.2,0-0.3,0c-0.5-0.2-0.8-0.7-0.7-1.3c0.5-1.7,0.8-3.5,0.8-5.4c0-0.6,0.4-1,1-1c0.6,0,1,0.4,1,1h-1l1,0
		c0,2.1-0.3,4.1-0.9,6C69,56.4,68.6,56.7,68.1,56.7z M31,51c-0.6,0-1-0.4-1-1v0c0-2,0.3-4,0.9-5.9c0.2-0.5,0.7-0.8,1.3-0.7
		c0.5,0.2,0.8,0.7,0.7,1.3C32.3,46.4,32,48.2,32,50C32,50.6,31.6,51,31,51z M68.6,47.1c-0.5,0-0.9-0.3-1-0.8
		c-1.1-5.1-4.3-9.5-8.9-12.1c-0.5-0.3-0.7-0.9-0.4-1.4c0.3-0.5,0.9-0.7,1.4-0.4c5.1,2.8,8.7,7.7,9.9,13.4c0.1,0.5-0.2,1.1-0.8,1.2
		C68.7,47.1,68.7,47.1,68.6,47.1z M33.4,41.8c-0.2,0-0.3,0-0.5-0.1c-0.5-0.3-0.7-0.9-0.4-1.4c2.8-5.1,7.7-8.7,13.4-9.9
		c0.5-0.1,1.1,0.2,1.2,0.8c0.1,0.5-0.2,1.1-0.8,1.2c-5.1,1.1-9.5,4.3-12.1,8.9C34.1,41.6,33.7,41.8,33.4,41.8z M55.6,32.8
		c-0.1,0-0.2,0-0.3,0C53.6,32.3,51.8,32,50,32c-0.6,0-1-0.4-1-1c0-0.6,0.4-1,1-1H50c2,0,4,0.3,5.9,0.9c0.5,0.2,0.8,0.7,0.7,1.3
		C56.5,32.6,56.1,32.8,55.6,32.8z"/>
	<path class="st2" d="M51.6,73.9c-0.5,0-1-0.4-1-0.9c0-0.6,0.4-1,0.9-1.1c1.8-0.1,3.5-0.5,5.2-1c0.5-0.2,1.1,0.1,1.3,0.6
		c0.2,0.5-0.1,1.1-0.6,1.3C55.6,73.4,53.7,73.8,51.6,73.9C51.7,73.9,51.7,73.9,51.6,73.9z M47.9,73.9C47.9,73.9,47.9,73.9,47.9,73.9
		c-5.6-0.5-10.8-2.9-14.8-6.8c-0.4-0.4-0.4-1,0-1.4c0.4-0.4,1-0.4,1.4,0c3.6,3.6,8.4,5.8,13.5,6.3c0.6,0,1,0.5,0.9,1.1
		C48.9,73.5,48.4,73.9,47.9,73.9z M60.6,71.4c-0.4,0-0.7-0.2-0.9-0.5c-0.3-0.5-0.1-1.1,0.4-1.3c4.5-2.3,8.1-6.2,10.1-10.9
		c0.2-0.5,0.8-0.7,1.3-0.5c0.5,0.2,0.7,0.8,0.5,1.3c-2.2,5.1-6.1,9.3-11,11.9C60.9,71.4,60.7,71.4,60.6,71.4z M31.4,64.6
		c-0.3,0-0.6-0.1-0.8-0.4c-1.1-1.6-2.1-3.3-2.8-5.1c-0.2-0.5,0-1.1,0.5-1.3c0.5-0.2,1.1,0,1.3,0.5c0.7,1.6,1.5,3.2,2.6,4.7
		c0.3,0.4,0.2,1.1-0.2,1.4C31.8,64.5,31.6,64.6,31.4,64.6z M72.3,56.5c-0.1,0-0.2,0-0.2,0c-0.5-0.1-0.9-0.7-0.7-1.2
		c0.4-1.7,0.6-3.5,0.6-5.3c0-0.6,0.4-1,1-1c0.6,0,1,0.4,1,1h-1l1,0.1c0,2-0.2,3.9-0.7,5.8C73.2,56.2,72.8,56.5,72.3,56.5z
		 M27.6,56.1c-0.5,0-0.9-0.3-1-0.8C26.2,53.6,26,51.8,26,50c0-3.8,0.9-7.4,2.5-10.7c0.2-0.5,0.8-0.7,1.3-0.4
		c0.5,0.2,0.7,0.8,0.4,1.3C28.8,43.2,28,46.5,28,50c0,1.7,0.2,3.3,0.5,4.9c0.1,0.5-0.2,1.1-0.8,1.2C27.7,56.1,27.6,56.1,27.6,56.1z
		 M72.7,47.2c-0.5,0-0.9-0.3-1-0.8c-0.8-5-3.4-9.6-7.3-13C64,33,64,32.4,64.3,32c0.4-0.4,1-0.5,1.4-0.1c4.2,3.7,7,8.7,7.9,14.1
		c0.1,0.5-0.3,1.1-0.8,1.2C72.8,47.2,72.7,47.2,72.7,47.2z M31.4,37.5c-0.2,0-0.4-0.1-0.6-0.2c-0.4-0.3-0.5-0.9-0.2-1.4
		c1.1-1.6,2.5-3,4-4.3c0.4-0.4,1.1-0.3,1.4,0.1c0.4,0.4,0.3,1.1-0.1,1.4c-1.4,1.1-2.6,2.5-3.6,3.9C32,37.4,31.7,37.5,31.4,37.5z
		 M62.1,31.4c-0.2,0-0.4,0-0.5-0.1c-1.5-0.9-3.1-1.7-4.8-2.2c-0.5-0.2-0.8-0.7-0.6-1.3c0.2-0.5,0.7-0.8,1.3-0.6
		c1.9,0.6,3.6,1.4,5.3,2.4c0.5,0.3,0.6,0.9,0.3,1.4C62.8,31.3,62.4,31.4,62.1,31.4z M38.2,31.3c-0.3,0-0.7-0.2-0.9-0.5
		c-0.3-0.5-0.1-1.1,0.3-1.4c3.7-2.2,8-3.4,12.3-3.4c1.2,0,2.4,0.1,3.6,0.3c0.5,0.1,0.9,0.6,0.8,1.1c-0.1,0.5-0.6,0.9-1.1,0.8
		C52.2,28.1,51.1,28,50,28c-4,0-7.9,1.1-11.3,3.1C38.5,31.2,38.4,31.3,38.2,31.3z"/>
</g>
</svg>
