<?xml version="1.0" encoding="utf-8"?>
<!-- Generator: Adobe Illustrator 24.1.3, SVG Export Plug-In . SVG Version: 6.00 Build 0)  -->
<svg version="1.1" id="logo-hero" xmlns="http://www.w3.org/2000/svg" xmlns:xlink="http://www.w3.org/1999/xlink" x="0px" y="0px"
	 viewBox="0 0 526.2 175.8" style="enable-background:new 0 0 526.2 175.8;" xml:space="preserve">
<style type="text/css">
	.st0{fill:#D3778B;stroke:#D3778B;}
	.st1{fill:#CA7497;stroke:#CA7497;}
	.st2{fill:#C270A5;stroke:#C270A5;}
	.st3{fill:#B86DB3;stroke:#B86DB3;}
	.st4{fill:#AF6AC1;stroke:#AF6AC1;}
	.st5{fill:#8E61ED;stroke:#8E61ED;}
	.st6{fill:#A768CD;stroke:#A768CD;}
	.st7{fill:#9B64DE;stroke:#9B64DE;}
	.st8{fill:#7E5EFC;stroke:#7E5EFC;}
	.st9{fill:#141413;stroke:#141413;}
</style>
<g id="code">
	<g id="code_inf">
		<path class="st0" d="M58.5,161.1c-1.4-1.2-3.8-2.9-4.8-3.7s-8.1-6.1-15.8-12l-19.1-14.6C4.1,119.8,2.3,118.3,1.3,116.3
			c-2.7-5.2,0.3-10.8,7.1-13.1c2.6-0.9,5-0.3,8.2,2.1c1.5,1.1,5.1,3.8,8.1,5.9s7.5,5.7,10.3,7.8s6.3,4.8,7.8,5.9
			c9.2,6.9,9.6,7.3,9.6,9.5c0,1.8-0.2,2.3-1.3,2.7c-1.3,0.4-1.3,0.4,0,1.1c0.8,0.6,1.4,1.4,1.7,2.4c0.5,1.9,3.9,8.1,6.3,11.4
			c1.3,1.8,1.8,3.1,2.1,6.6c0.3,1.4,0.3,2.9,0.1,4.3c-1-0.6-2-1.3-2.9-2.1L58.5,161.1z"/>
		<path class="st1" d="M86.6,175.5c-7.1-0.6-20.8-7.9-27.6-14c-0.8-0.9,0.6,0-0.5-0.5c-0.1,0.1-0.1,0-0.5-0.5
			c-1-1.2-0.7-1.6,0.6-0.7c0.9,0.7,1,0.7,0.3-0.1c-0.5-0.8-0.7-1.7-0.6-2.6c-0.1-1.3-0.6-2.6-1.4-3.6c-2.5-3.3-4.5-7-6.1-10.8
			c-0.3-1.1-1-2.1-1.8-2.8c-1.9-1.4-2.6-4.6-1.2-5.1c0.3-0.1,0.5-0.1,0.8-0.1c0.3,0.1,0.5,0.2,0.7,0.5c0.4,0.6,0.6,0.6,1-0.2
			c0.3-0.6,0.1-1.2-0.3-1.7c-0.5-0.4-0.7-0.4-0.7,0c0,0.1,0,0.2,0,0.3c0,0.1-0.1,0.2-0.1,0.2c-0.1,0.1-0.1,0.1-0.2,0.1
			c-0.1,0-0.2,0-0.3,0c-0.3,0-0.4-0.3-0.2-0.6c0.2-0.5,0.1-1-0.2-1.3c-0.5-0.6-0.5-0.9,0.2-1.4s1.9,0.1,6.5,3.6
			c3,2.4,10,7.7,15.5,11.8c9.3,7,11.3,9,11.3,11.2c0,1,2.7,5.6,4,6.8c0.9,1,1.7,2.2,2.4,3.5c0.4,1.1,1.1,2,2,2.7
			c0.4,0,0.6,1.3,0.6,2.8c0,1.9-0.2,2.7-0.7,2.7l-3.2-0.3L86.6,175.5z"/>
		<path class="st2" d="M88.7,175.2c0-0.2-0.1-0.5-0.2-0.7c-0.1-0.2-0.3-0.3-0.5-0.4c-0.6-0.2-0.6-0.3,0-0.3c0.8,0,1-1.7,0.1-1.7
			c-0.9-0.7-1.6-1.7-2-2.7c-0.6-1.2-1.4-2.4-2.3-3.5c-1.4-1.4-4-5.9-4-7c-0.2-1.2-0.7-2.3-1.5-3.2c-0.8-1.1-1.3-2-1.1-2
			s0-0.4-0.4-0.8c-1.4-1.6-1.4-2,1.5-0.3c4.3,2.6,11.4,4.4,15.4,3.6c1.2-0.3,2.4-0.4,3.6-0.4c0.8,1.2,1.6,2.4,2.2,3.8
			c1,2,2.5,3.8,4.2,5.3c1.3,0.9,2.3,2.2,2.8,3.7c0.2,1.1,0.6,2,0.9,2c1.1,0,0.4,1.1-0.8,1.7c-4.1,1.9-8.5,3.1-13,3.5
			c-4.1,0.3-4.8,0.5-4.8-0.3L88.7,175.2z"/>
		<path class="st3" d="M105.6,172.1c-0.6-0.6-0.9-1.4-1.1-2.2c-0.5-1.5-1.4-2.8-2.7-3.6c-1.9-1.6-3.4-3.6-4.5-5.8
			c-1.2-2.3-2.5-4.1-2.9-4.1s0.8-0.6,2.6-1.3c4-1.6,7.7-3.8,11-6.5c1.9-1.5,2-1.5,4-0.7c1.8,1,3.5,2.3,4.8,3.9
			c1.5,1.7,3,3.4,3.4,3.7c1.8,1.6,2.6,2,3.5,2c0.6,0,0.9,0.6,0.9,1.6c0,1.3-0.9,2.2-5.8,5.9C112.4,169.5,106.7,172.6,105.6,172.1
			L105.6,172.1z"/>
		<path class="st4" d="M121.8,161c-0.1-0.3-0.1-0.5,0-0.8c0.1-0.3,0.3-0.5,0.5-0.6c0.7-0.4,0.6-0.5-0.3-0.5c-0.7,0-1.3-0.3-1.9-0.7
			l-1.6-1.4c-1.2-1.2-2.4-2.4-3.5-3.7c-1.3-1.6-2.8-2.9-4.6-3.9c-0.7-0.1-1.4-0.5-2-1c0-0.4,4-3.6,6.3-5c0.8-0.4,4-2.9,7.3-5.3
			s6.2-4.6,6.5-4.9c0.3-0.1,0.6-0.2,0.9-0.1c0.3,0.1,0.6,0.2,0.7,0.5c0.4,0.4,1,0.7,1.6,0.8c0.4,0,0.7,0.2,0.7,0.5
			c0.3,0.7,0.8,1.3,1.4,1.8c1,1.1,1.9,2.3,2.7,3.5c0.8,1.1,1.7,2,2.2,2c0.5,0,0.8,0.4,0.8,0.8c0,0.4,0.8,1,2.1,1.2s2.1,0.6,2.1,1
			s-2.3,2.4-5.2,4.5s-7.6,5.8-10.4,8c-1.8,1.5-3.6,2.8-5.6,4C122.3,161.9,122,161.5,121.8,161L121.8,161z"/>
		<path class="st5" d="M174,119.9c-0.7-0.6-1.2-1.3-1.8-2.1c-0.5-1.3-5.1-5.4-6.7-5.9c-1-0.4-2.7-1-3.8-1.3c-0.7-0.2-1.4-0.6-2-1.1
			c0-0.7,7.9-5.8,9.6-6.3c3.9-1.1,9.4,1.5,11.4,5.4c2.2,4.3,0.8,8.8-3.6,11.8C175.6,121.6,175.6,121.6,174,119.9L174,119.9z"/>
		<path class="st6" d="M141.8,146.6c-0.7-0.3-1.4-0.5-2.2-0.4c-1.4-0.1-1.9-0.3-1.9-1.1c0-0.1,0-0.2,0-0.4c0-0.1-0.1-0.2-0.2-0.3
			c-0.1-0.1-0.2-0.2-0.3-0.2c-0.1-0.1-0.2-0.1-0.3-0.1c-0.5,0-1.4-0.9-2.2-2c-0.8-1.2-1.7-2.4-2.7-3.5c-0.6-0.5-1.1-1.1-1.4-1.8
			c0-0.1,0-0.1-0.1-0.2c0-0.1-0.1-0.1-0.1-0.2c-0.1,0-0.1-0.1-0.2-0.1H130c-0.6-0.2-1.2-0.5-1.7-0.9c-1.1-0.9-1-1.1,2.9-4.1
			c3.6-2.9,8.3-6.4,11-8.4c0.9-0.7,1.3-0.6,3.5,0.8c1.4,0.9,2.6,2,3.7,3.2c1.1,1.1,2.5,2,3.9,2.7c1.3,0.7,2.4,1.6,2.4,2
			c0,0.2,0,0.4,0.2,0.6c0.1,0.2,0.3,0.3,0.5,0.3c0.8,0,2.3,1.4,2.3,2.1c0,0.4-15,11.8-16.1,12.3c-0.1,0-0.2,0-0.4,0
			C142,146.8,141.9,146.7,141.8,146.6L141.8,146.6z"/>
		<path class="st7" d="M156.1,134.9c-0.4-0.4-1-0.7-1.6-0.8c-0.2,0-0.4-0.1-0.5-0.3c-0.1-0.2-0.2-0.4-0.2-0.6c0-0.4-1-1.3-2.2-1.9
			c-2-1.1-3.8-2.4-5.4-3.9c-2.2-1.8-3.5-2.7-4.1-2.4s-0.8,0.1-0.6-0.3s0.1-0.7-0.2-0.7s2.9-2.7,7.3-6s9-6.8,10.2-7.8
			c2.4-2.1,3-2.2,5.3-1.1c1,0.5,2,0.8,3.1,1.1c1.4,0.3,6.4,4.7,6.9,6c0.4,0.7,1,1.4,1.6,1.9c0.6,0.5,1.1,1.1,1.4,1.8
			c0,0.4-17.6,14.3-19.5,15.4C157.2,135.6,156.5,135.3,156.1,134.9L156.1,134.9z"/>
	</g>
	<g id="code_sup">
		<path class="st8" d="M168,72c-2-1-36.8-26.8-59.4-44c-9.7-7.5-13.2-9-19.1-8.5c-4.9,0.6-9.6,2.6-13.4,5.8
			C60.5,37.3,47.5,46.7,46.3,46.7c-1.7,0-3.4-1.3-3.4-2.4c0-0.5-0.7-1.2-1.6-1.6c-1.2-0.6-2.3-1.4-3.3-2.3c-2.1-2-5.2-3.7-6.5-3.7
			c-0.6,0-4.4,2.1-4.4,1.9s7.8-6.2,13.3-10.3s11.2-8.5,12.8-9.7s3.8-3,5-3.9l6.2-4.6c8.1-6.2,15.1-9.3,22.9-9.9
			c9.8-0.6,19.5,2.3,27.3,8.2c3.4,2.6,38.3,28.8,56.5,42.6c10.2,7.7,10.9,8.7,10.3,13.6c-0.5,4.1-6.1,8.6-10.6,8.5
			C169.8,72.7,168.9,72.4,168,72z"/>
		<path class="st5" d="M29.2,57.3c0-0.3-0.5-0.5-1.1-0.5s-2.4-1.2-4-2.8c-1.9-1.7-3.5-2.8-4.3-2.8s-1.4-0.2-1.4-0.6S17.8,50,17,50
			c-0.8,0-1.6-0.4-2.1-1c-0.5-1-0.8-0.9,2.6-3.5c2.2-1.7,6.9-5.2,9.5-7.2c4.1-3.2,7.6-4.8,7.6-3.5c0,0.3,0.5,0.6,1.1,0.8
			c1.3,0.6,2.4,1.4,3.4,2.4c1.3,1.1,2.7,2.1,4.1,3c1,0.5,1.7,1.2,1.6,1.6c-0.2,0.8,1.6,2.2,3,2.3s0.5,0.5-1.9,2.5
			c-7.8,6.2-13.3,10.4-15,10.4C30,57.9,29.2,57.7,29.2,57.3L29.2,57.3z"/>
		<path class="st7" d="M4.7,70.9c-5.5-3.6-6.2-9.8-1.7-14.2c1.2-1.1,10.9-8.5,14.6-11.2c0.6-0.4-1.2,1.2-0.8,1.9
			c0.3,0.6,1.1,0.9,1.7,0.7c0.6-0.2,1.2,0,1.5,0.5c0.4,0.6,1,0.9,1.7,0.9c0.8,0,2.5,1.1,4.2,2.8s3.4,2.8,4,2.8s1.1,0.3,1.1,0.5
			s0.7,0.6,1.6,0.6s7.1-4,7-3.7c-0.3,0.7-23.9,18.1-25.9,19C10.7,72.8,7.4,72.5,4.7,70.9z"/>
	</g>
</g>
<g id="texto">
	<g id="lema">
		<path class="st9" d="M201.9,108.9h4.6v18.3h-4.6V108.9z"/>
		<path class="st9" d="M218.9,114c1.5-0.1,3,0.5,4.1,1.6c1.1,1.2,1.7,2.7,1.6,4.3v7.3h-4.5v-7c0.1-0.7-0.2-1.5-0.7-2
			c-0.5-0.5-1.2-0.7-1.9-0.7c-0.8,0-1.5,0.3-2.1,0.8c-0.5,0.6-0.8,1.3-0.8,2.1v6.8h-4.5v-12.9h3.9l0.3,1.5c0.6-0.6,1.2-1,2-1.3
			C217.2,114.2,218,114,218.9,114z"/>
		<path class="st9" d="M236.4,114c1.5-0.1,3,0.5,4.1,1.6c1.1,1.2,1.7,2.7,1.6,4.3v7.3h-4.5v-7c0.1-0.7-0.2-1.5-0.7-2
			c-0.5-0.5-1.2-0.7-1.9-0.7c-0.8,0-1.5,0.3-2.1,0.8c-0.5,0.6-0.8,1.3-0.8,2.1v6.8h-4.5v-12.9h3.9l0.3,1.5c0.6-0.6,1.2-1,2-1.3
			C234.7,114.2,235.6,114,236.4,114z"/>
		<path class="st9" d="M252.3,127.5c-1.4,0-2.8-0.3-4.1-0.8c-1.1-0.5-2-1.3-2.7-2.4c-1.3-2.2-1.3-4.9,0-7.1c0.6-1,1.6-1.8,2.7-2.3
			c2.6-1.1,5.6-1.1,8.2,0c1.1,0.5,2,1.3,2.7,2.3c1.3,2.2,1.3,4.9,0,7.1c-0.6,1-1.6,1.9-2.7,2.4C255.1,127.2,253.7,127.5,252.3,127.5
			z M252.3,124c1.7-0.1,3.1-1.5,3-3.3s-1.5-3.1-3.3-3s-3.1,1.5-3,3.3c0,0.8,0.4,1.5,0.9,2.1C250.5,123.7,251.4,124,252.3,124
			L252.3,124z"/>
		<path class="st9" d="M272.1,114.3h4.7l-5.9,12.9h-4.5l-6-12.9h4.9l1.7,3.9l1.7,4.7l1.7-4.7L272.1,114.3z"/>
		<path class="st9" d="M292.8,114.3v12.9h-3.9l-0.3-1.5c-1.2,1.2-2.9,1.9-4.7,1.8c-1.2,0-2.4-0.3-3.5-0.8c-1-0.6-1.8-1.4-2.4-2.4
			c-1.1-2.2-1.1-4.8,0-7c0.5-1,1.4-1.8,2.4-2.4c1.9-1,4.1-1.1,6.1-0.4c0.8,0.3,1.5,0.7,2,1.3l0.3-1.5L292.8,114.3z M285,124
			c0.9,0,1.8-0.3,2.4-0.9c0.6-0.6,1-1.5,0.9-2.4c0-0.9-0.3-1.7-0.9-2.3c-1.4-1.2-3.5-1.2-4.8,0c-1.2,1.3-1.2,3.4,0,4.7
			C283.2,123.7,284.1,124,285,124z"/>
		<path class="st9" d="M303,127.5c-1.4,0-2.8-0.2-4.1-0.8c-1.1-0.5-2-1.3-2.7-2.3c-0.6-1.1-1-2.3-0.9-3.6c0-2.5,1.4-4.8,3.7-5.9
			c1.3-0.6,2.6-0.9,4-0.9c1,0,2,0.2,3,0.5c0.9,0.3,1.8,0.8,2.5,1.5l-2.5,2.5c-0.8-0.7-1.8-1-2.8-1c-0.9,0-1.8,0.3-2.5,0.9
			c-0.7,0.6-1,1.5-1,2.3c0,0.9,0.3,1.8,0.9,2.4c0.7,0.6,1.6,0.9,2.5,0.9c1.1,0,2.2-0.4,3-1.1l2.5,2.5
			C307.1,126.8,305.1,127.5,303,127.5z"/>
		<path class="st9" d="M313,113c-0.7,0-1.4-0.2-1.9-0.6c-0.9-0.8-1-2.1-0.2-3c0.1-0.1,0.1-0.1,0.2-0.2c1.1-0.8,2.6-0.8,3.7,0
			c0.9,0.7,1,2.1,0.3,3c0,0,0,0,0,0l-0.2,0.2C314.3,112.8,313.7,113,313,113z M310.8,114.3h4.5v12.9h-4.4L310.8,114.3z"/>
		<path class="st9" d="M325.5,127.5c-1.4,0-2.8-0.3-4.1-0.8c-1.1-0.5-2-1.3-2.7-2.4c-1.3-2.2-1.3-4.9,0-7.1c0.6-1,1.6-1.8,2.7-2.3
			c2.6-1.1,5.6-1.1,8.2,0c1.1,0.5,2,1.3,2.7,2.3c1.3,2.2,1.3,4.9,0,7.1c-0.6,1-1.6,1.9-2.7,2.4C328.3,127.2,326.9,127.5,325.5,127.5
			z M325.5,124c1.7-0.1,3.1-1.5,3-3.3s-1.5-3.1-3.3-3c-1.7,0.1-3.1,1.5-3,3.3c0,0.8,0.4,1.5,0.9,2.1
			C323.8,123.7,324.6,124,325.5,124L325.5,124z"/>
		<path class="st9" d="M344.5,114c1.5-0.1,3,0.5,4.1,1.6c1.1,1.2,1.7,2.7,1.6,4.3v7.3h-4.5v-7c0.1-0.7-0.2-1.5-0.7-2
			c-0.5-0.5-1.2-0.7-1.9-0.7c-0.8,0-1.5,0.3-2.1,0.8c-0.5,0.6-0.8,1.3-0.8,2.1v6.8h-4.5v-12.9h3.9l0.3,1.5c0.6-0.6,1.2-1,2-1.3
			C342.8,114.2,343.6,114,344.5,114z"/>
		<path class="st9" d="M369.1,114.3h4.8l-8.8,18.5h-4.7l2.7-5.8l-5.5-12.7h4.8l1.6,4.1l1.5,4.2l1.6-4.2L369.1,114.3z"/>
		<path class="st9" d="M390.2,108.9c1.9,0,3.7,0.3,5.4,1.1c1.5,0.7,2.7,1.8,3.6,3.2c1.7,3,1.7,6.7,0,9.6c-0.9,1.4-2.1,2.5-3.6,3.2
			c-1.7,0.8-3.5,1.2-5.4,1.1h-8.1v-18.3H390.2z M390.2,123.4c1.5,0.1,2.9-0.5,4-1.5c1.1-1,1.6-2.5,1.5-3.9c0-1-0.2-2-0.7-2.8
			c-0.5-0.8-1.2-1.5-2-1.9c-0.9-0.5-1.9-0.7-2.9-0.7h-3.5v10.8H390.2z"/>
		<path class="st9" d="M409.7,114c1.4,0,2.7,0.2,4,0.8c1.1,0.5,1.9,1.3,2.5,2.3c0.6,1,0.9,2.2,0.9,3.4c0,0.5-0.1,1.1-0.2,1.6h-10.3
			c0.1,0.7,0.6,1.3,1.2,1.6c0.8,0.4,1.6,0.6,2.5,0.6c0.7,0,1.4-0.1,2-0.3c0.6-0.2,1.2-0.4,1.7-0.8l2.3,2.3c-0.8,0.7-1.8,1.2-2.8,1.6
			c-1.1,0.4-2.3,0.6-3.5,0.6c-1.5,0-2.9-0.2-4.2-0.8c-1.1-0.5-2.1-1.3-2.8-2.3c-0.7-1.1-1-2.3-1-3.6c0-1.2,0.3-2.5,0.9-3.5
			c0.6-1,1.6-1.9,2.7-2.4C407,114.3,408.3,114,409.7,114z M409.9,117.2c-0.8,0-1.5,0.2-2.2,0.6c-0.6,0.4-0.9,1.1-0.9,1.8h6.2
			c0-0.7-0.4-1.3-0.9-1.7C411.4,117.4,410.6,117.2,409.9,117.2L409.9,117.2z"/>
		<path class="st9" d="M425.1,127.5c-2.3,0.1-4.5-0.5-6.5-1.7l1.7-2.8c0.7,0.4,1.5,0.7,2.4,0.9c0.9,0.2,1.8,0.3,2.7,0.3
			c1.2,0,1.8-0.3,1.8-0.9c0-0.3-0.2-0.6-0.5-0.7c-0.5-0.2-1.1-0.3-1.7-0.3c-1.5,0-3-0.4-4.3-1.2c-1-0.6-1.6-1.7-1.6-2.9
			c0-1.2,0.6-2.4,1.7-3c1.4-0.8,3-1.2,4.6-1.2c1.1,0,2.1,0.1,3.1,0.4c0.9,0.2,1.8,0.5,2.6,1l-1.7,2.7c-1.2-0.6-2.5-0.9-3.8-0.8
			c-1.4,0-2.2,0.3-2.2,0.9c0,0.3,0.2,0.5,0.4,0.6c0.5,0.2,1,0.3,1.5,0.3c1.6,0,3.2,0.5,4.6,1.3c1,0.6,1.6,1.7,1.6,2.9
			c0,1.3-0.6,2.5-1.7,3.1C428.4,127.3,426.7,127.6,425.1,127.5z"/>
		<path class="st9" d="M448.5,114.3v12.9h-3.9l-0.3-1.5c-1.2,1.2-2.9,1.9-4.7,1.8c-1.2,0-2.4-0.3-3.5-0.8c-1-0.6-1.8-1.4-2.4-2.4
			c-1.2-2.2-1.2-4.8,0-7c0.5-1,1.4-1.8,2.4-2.4c1.9-1,4.1-1.1,6.1-0.4c0.8,0.3,1.5,0.7,2,1.3l0.3-1.5L448.5,114.3z M440.8,124
			c0.9,0,1.8-0.3,2.4-0.9c0.6-0.6,1-1.5,0.9-2.4c0-0.9-0.3-1.7-0.9-2.3c-1.4-1.2-3.5-1.2-4.8,0c-1.2,1.3-1.2,3.4,0,4.7
			C439,123.7,439.9,124,440.8,124z"/>
		<path class="st9" d="M459.8,114c0.7,0,1.3,0.1,1.9,0.3c0.6,0.2,1.2,0.5,1.7,0.9l-1.9,3c-0.4-0.2-0.7-0.4-1.1-0.5
			c-0.3-0.1-0.7-0.2-1.1-0.2c-0.8,0-1.6,0.3-2.2,0.8c-0.6,0.7-0.9,1.6-0.8,2.4v6.3h-4.5v-12.9h3.9l0.4,1.6
			C456.9,114.7,458.3,113.9,459.8,114z"/>
		<path class="st9" d="M472.9,114c0.7,0,1.3,0.1,1.9,0.3c0.6,0.2,1.2,0.5,1.7,0.9l-1.9,3c-0.4-0.2-0.7-0.4-1.1-0.5
			c-0.3-0.1-0.7-0.2-1.1-0.2c-0.8,0-1.6,0.3-2.2,0.8c-0.6,0.7-0.9,1.6-0.8,2.4v6.3h-4.5v-12.9h3.9l0.3,1.6
			C470,114.7,471.4,114,472.9,114z"/>
		<path class="st9" d="M484.6,127.5c-1.4,0-2.8-0.3-4.1-0.8c-1.1-0.5-2-1.3-2.7-2.4c-1.3-2.2-1.3-4.9,0-7.1c0.6-1,1.6-1.8,2.7-2.3
			c2.6-1.1,5.6-1.1,8.2,0c1.1,0.5,2,1.3,2.7,2.3c1.3,2.2,1.3,4.9,0,7.1c-0.6,1-1.6,1.9-2.7,2.4C487.4,127.2,486,127.5,484.6,127.5z
			 M484.6,124c0.9,0,1.7-0.3,2.4-0.9c1.2-1.3,1.2-3.4,0-4.7c-0.6-0.6-1.5-1-2.4-0.9c-1.8,0-3.3,1.5-3.3,3.3
			C481.3,122.6,482.8,124,484.6,124z"/>
		<path class="st9" d="M494.9,108.9h4.5v18.3h-4.5V108.9z"/>
		<path class="st9" d="M502.7,108.9h4.5v18.3h-4.5V108.9z"/>
		<path class="st9" d="M517.4,127.5c-1.4,0-2.8-0.3-4.1-0.8c-1.1-0.5-2-1.3-2.7-2.4c-1.3-2.2-1.3-4.9,0-7.1c0.6-1,1.6-1.8,2.7-2.3
			c2.6-1.1,5.6-1.1,8.2,0c1.1,0.5,2,1.3,2.7,2.3c1.3,2.2,1.3,4.9,0,7.1c-0.7,1-1.6,1.9-2.7,2.4C520.2,127.2,518.8,127.5,517.4,127.5
			z M517.4,124c1.8,0,3.3-1.5,3.3-3.3c0-1.8-1.5-3.3-3.3-3.3c-1.8,0-3.3,1.5-3.3,3.3C514.1,122.6,515.6,124,517.4,124L517.4,124
			L517.4,124z"/>
	</g>
	<g id="nombre_marca">
		<path class="st9" d="M220.4,89.8c-3.6,0-7.2-0.5-10.6-1.7c-3.2-1-6.2-2.6-8.8-4.7l5.4-7.6c4,3.1,8.9,4.8,13.9,4.7
			c2.2,0.1,4.3-0.4,6.3-1.3c1.4-0.7,2.3-2.1,2.3-3.7c0-1.5-0.9-2.8-2.2-3.4c-2.2-1-4.5-1.6-6.9-1.7c-6.1-0.7-10.6-2.1-13.4-4.3
			c-2.9-2.2-4.3-5.3-4.2-9.3c0-2.6,0.8-5.1,2.3-7.2c1.7-2.2,3.9-3.9,6.4-4.9c3.1-1.2,6.3-1.8,9.6-1.7c3.1,0,6.1,0.4,9.1,1.3
			c2.8,0.8,5.5,2.1,7.9,3.8l-4.9,7.4c-3.4-2.4-7.4-3.7-11.6-3.7c-2.2-0.1-4.3,0.3-6.3,1.3c-1.4,0.6-2.3,1.9-2.3,3.5
			c0,1.4,0.8,2.7,2,3.3c2.1,1,4.4,1.6,6.8,1.7c6.1,0.7,10.6,2.2,13.6,4.5c3,2.3,4.6,5.8,4.5,9.5c0.1,2.7-0.7,5.3-2.3,7.5
			c-1.7,2.2-4,4-6.6,5C227.2,89.3,223.8,89.9,220.4,89.8z M278.1,57.2v31.6h-8.7l-0.6-3.8c-2.7,2.9-6.5,4.6-10.5,4.4
			c-2.8,0.1-5.5-0.6-7.9-2c-2.3-1.4-4.1-3.4-5.3-5.8c-1.3-2.7-2-5.6-1.9-8.6c-0.1-3,0.6-5.9,1.9-8.5c1.2-2.4,3-4.4,5.3-5.8
			c4.2-2.5,9.3-2.8,13.8-1c1.8,0.7,3.3,1.8,4.6,3.2l0.6-3.7L278.1,57.2z M260.6,81c2,0.1,4-0.7,5.4-2.2c1.4-1.6,2.2-3.7,2.1-5.8
			c0.1-2.1-0.7-4.2-2.1-5.8c-3-3-7.9-3-10.9,0c-2.7,3.4-2.7,8.2,0,11.5C256.6,80.3,258.6,81.1,260.6,81z M285.6,44h10.1v44.8h-10.1
			L285.6,44z M325.9,87.6c-2.6,1.3-5.5,1.9-8.4,1.9c-3,0.2-6-0.9-8.2-2.9c-2-2-3-5.1-3-9.4v-12H301v-8h5.4v-7.8l10-1.1v9h7.9v8h-7.9
			v12c-0.1,1.1,0.3,2.1,1,2.9c0.7,0.6,1.7,0.9,2.6,0.9c1.3,0,2.5-0.3,3.6-0.9L325.9,87.6z M363.4,57.2v31.6h-8.7L354,85
			c-2.7,2.9-6.5,4.6-10.5,4.4c-2.8,0.1-5.5-0.6-7.9-2c-2.3-1.4-4.1-3.4-5.3-5.8c-1.3-2.7-2-5.6-1.9-8.6c-0.1-3,0.6-5.9,1.9-8.5
			c1.2-2.4,3-4.4,5.3-5.8c4.2-2.5,9.3-2.8,13.8-1c1.8,0.7,3.3,1.8,4.6,3.2l0.6-3.7L363.4,57.2z M345.9,81c2,0.1,4-0.7,5.4-2.2
			c1.4-1.6,2.2-3.7,2.1-5.8c0.1-2.1-0.7-4.2-2.1-5.8c-3-3-7.9-3-10.9,0c-2.7,3.4-2.7,8.2,0,11.5C341.9,80.3,343.8,81.1,345.9,81z
			 M393.1,89.8c-4.4,0.1-8.8-0.9-12.7-2.9c-3.5-1.9-6.5-4.8-8.4-8.3c-2-3.8-3-8-2.9-12.2c-0.1-4.3,0.9-8.5,3-12.2
			c2-3.5,4.9-6.4,8.5-8.3c3.8-2,8.1-3,12.4-2.9c6.4-0.1,12.5,2.5,17,7l-6.5,6.5c-2.8-2.7-6.5-4.2-10.3-4.1c-2.5,0-5,0.6-7.2,1.8
			c-2,1.1-3.7,2.9-4.8,4.9c-2.2,4.7-2.2,10.1,0,14.7c1.1,2.1,2.8,3.8,4.8,5c2.2,1.2,4.7,1.8,7.2,1.7c2.1,0,4.2-0.4,6.1-1.2
			c1.9-0.8,3.7-1.9,5.1-3.4l6.2,6.9C405.9,87.4,399.6,89.9,393.1,89.8L393.1,89.8z M430.2,89.5c-3.2,0.1-6.3-0.6-9.2-2
			c-2.5-1.3-4.6-3.4-6-5.8c-2.8-5.4-2.8-11.9,0-17.3c1.4-2.5,3.5-4.5,6-5.8c5.8-2.8,12.6-2.8,18.4,0c2.5,1.3,4.7,3.3,6.1,5.8
			c2.8,5.4,2.8,11.9,0,17.3c-1.4,2.5-3.5,4.5-6.1,5.8C436.6,88.9,433.4,89.6,430.2,89.5z M430.2,81c2,0.1,4-0.7,5.4-2.2
			c2.7-3.4,2.7-8.2,0-11.5c-1.4-1.5-3.3-2.3-5.4-2.2c-2-0.1-4,0.8-5.3,2.2c-2.7,3.4-2.7,8.2,0,11.5C426.2,80.3,428.2,81.1,430.2,81z
			 M486.6,44v44.8h-8.7l-0.6-3.8c-2.7,2.9-6.5,4.6-10.5,4.4c-2.8,0.1-5.5-0.6-7.9-2c-2.3-1.4-4.1-3.4-5.3-5.8
			c-1.3-2.7-2-5.6-1.9-8.6c-0.1-3,0.6-5.9,1.9-8.5c1.2-2.4,3-4.4,5.3-5.8c2.4-1.4,5.1-2.2,7.9-2.1c3.6-0.1,7.1,1.2,9.8,3.7V44H486.6
			z M469.1,81c2,0.1,4-0.7,5.4-2.2c1.4-1.6,2.2-3.7,2.1-5.8c0.1-2.1-0.7-4.2-2.1-5.8c-3-3-7.9-3-10.9,0c-2.7,3.4-2.7,8.2,0,11.5
			C465,80.3,467,81.1,469.1,81z M509.4,56.5c3.1-0.1,6.2,0.6,9,2c2.4,1.2,4.5,3.1,5.8,5.5c1.4,2.5,2.1,5.4,2,8.3
			c0,1.3-0.1,2.5-0.3,3.8h-23.2c0.3,1.6,1.2,3.1,2.6,4c1.7,1,3.6,1.6,5.6,1.5c1.6,0,3.1-0.2,4.6-0.7c1.4-0.4,2.7-1.1,3.8-2l5.3,5.6
			c-1.9,1.7-4,3-6.4,3.8c-2.5,0.9-5.1,1.4-7.8,1.3c-3.3,0.1-6.6-0.6-9.5-2c-2.6-1.3-4.7-3.3-6.2-5.8c-1.5-2.7-2.3-5.7-2.2-8.8
			c-0.1-3,0.7-6,2.1-8.6c1.4-2.5,3.5-4.5,6-5.8C503.2,57.2,506.3,56.4,509.4,56.5L509.4,56.5z M509.7,64.4c-1.8-0.1-3.5,0.5-4.9,1.6
			c-1.3,1.1-2,2.6-2.1,4.3h13.9c0-1.6-0.8-3.2-2-4.3C513.2,64.9,511.5,64.3,509.7,64.4L509.7,64.4z"/>
	</g>
</g>
<path id="cerros" class="st9" d="M152.6,92.1l-29.2-16.7c-0.3-0.2-0.7-0.2-1,0L94,89.8c-1.1,0.6-2.5,0.6-3.6,0L61.2,75.4
	c-0.3-0.2-0.7-0.2-1,0L31.1,92.1c-1,0.6-0.3,2.1,0.8,1.7l30.3-11c0.3-0.1,0.6-0.1,0.9,0.1L91,100.1c0.8,0.5,1.7,0.5,2.5,0l27.1-17.2
	c0.3-0.2,0.6-0.2,0.9-0.1l30.4,11C152.9,94.2,153.6,92.7,152.6,92.1z"/>
</svg>
