<svg id="Capa_1" data-name="Capa 1" xmlns="http://www.w3.org/2000/svg" width="29" height="29" viewBox="0 0 29 29">
  <defs>
    <style>
      .cls-1 {
        fill: #d3778b;
      }

      .cls-2 {
        fill: #ca7497;
      }

      .cls-3 {
        fill: #c270a5;
      }

      .cls-4 {
        fill: #b86db3;
      }

      .cls-5 {
        fill: #af6ac1;
      }

      .cls-6 {
        fill: #8e61ed;
      }

      .cls-7 {
        fill: #a768cd;
      }

      .cls-8 {
        fill: #9b64de;
      }

      .cls-9 {
        fill: #7e5efc;
      }
    </style>
  </defs>
  <g id="code">
    <g id="code_inf">
      <path class="cls-1" d="M9.83,27.08c-.23-.2-.61-.48-.77-.6l-2.52-2-3-2.4C1.15,20.27.86,20,.7,19.7c-.43-.86.05-1.78,1.13-2.17a1.29,1.29,0,0,1,1.3.35l1.29,1,1.65,1.29,1.24,1c1.46,1.14,1.52,1.2,1.52,1.58s0,.38-.21.44-.21.08,0,.18a.66.66,0,0,1,.27.4,9.14,9.14,0,0,0,1,1.88,1.75,1.75,0,0,1,.33,1.08,2.43,2.43,0,0,1,0,.71A3,3,0,0,1,9.78,27Z" transform="translate(-0.5 -0.5)"/>
      <path class="cls-2" d="M14.31,29.45a10.22,10.22,0,0,1-4.4-2.31c-.13-.14.09,0-.08-.08,0,0,0,0-.08-.08s-.11-.27.1-.12.16.11.05,0a.72.72,0,0,1-.1-.43,1,1,0,0,0-.23-.59,8.32,8.32,0,0,1-1-1.79,1.08,1.08,0,0,0-.3-.46c-.29-.24-.41-.75-.19-.83a.2.2,0,0,1,.13,0,.28.28,0,0,1,.11.08c.06.1.09.09.15,0a.32.32,0,0,0,0-.14.21.21,0,0,0-.07-.13c-.07-.08-.1-.08-.1,0s0,0,0,0,0,0,0,0l0,0h0s-.06-.05,0-.09a.25.25,0,0,0,0-.12.23.23,0,0,0-.05-.1c-.08-.1-.08-.15,0-.23s.3,0,1,.58l2.47,2c1.48,1.15,1.81,1.48,1.81,1.85a3.28,3.28,0,0,0,.63,1.12,2.76,2.76,0,0,1,.38.58,1.2,1.2,0,0,0,.32.45c.06,0,.1.21.1.46s0,.45-.12.44l-.5-.05Z" transform="translate(-0.5 -0.5)"/>
      <path class="cls-3" d="M14.65,29.4a.36.36,0,0,0,0-.11.3.3,0,0,0-.08-.08c-.1,0-.1-.05,0-.05s.16-.29,0-.29a1.12,1.12,0,0,1-.32-.45,3.14,3.14,0,0,0-.38-.57,3.23,3.23,0,0,1-.64-1.16,1.19,1.19,0,0,0-.23-.53c-.13-.18-.21-.33-.17-.33s0-.06-.07-.13c-.23-.27-.22-.34.24-.06a4,4,0,0,0,2.45.59,2.25,2.25,0,0,1,.58-.07,5.45,5.45,0,0,1,.35.62,2.54,2.54,0,0,0,.68.88,1,1,0,0,1,.43.61c0,.18.1.33.15.33s.07.18-.14.28a6.51,6.51,0,0,1-2.07.57c-.65.06-.76.08-.76-.05Z" transform="translate(-0.5 -0.5)"/>
      <path class="cls-4" d="M17.34,28.89a.74.74,0,0,1-.17-.37,1.19,1.19,0,0,0-.43-.6A2.88,2.88,0,0,1,16,27a2.09,2.09,0,0,0-.45-.68c-.06,0,.13-.1.42-.21A7.32,7.32,0,0,0,17.72,25c.29-.25.31-.25.64-.12a2.48,2.48,0,0,1,.76.65c.24.27.48.56.54.61.3.26.41.33.55.33s.15.1.15.27-.15.37-.93,1c-1,.76-1.93,1.28-2.09,1.18Z" transform="translate(-0.5 -0.5)"/>
      <path class="cls-5" d="M19.92,27.07a.15.15,0,0,1,0-.13.18.18,0,0,1,.07-.1c.11-.07.1-.09,0-.09a.5.5,0,0,1-.3-.11l-.26-.22c-.06-.05-.31-.33-.55-.61a2.27,2.27,0,0,0-.74-.64.68.68,0,0,1-.31-.17,4.94,4.94,0,0,1,1-.82c.12-.08.64-.47,1.16-.87l1-.81a.22.22,0,0,1,.14,0,.2.2,0,0,1,.12.08.48.48,0,0,0,.25.14.1.1,0,0,1,.1.08,1.16,1.16,0,0,0,.22.31,4.73,4.73,0,0,1,.43.57c.13.18.28.33.36.33a.18.18,0,0,1,.09,0,.18.18,0,0,1,0,.1c0,.07.13.16.33.2s.34.1.34.16a3.92,3.92,0,0,1-.83.75c-.46.35-1.21,1-1.66,1.32a7.47,7.47,0,0,1-.89.66s-.09-.06-.12-.15Z" transform="translate(-0.5 -0.5)"/>
      <path class="cls-6" d="M28.26,20.29A3.07,3.07,0,0,1,28,20a3.37,3.37,0,0,0-1.07-1c-.16-.06-.43-.17-.6-.22a.7.7,0,0,1-.31-.18,6.27,6.27,0,0,1,1.52-1,1.74,1.74,0,0,1,1.82.89,1.45,1.45,0,0,1-.58,1.94c-.24.18-.24.18-.5-.08Z" transform="translate(-0.5 -0.5)"/>
      <path class="cls-7" d="M23.11,24.69a.61.61,0,0,0-.35-.07c-.22,0-.3-.05-.3-.18v-.06l0-.05a.1.1,0,0,0-.05,0l-.05,0c-.08,0-.23-.14-.36-.33a4.65,4.65,0,0,0-.42-.57.93.93,0,0,1-.23-.3s0,0,0,0l0,0h-.07a.59.59,0,0,1-.27-.14c-.18-.15-.16-.18.45-.68s1.32-1.06,1.76-1.38c.14-.11.21-.09.55.13a3.3,3.3,0,0,1,.6.52,2.26,2.26,0,0,0,.62.44c.21.11.39.26.39.33a.1.1,0,0,0,0,.09.14.14,0,0,0,.08.05c.13,0,.37.23.36.34s-2.39,1.95-2.56,2h-.06l-.05,0Z" transform="translate(-0.5 -0.5)"/>
      <path class="cls-8" d="M25.39,22.75a.52.52,0,0,0-.25-.14.14.14,0,0,1-.08-.05.1.1,0,0,1,0-.09c0-.07-.17-.21-.36-.31a4.52,4.52,0,0,1-.86-.65c-.35-.3-.56-.44-.66-.4s-.14,0-.09,0,0-.12,0-.12a9.43,9.43,0,0,1,1.16-1c.7-.54,1.44-1.12,1.63-1.29.39-.34.49-.36.84-.18a3,3,0,0,0,.5.19,3.35,3.35,0,0,1,1.11,1,1,1,0,0,0,.26.32.84.84,0,0,1,.22.3c0,.07-2.82,2.36-3.12,2.53-.06,0-.17,0-.25-.07Z" transform="translate(-0.5 -0.5)"/>
    </g>
    <g id="code_sup">
      <path class="cls-9" d="M27.3,12.38C27,12.22,21.42,8,17.82,5.11c-1.54-1.23-2.1-1.48-3.05-1.4a4.09,4.09,0,0,0-2.13,1A42.47,42.47,0,0,1,7.89,8.2c-.27,0-.54-.21-.54-.4s-.12-.2-.26-.26a1.83,1.83,0,0,1-.54-.38,2.19,2.19,0,0,0-1-.61c-.09,0-.7.34-.7.3s1.25-1,2.13-1.7l2-1.6.8-.64c.19-.16.63-.5,1-.77A6.69,6.69,0,0,1,14.41.51a6.46,6.46,0,0,1,4.36,1.35c.54.42,6.11,4.75,9,7,1.63,1.27,1.74,1.43,1.65,2.24a1.88,1.88,0,0,1-1.69,1.4,1.83,1.83,0,0,1-.45-.15Z" transform="translate(-0.5 -0.5)"/>
      <path class="cls-6" d="M5.16,10S5.08,9.86,5,9.86a1.59,1.59,0,0,1-.64-.46c-.3-.29-.55-.47-.69-.47s-.22,0-.22-.09-.1-.09-.24-.09A.37.37,0,0,1,3,8.7a.44.44,0,0,1-.15-.12c-.08-.16-.13-.15.42-.57L4.8,6.83C5.46,6.3,6,6,6,6.26c0,0,.07.1.18.14a2.1,2.1,0,0,1,.54.4,5.12,5.12,0,0,0,.66.49c.16.08.27.2.26.27s.25.36.48.37.08.07-.3.41A9.55,9.55,0,0,1,5.44,10c-.17,0-.29,0-.29-.09Z" transform="translate(-0.5 -0.5)"/>
      <path class="cls-8" d="M1.24,12.2A1.46,1.46,0,0,1,1,9.86C1.16,9.67,2.7,8.45,3.29,8c.1-.07-.19.2-.12.31a.22.22,0,0,0,.12.11.22.22,0,0,0,.16,0,.18.18,0,0,1,.23.08.34.34,0,0,0,.12.12l.15,0a1.54,1.54,0,0,1,.68.46,1.57,1.57,0,0,0,.64.46c.09,0,.17.05.17.1s.11.09.25.09,1.13-.65,1.11-.61-3.8,3-4.14,3.14a1.47,1.47,0,0,1-.72.13,1.65,1.65,0,0,1-.7-.23Z" transform="translate(-0.5 -0.5)"/>
    </g>
  </g>
</svg>
