<svg id="Capa_1" data-name="Capa 1" xmlns="http://www.w3.org/2000/svg" width="178.81" height="172.96" viewBox="0 0 178.81 172.96">
  <g id="code">
    <g id="code_inf" data-name="code inf">
      <path d="M58.31,161.64c-1.39-1.19-3.73-2.89-4.73-3.6s-7.94-6-15.42-11.74L19.45,132.05C5.07,121.19,3.31,119.77,2.33,117.83c-2.65-5.1.29-10.55,6.89-12.84,2.51-.88,4.89-.28,8,2.07,1.52,1.09,5,3.71,7.89,5.78s7.36,5.58,10.11,7.65,6.2,4.74,7.6,5.79c9,6.72,9.35,7.11,9.35,9.34,0,1.76-.23,2.24-1.27,2.62-1.3.44-1.3.44,0,1a4.09,4.09,0,0,1,1.63,2.37c.46,1.9,3.8,7.92,6.19,11.14,1.3,1.75,1.76,3,2,6.44a14.5,14.5,0,0,1,.13,4.21,16.71,16.71,0,0,1-2.88-2Z" transform="translate(-0.59 -3.52)" fill="#d3778b" stroke="#d3778b" stroke-miterlimit="10"/>
      <path d="M85.8,175.69c-7-.61-20.34-7.77-27-13.7-.8-.85.56,0-.49-.49-.11.11-.08,0-.49-.49-1-1.18-.67-1.6.63-.68.92.71,1,.65.28-.11a4.25,4.25,0,0,1-.58-2.51,5.69,5.69,0,0,0-1.4-3.49,49.08,49.08,0,0,1-5.93-10.61,6,6,0,0,0-1.8-2.76c-1.82-1.41-2.51-4.48-1.19-5a1.16,1.16,0,0,1,.8-.07,1.09,1.09,0,0,1,.66.45c.42.6.59.54,1-.22a1.47,1.47,0,0,0-.28-1.63c-.47-.44-.66-.44-.66,0a.49.49,0,0,1,0,.24.5.5,0,0,1-.13.22A.6.6,0,0,1,49,135a.53.53,0,0,1-.25,0c-.29,0-.4-.26-.23-.53a1.12,1.12,0,0,0,.08-.7,1.19,1.19,0,0,0-.31-.61c-.48-.54-.48-.87.17-1.36s1.86.1,6.31,3.48c2.94,2.31,9.78,7.5,15.15,11.53,9,6.85,11,8.8,11,11,0,1,2.63,5.46,3.91,6.67a16.22,16.22,0,0,1,2.29,3.38,6.66,6.66,0,0,0,2,2.67c.36,0,.59,1.26.59,2.74,0,1.85-.23,2.67-.71,2.62l-3.09-.27Z" transform="translate(-0.59 -3.52)" fill="#ca7497" stroke="#ca7497" stroke-miterlimit="10"/>
      <path d="M87.85,175.35a1.3,1.3,0,0,0-.2-.64,1.28,1.28,0,0,0-.51-.44c-.58-.22-.58-.34,0-.34.83,0,1-1.68.12-1.68a7,7,0,0,1-2-2.68A16.55,16.55,0,0,0,83,166.18c-1.4-1.37-3.91-5.73-3.91-6.85a7.29,7.29,0,0,0-1.46-3.12c-.76-1.09-1.29-2-1-2s0-.39-.41-.82c-1.41-1.58-1.34-2,1.46-.32,4.21,2.57,11.11,4.26,15,3.49a13.66,13.66,0,0,1,3.55-.39,28.7,28.7,0,0,1,2.16,3.67,16.59,16.59,0,0,0,4.15,5.19,6.49,6.49,0,0,1,2.7,3.65c.17,1.05.57,1.91.87,1.91,1.05,0,.42,1.06-.82,1.66a40.1,40.1,0,0,1-12.71,3.43c-4,.32-4.65.47-4.65-.3Z" transform="translate(-0.59 -3.52)" fill="#c270a5" stroke="#c270a5" stroke-miterlimit="10"/>
      <path d="M104.37,172.33a4.36,4.36,0,0,1-1.05-2.18,6.86,6.86,0,0,0-2.63-3.56,17.27,17.27,0,0,1-4.44-5.67c-1.19-2.24-2.45-4-2.81-4s.82-.61,2.57-1.26a42.93,42.93,0,0,0,10.72-6.39c1.82-1.47,2-1.47,3.91-.71a15.44,15.44,0,0,1,4.67,3.83c1.46,1.64,2.93,3.33,3.34,3.66,1.81,1.52,2.51,1.95,3.39,1.95.58,0,.87.55.87,1.59,0,1.31-.87,2.18-5.66,5.73-6.26,4.54-11.86,7.6-12.87,7Z" transform="translate(-0.59 -3.52)" fill="#b86db3" stroke="#b86db3" stroke-miterlimit="10"/>
      <path d="M120.18,161.54a1.23,1.23,0,0,1,0-.76,1.26,1.26,0,0,1,.48-.61c.64-.39.58-.49-.24-.49a3.66,3.66,0,0,1-1.87-.65L117,157.71c-.39-.34-1.95-2-3.38-3.65a14.17,14.17,0,0,0-4.51-3.78,4.17,4.17,0,0,1-2-1c0-.39,3.92-3.57,6.19-4.9.76-.44,3.91-2.78,7.12-5.13s6-4.54,6.36-4.81a1.23,1.23,0,0,1,.86-.1,1.22,1.22,0,0,1,.73.48,3.24,3.24,0,0,0,1.51.82c.36,0,.65.22.65.49a6.15,6.15,0,0,0,1.36,1.8,30.81,30.81,0,0,1,2.64,3.39c.75,1.1,1.69,2,2.16,2a.82.82,0,0,1,.82.82c0,.44.83,1,2.05,1.18s2,.61,2,1-2.29,2.37-5.08,4.42-7.43,5.64-10.18,7.83a50.8,50.8,0,0,1-5.43,3.91c-.19,0-.53-.39-.77-.87Z" transform="translate(-0.59 -3.52)" fill="#af6ac1" stroke="#af6ac1" stroke-miterlimit="10"/>
      <path d="M171.29,121.34a15.2,15.2,0,0,1-1.74-2c-.53-1.31-5-5.25-6.56-5.8-1-.37-2.68-1-3.67-1.31a4.69,4.69,0,0,1-2-1c0-.71,7.73-5.68,9.36-6.12,3.86-1,9.18,1.47,11.17,5.25,2.16,4.2.82,8.57-3.56,11.52-1.51,1.09-1.51,1.09-3.1-.49Z" transform="translate(-0.59 -3.52)" fill="#8e61ed" stroke="#8e61ed" stroke-miterlimit="10"/>
      <path d="M139.76,147.43a4.18,4.18,0,0,0-2.15-.38c-1.35-.06-1.82-.34-1.82-1.1a.69.69,0,0,0,0-.35,1,1,0,0,0-.17-.31.85.85,0,0,0-.28-.22.75.75,0,0,0-.33-.1c-.48,0-1.42-.87-2.17-1.95a28.82,28.82,0,0,0-2.63-3.4,5.72,5.72,0,0,1-1.4-1.8.66.66,0,0,0-.06-.2.55.55,0,0,0-.13-.17,1,1,0,0,0-.18-.1h-.22a4.2,4.2,0,0,1-1.69-.87c-1.06-.88-1-1,2.8-4,3.56-2.79,8.07-6.28,10.76-8.19.87-.65,1.28-.54,3.38.76a22.89,22.89,0,0,1,3.66,3.08,13.79,13.79,0,0,0,3.8,2.62c1.29.66,2.38,1.53,2.38,2a.73.73,0,0,0,.16.53.78.78,0,0,0,.48.29c.76,0,2.28,1.36,2.22,2,0,.38-14.67,11.57-15.73,12.07a.73.73,0,0,1-.36,0,.82.82,0,0,1-.34-.16Z" transform="translate(-0.59 -3.52)" fill="#a768cd" stroke="#a768cd" stroke-miterlimit="10"/>
      <path d="M153.74,136a3.28,3.28,0,0,0-1.52-.82.81.81,0,0,1-.48-.28.75.75,0,0,1-.16-.54c0-.43-1-1.26-2.16-1.85a29.57,29.57,0,0,1-5.32-3.83c-2.12-1.8-3.4-2.62-4-2.37s-.82.11-.54-.27.12-.67-.23-.67,2.86-2.62,7.12-5.87,8.81-6.61,10-7.64c2.37-2,2.94-2.14,5.15-1a20.34,20.34,0,0,0,3,1.08c1.35.28,6.26,4.55,6.79,5.87a6.29,6.29,0,0,0,1.58,1.86,4.93,4.93,0,0,1,1.35,1.78c0,.44-17.24,14-19.11,15-.35.23-1.06,0-1.53-.43Z" transform="translate(-0.59 -3.52)" fill="#9b64de" stroke="#9b64de" stroke-miterlimit="10"/>
    </g>
    <g id="code_sup" data-name="code sup">
      <path d="M165.42,74.46c-2-1-36-26.23-58.1-43.1-9.49-7.32-12.91-8.8-18.7-8.3A25.56,25.56,0,0,0,75.5,28.68c-15.18,11.86-27.93,21-29.09,21-1.63,0-3.34-1.26-3.34-2.37,0-.49-.69-1.19-1.57-1.53a12.27,12.27,0,0,1-3.24-2.24c-2-2-5.08-3.66-6.39-3.66-.57,0-4.34,2-4.34,1.82s7.68-6,13.06-10.06,11-8.31,12.51-9.49,3.69-2.94,4.89-3.84l6-4.53c7.9-6,14.79-9,22.39-9.66a40.28,40.28,0,0,1,26.73,8c3.32,2.52,37.49,28.19,55.27,41.62,10,7.53,10.68,8.47,10.12,13.28-.47,4-5.93,8.4-10.35,8.29a12.06,12.06,0,0,1-2.75-.87Z" transform="translate(-0.59 -3.52)" fill="#7e5efc" stroke="#7e5efc" stroke-miterlimit="10"/>
      <path d="M29.66,60c0-.27-.47-.54-1.05-.54s-2.37-1.19-3.91-2.73C22.89,55.06,21.31,54,20.49,54s-1.35-.21-1.35-.54-.65-.55-1.46-.55a2.5,2.5,0,0,1-2-1c-.46-1-.81-.86,2.58-3.37,2.17-1.63,6.74-5.1,9.29-7C31.55,38.4,35,36.83,35,38.19c0,.27.46.6,1.09.82a11.88,11.88,0,0,1,3.34,2.37,29,29,0,0,0,4,2.93c1,.49,1.7,1.19,1.59,1.58-.18.82,1.58,2.14,2.94,2.2s.48.47-1.88,2.43c-7.62,6-13,10.13-14.64,10.13-1,0-1.77-.22-1.77-.55Z" transform="translate(-0.59 -3.52)" fill="#8e61ed" stroke="#8e61ed" stroke-miterlimit="10"/>
      <path d="M5.66,73.36C.28,69.8-.42,63.81,4,59.49c1.18-1.09,10.62-8.31,14.25-11,.58-.38-1.14,1.2-.74,1.87a1.32,1.32,0,0,0,1.69.64,1.13,1.13,0,0,1,1.46.49,1.79,1.79,0,0,0,1.65.88c.76,0,2.45,1.09,4.15,2.73s3.33,2.74,3.91,2.74,1.06.27,1.06.54.7.54,1.51.54,7-3.91,6.85-3.59C39.47,56.09,16.42,73.05,14.4,74A9.46,9.46,0,0,1,5.66,73.36Z" transform="translate(-0.59 -3.52)" fill="#9b64de" stroke="#9b64de" stroke-miterlimit="10"/>
    </g>
  </g>
</svg>
